<svg width="1957" height="60" viewBox="0 0 1957 60" fill="none" xmlns="http://www.w3.org/2000/svg">
<g filter="url(#filter0_b)">
<rect width="1957" height="60" fill="#0A0A0A" fill-opacity="0.75"/>
<g filter="url(#filter1_dd)">
<path opacity="0.2" d="M812.172 17.75H834.828C835.581 17.75 836.188 18.3354 836.188 19.0625V37.95L834.011 40.1733C833.494 40.7017 832.097 40.2555 831.662 40.8489L830.635 42.25H812.172C811.419 42.25 810.812 41.6646 810.812 40.9375V19.0625C810.812 18.3354 811.419 17.75 812.172 17.75Z" fill="black"/>
<path d="M836.188 29.5625V37.7589L834.275 39.7358C833.761 40.2671 833.257 40.032 832.717 40.5388L831.36 41.8125H822.594V29.5625H836.188Z" fill="#666666"/>
<path d="M810.812 28.6875V40.5C810.812 41.2271 811.419 41.8125 812.172 41.8125H823.5V28.6875H810.812Z" fill="#8C8C8C"/>
<path d="M812.172 17.3125C811.419 17.3125 810.812 17.8979 810.812 18.625V29.5625H824.406V17.3125H812.172Z" fill="#A6A6A6"/>
<path d="M834.828 17.3125C835.581 17.3125 836.188 17.8979 836.188 18.625V29.5625H823.5V17.3125H834.828Z" fill="#595959"/>
<path opacity="0.2" d="M812.172 17.3125C811.419 17.3125 810.812 17.8979 810.812 18.625V19.0625C810.812 18.3354 811.419 17.75 812.172 17.75H834.828C835.581 17.75 836.188 18.3354 836.188 19.0625V18.625C836.188 17.8979 835.581 17.3125 834.828 17.3125H812.172Z" fill="white"/>
<path opacity="0.2" d="M829.844 43.5625C833.848 43.5625 837.094 40.4285 837.094 36.5625C837.094 32.6965 833.848 29.5625 829.844 29.5625C825.84 29.5625 822.594 32.6965 822.594 36.5625C822.594 40.4285 825.84 43.5625 829.844 43.5625Z" fill="black"/>
<path d="M829.844 43.125C833.848 43.125 837.094 39.991 837.094 36.125C837.094 32.259 833.848 29.125 829.844 29.125C825.84 29.125 822.594 32.259 822.594 36.125C822.594 39.991 825.84 43.125 829.844 43.125Z" fill="#4CAF50"/>
<path opacity="0.2" d="M817.156 21.6875V24.3125H814.438V25.1875H817.156V27.8125H818.062V25.1875H820.781V24.3125H818.062V21.6875H817.156ZM827.125 24.3125V25.1875H832.562V24.3125H827.125ZM814.653 33.5L813.984 34.1469L816.487 36.5625L813.984 38.9781L814.653 39.625L817.155 37.2085L819.658 39.625L820.328 38.9781L817.824 36.5625L820.328 34.1469L819.658 33.5L817.155 35.9165L814.653 33.5Z" fill="black"/>
<path d="M817.156 21.25V23.875H814.438V24.75H817.156V27.375H818.062V24.75H820.781V23.875H818.062V21.25H817.156ZM827.125 23.875V24.75H832.562V23.875H827.125ZM814.653 33.0625L813.984 33.7094L816.487 36.125L813.984 38.5406L814.653 39.1875L817.155 36.771L819.658 39.1875L820.328 38.5406L817.824 36.125L820.328 33.7094L819.658 33.0625L817.155 35.479L814.653 33.0625Z" fill="white"/>
<path d="M827.125 34.375V35.25H832.562V34.375H827.125ZM827.125 37V37.875H832.562V37H827.125Z" fill="white"/>
</g>
<g filter="url(#filter2_dd)">
<path d="M884.406 17.3125H865.594C864.99 17.3125 864.5 17.8022 864.5 18.4062V31.0938C864.5 31.6978 864.99 32.1875 865.594 32.1875H884.406C885.01 32.1875 885.5 31.6978 885.5 31.0938V18.4062C885.5 17.8022 885.01 17.3125 884.406 17.3125Z" fill="#FFB300"/>
<path opacity="0.1" d="M884.406 19.5H865.594C864.99 19.5 864.5 19.9897 864.5 20.5938V33.2812C864.5 33.8853 864.99 34.375 865.594 34.375H884.406C885.01 34.375 885.5 33.8853 885.5 33.2812V20.5938C885.5 19.9897 885.01 19.5 884.406 19.5Z" fill="black"/>
<path d="M884.406 19.9375H865.594C864.99 19.9375 864.5 20.4272 864.5 21.0312V33.7188C864.5 34.3228 864.99 34.8125 865.594 34.8125H884.406C885.01 34.8125 885.5 34.3228 885.5 33.7188V21.0312C885.5 20.4272 885.01 19.9375 884.406 19.9375Z" fill="#FF5722"/>
<path opacity="0.1" d="M884.406 22.125H865.594C864.99 22.125 864.5 22.6147 864.5 23.2188V35.9062C864.5 36.5103 864.99 37 865.594 37H884.406C885.01 37 885.5 36.5103 885.5 35.9062V23.2188C885.5 22.6147 885.01 22.125 884.406 22.125Z" fill="black"/>
<path d="M884.406 22.5625H865.594C864.99 22.5625 864.5 23.0522 864.5 23.6562V36.3438C864.5 36.9478 864.99 37.4375 865.594 37.4375H884.406C885.01 37.4375 885.5 36.9478 885.5 36.3438V23.6562C885.5 23.0522 885.01 22.5625 884.406 22.5625Z" fill="#D32F2F"/>
<path opacity="0.2" d="M885.938 25.625H864.062C863.338 25.625 862.75 26.2126 862.75 26.9375V41.8125C862.75 42.5374 863.338 43.125 864.062 43.125H885.938C886.662 43.125 887.25 42.5374 887.25 41.8125V26.9375C887.25 26.2126 886.662 25.625 885.938 25.625Z" fill="black"/>
<path d="M885.938 25.1875H864.062C863.338 25.1875 862.75 25.7751 862.75 26.5V41.375C862.75 42.0999 863.338 42.6875 864.062 42.6875H885.938C886.662 42.6875 887.25 42.0999 887.25 41.375V26.5C887.25 25.7751 886.662 25.1875 885.938 25.1875Z" fill="#8E8E8E"/>
<path opacity="0.2" d="M878.5 32.625H871.5C871.017 32.625 870.625 33.0168 870.625 33.5V34.375C870.625 34.8582 871.017 35.25 871.5 35.25H878.5C878.983 35.25 879.375 34.8582 879.375 34.375V33.5C879.375 33.0168 878.983 32.625 878.5 32.625Z" fill="black"/>
<path d="M878.5 32.1875H871.5C871.017 32.1875 870.625 32.5793 870.625 33.0625V33.9375C870.625 34.4207 871.017 34.8125 871.5 34.8125H878.5C878.983 34.8125 879.375 34.4207 879.375 33.9375V33.0625C879.375 32.5793 878.983 32.1875 878.5 32.1875Z" fill="#ECECEC"/>
<path opacity="0.1" d="M865.594 17.3125C864.988 17.3125 864.5 17.8003 864.5 18.4062V18.8438C864.5 18.2378 864.988 17.75 865.594 17.75H884.406C885.012 17.75 885.5 18.2378 885.5 18.8438V18.4062C885.5 17.8003 885.012 17.3125 884.406 17.3125H865.594Z" fill="white"/>
<path opacity="0.1" d="M865.594 19.9375C864.988 19.9375 864.5 20.4253 864.5 21.0312V21.4688C864.5 20.8628 864.988 20.375 865.594 20.375H884.406C885.012 20.375 885.5 20.8628 885.5 21.4688V21.0312C885.5 20.4253 885.012 19.9375 884.406 19.9375H865.594Z" fill="white"/>
<path opacity="0.1" d="M865.594 22.5625C864.988 22.5625 864.5 23.0503 864.5 23.6562V24.0938C864.5 23.4878 864.988 23 865.594 23H884.406C885.012 23 885.5 23.4878 885.5 24.0938V23.6562C885.5 23.0503 885.012 22.5625 884.406 22.5625H865.594Z" fill="white"/>
</g>
<g filter="url(#filter3_dd)">
<path opacity="0.2" d="M917.531 40.5V41.375C917.531 42.1021 918.138 42.6875 918.891 42.6875H936.109C936.862 42.6875 937.469 42.1021 937.469 41.375V40.5C937.469 41.2271 936.862 41.8125 936.109 41.8125H918.891C918.138 41.8125 917.531 41.2271 917.531 40.5Z" fill="black"/>
<path d="M937.469 40.9375V19.0625C937.469 18.3354 936.862 17.75 936.109 17.75H918.891C918.138 17.75 917.531 18.3354 917.531 19.0625V40.9375C917.531 41.6646 918.138 42.25 918.891 42.25H936.109C936.862 42.25 937.469 41.6646 937.469 40.9375Z" fill="#E4E4E4"/>
<path opacity="0.1" d="M918.891 17.75C918.138 17.75 917.531 18.3354 917.531 19.0625V19.5C917.531 18.7729 918.138 18.1875 918.891 18.1875H936.109C936.862 18.1875 937.469 18.7729 937.469 19.5V19.0625C937.469 18.3354 936.862 17.75 936.109 17.75H918.891Z" fill="white"/>
<path opacity="0.2" fill-rule="evenodd" clip-rule="evenodd" d="M941.981 36.0587C941.883 37.847 941.078 39.531 939.733 40.764C938.388 41.9971 936.605 42.6856 934.75 42.6877C932.918 42.6877 931.153 42.0177 929.812 40.8125C928.47 39.6073 927.651 37.9564 927.519 36.1917C927.509 36.3152 927.503 36.4389 927.5 36.5627C927.5 38.4193 928.264 40.1997 929.623 41.5125C930.983 42.8252 932.827 43.5627 934.75 43.5627C936.673 43.5627 938.517 42.8252 939.877 41.5125C941.236 40.1997 942 38.4193 942 36.5627C942 36.3945 941.993 36.2264 941.981 36.0586L941.981 36.0587Z" fill="black"/>
<path d="M934.75 43.125C938.754 43.125 942 39.991 942 36.125C942 32.259 938.754 29.125 934.75 29.125C930.746 29.125 927.5 32.259 927.5 36.125C927.5 39.991 930.746 43.125 934.75 43.125Z" fill="#FFC107"/>
<path d="M931.125 38.0658V39.6251H932.74L936.818 35.6872L935.203 34.1281L931.125 38.0658ZM938.247 34.3129C938.418 34.148 938.418 33.8881 938.247 33.7232L937.238 32.7487C937.067 32.5838 936.798 32.5838 936.627 32.7487L935.783 33.5686L937.398 35.1278L938.247 34.3129Z" fill="white"/>
</g>
<g filter="url(#filter4_dd)">
<path opacity="0.2" d="M978.387 18.1875C977.029 18.1875 975.937 19.2802 975.937 20.6375V21.7859C974.877 22.1618 973.894 22.729 973.039 23.4595L972.044 22.8853C970.868 22.2067 969.375 22.6071 968.697 23.7825L968.084 24.8425C967.406 26.0179 967.806 27.511 968.981 28.1897L969.972 28.7615C969.867 29.3141 969.814 29.8751 969.812 30.4375C969.814 30.9999 969.867 31.5609 969.972 32.1135L968.981 32.6853C967.806 33.364 967.406 34.8571 968.084 36.0325L968.697 37.0925C969.375 38.2679 970.868 38.6683 972.044 37.9897L973.032 37.419C974.695 38.8415 976.811 39.6238 978.999 39.625C981.185 39.6211 983.299 38.8376 984.959 37.4155L985.954 37.9897C987.13 38.6683 988.623 38.2679 989.302 37.0925L989.914 36.0325C990.593 34.8571 990.192 33.364 989.017 32.6853L988.026 32.1135C988.131 31.5609 988.185 30.9999 988.187 30.4375C988.185 29.8751 988.131 29.3141 988.026 28.7615L989.017 28.1897C990.192 27.511 990.593 26.0179 989.914 24.8425L989.302 23.7825C988.623 22.6071 987.13 22.2067 985.954 22.8853L984.966 23.456C984.108 22.7264 983.124 22.1607 982.062 21.7871V20.6375C982.062 19.2802 980.969 18.1875 979.612 18.1875H978.387Z" fill="black"/>
<path opacity="0.2" d="M979.613 32.8872H978.388C977.034 32.8872 975.938 33.9841 975.938 35.3372V40.2372C975.938 41.5903 977.034 42.6872 978.388 42.6872H979.613C980.966 42.6872 982.062 41.5903 982.062 40.2372V35.3372C982.062 33.9841 980.966 32.8872 979.613 32.8872Z" fill="black"/>
<path d="M978.387 17.75C977.029 17.75 975.937 18.8427 975.937 20.2V21.3484C974.877 21.7243 973.894 22.2915 973.039 23.022L972.044 22.4478C970.868 21.7692 969.375 22.1696 968.697 23.345L968.084 24.405C967.406 25.5804 967.806 27.0735 968.981 27.7522L969.972 28.324C969.867 28.8766 969.814 29.4376 969.812 30C969.814 30.5624 969.867 31.1234 969.972 31.676L968.981 32.2478C967.806 32.9265 967.406 34.4196 968.084 35.595L968.697 36.655C969.375 37.8304 970.868 38.2308 972.044 37.5522L973.032 36.9815C974.695 38.404 976.811 39.1863 978.999 39.1875C981.185 39.1836 983.299 38.4001 984.959 36.978L985.954 37.5522C987.13 38.2308 988.623 37.8304 989.302 36.655L989.914 35.595C990.593 34.4196 990.192 32.9265 989.017 32.2478L988.026 31.676C988.131 31.1234 988.185 30.5624 988.187 30C988.185 29.4376 988.131 28.8766 988.026 28.324L989.017 27.7522C990.192 27.0735 990.593 25.5804 989.914 24.405L989.302 23.345C988.623 22.1696 987.13 21.7692 985.954 22.4478L984.966 23.0185C984.108 22.2889 983.124 21.7232 982.062 21.3496V20.2C982.062 18.8427 980.969 17.75 979.612 17.75H978.387Z" fill="#FF5722"/>
<path d="M979.613 32.4497H978.388C977.034 32.4497 975.938 33.5466 975.938 34.8997V39.7997C975.938 41.1528 977.034 42.2497 978.388 42.2497H979.613C980.966 42.2497 982.062 41.1528 982.062 39.7997V34.8997C982.062 33.5466 980.966 32.4497 979.613 32.4497Z" fill="#E4E4E4"/>
<path opacity="0.4" d="M980.312 34.8124C980.312 34.1359 979.725 33.5874 979 33.5874C978.275 33.5874 977.688 34.1359 977.688 34.8124V39.7124C977.688 40.389 978.275 40.9374 979 40.9374C979.725 40.9374 980.312 40.389 980.312 39.7124V34.8124Z" fill="black"/>
<path opacity="0.2" d="M981.625 24.9106V29.125L979 30.875L976.375 29.125V24.9166C974.247 25.9269 972.878 28.0702 972.875 30.4375C972.875 33.8202 975.617 36.5625 979 36.5625C982.383 36.5625 985.125 33.8202 985.125 30.4375C985.124 28.0682 983.755 25.9216 981.625 24.9106Z" fill="black"/>
<path d="M981.625 24.4731V28.6875L979 30.4375L976.375 28.6875V24.4791C974.247 25.4894 972.878 27.6327 972.875 30C972.875 33.3827 975.617 36.125 979 36.125C982.383 36.125 985.125 33.3827 985.125 30C985.124 27.6307 983.755 25.4841 981.625 24.4731Z" fill="white"/>
<path opacity="0.1" d="M978.387 17.75C977.029 17.75 975.937 18.8425 975.937 20.1998V20.6373C975.937 19.28 977.029 18.1875 978.387 18.1875H979.612C980.969 18.1875 982.062 19.28 982.062 20.6373V20.1998C982.062 18.8425 980.969 17.75 979.612 17.75H978.387ZM975.937 21.3483C974.877 21.7242 973.895 22.2916 973.039 23.0222L972.044 22.448C970.868 21.7693 969.375 22.1698 968.697 23.3452L968.084 24.4048C967.82 24.862 967.722 25.3673 967.766 25.854C967.797 25.5085 967.899 25.1635 968.084 24.8423L968.697 23.7827C969.375 22.6073 970.868 22.2068 972.044 22.8855L973.039 23.4597C973.895 22.7291 974.877 22.1617 975.937 21.7858V21.3483V21.3483ZM982.062 21.35V21.7875C983.124 22.1611 984.109 22.7267 984.966 23.4563L985.955 22.8855C987.13 22.2068 988.623 22.6073 989.302 23.7827L989.915 24.8423C990.1 25.1635 990.202 25.5085 990.233 25.854C990.277 25.3673 990.179 24.862 989.915 24.4048L989.302 23.3452C988.623 22.1698 987.13 21.7693 985.955 22.448L984.966 23.0188C984.109 22.2892 983.124 21.7236 982.062 21.35V21.35ZM988.085 28.7277L988.026 28.7618C988.116 29.2486 988.166 29.7419 988.176 30.2367C988.18 30.1578 988.184 30.0789 988.187 30C988.183 29.574 988.149 29.1489 988.085 28.7277V28.7277ZM969.916 28.7294C969.852 29.15 969.817 29.5746 969.812 30C969.815 30.067 969.819 30.1339 969.823 30.2008C969.835 29.718 969.885 29.2368 969.973 28.7618L969.916 28.7294ZM988.083 31.7081C988.067 31.8435 988.048 31.9786 988.026 32.1132L989.017 32.6857C989.736 33.1004 990.162 33.8189 990.233 34.5835C990.314 33.6645 989.872 32.7414 989.017 32.2482L988.083 31.7081ZM969.914 31.7098L968.981 32.2482C968.127 32.7414 967.685 33.6645 967.766 34.5835C967.836 33.8189 968.263 33.1004 968.981 32.6857L969.973 32.1132C969.95 31.9792 969.93 31.8447 969.914 31.7098V31.7098Z" fill="white"/>
</g>
<g filter="url(#filter5_dd)">
<path opacity="0.2" d="M1020.08 19.5C1019.38 19.5 1018.81 20.042 1018.81 20.7153V35.2986V40.1597C1018.81 40.833 1019.38 41.375 1020.08 41.375H1042.92C1043.62 41.375 1044.19 40.833 1044.19 40.1597V35.2986V20.7153C1044.19 20.042 1043.62 19.5 1042.92 19.5H1020.08Z" fill="black"/>
<path d="M1020.08 19.0625C1019.38 19.0625 1018.81 19.6045 1018.81 20.2778V34.8611V39.7222C1018.81 40.3955 1019.38 40.9375 1020.08 40.9375H1042.92C1043.62 40.9375 1044.19 40.3955 1044.19 39.7222V34.8611V20.2778C1044.19 19.6045 1043.62 19.0625 1042.92 19.0625H1020.08Z" fill="#4F4F4F"/>
<path opacity="0.2" d="M1044.19 30H1018.81V31.3125H1044.19V30Z" fill="black"/>
<path opacity="0.2" d="M1044.19 22.125H1018.81V23.4375H1044.19V22.125Z" fill="black"/>
<path opacity="0.2" d="M1044.19 27.375H1018.81V28.6875H1044.19V27.375Z" fill="black"/>
<path opacity="0.1" d="M1020.08 19.0625C1019.38 19.0625 1018.81 19.6043 1018.81 20.2776V20.7151C1018.81 20.0418 1019.38 19.5 1020.08 19.5H1042.92C1043.62 19.5 1044.19 20.0418 1044.19 20.7151V20.2776C1044.19 19.6043 1043.62 19.0625 1042.92 19.0625H1020.08Z" fill="white"/>
<path opacity="0.2" d="M1044.19 24.75H1018.81V26.0625H1044.19V24.75Z" fill="black"/>
<path d="M1023.25 23.4375C1027.69 23.4375 1026.21 32.1439 1030.87 32.1875C1033.76 32.2146 1036.13 28.6875 1039.11 28.6875C1042.1 28.6875 1044.19 31.8229 1044.19 31.8229V34.8611V39.7222C1044.19 40.3955 1043.62 40.9375 1042.92 40.9375H1020.08C1019.38 40.9375 1018.81 40.3955 1018.81 39.7222V28.1771C1018.81 28.1771 1019.75 23.4375 1023.25 23.4375Z" fill="#00ACC1"/>
<path opacity="0.2" d="M1023.25 23.4375C1027.69 23.4375 1026.21 32.1439 1030.87 32.1875C1033.76 32.2146 1036.13 28.6875 1039.11 28.6875C1042.1 28.6875 1044.19 31.8226 1044.19 31.8226V32.2601C1044.19 32.2601 1042.1 29.125 1039.11 29.125C1036.13 29.125 1033.76 32.6521 1030.87 32.625C1026.21 32.5814 1027.69 23.875 1023.25 23.875C1019.75 23.875 1018.81 28.6149 1018.81 28.6149V28.1774C1018.81 28.1774 1019.75 23.4375 1023.25 23.4375Z" fill="white"/>
</g>
<g filter="url(#filter6_dd)">
<path opacity="0.2" d="M1070.75 39.1875V39.625C1070.75 40.3521 1071.34 40.9375 1072.06 40.9375H1093.94C1094.66 40.9375 1095.25 40.3521 1095.25 39.625V39.1875C1095.25 39.9146 1094.66 40.5 1093.94 40.5H1072.06C1071.34 40.5 1070.75 39.9146 1070.75 39.1875Z" fill="black"/>
<path d="M1093.94 19.5H1072.06C1071.34 19.5 1070.75 20.0876 1070.75 20.8125V39.1875C1070.75 39.9124 1071.34 40.5 1072.06 40.5H1093.94C1094.66 40.5 1095.25 39.9124 1095.25 39.1875V20.8125C1095.25 20.0876 1094.66 19.5 1093.94 19.5Z" fill="#4F4F4F"/>
<path opacity="0.1" d="M1072.06 19.5C1071.34 19.5 1070.75 20.0854 1070.75 20.8125V21.25C1070.75 20.5229 1071.34 19.9375 1072.06 19.9375H1093.94C1094.66 19.9375 1095.25 20.5229 1095.25 21.25V20.8125C1095.25 20.0854 1094.66 19.5 1093.94 19.5H1072.06Z" fill="white"/>
<path opacity="0.2" d="M1074.25 22.5625V23.4375H1073.81C1073.09 23.4375 1072.5 24.0229 1072.5 24.75C1072.5 25.4771 1073.09 26.0625 1073.81 26.0625H1074.25V26.9375H1072.58C1072.76 27.4468 1073.24 27.8125 1073.81 27.8125H1074.25V28.6875H1075.12V27.8125H1075.56C1076.29 27.8125 1076.88 27.2271 1076.88 26.5C1076.88 25.7729 1076.29 25.1875 1075.56 25.1875H1075.12V24.3125H1076.79C1076.61 23.8032 1076.13 23.4375 1075.56 23.4375H1075.13V22.5625H1074.25H1074.25ZM1073.81 24.3125H1074.25V25.1875H1073.81C1073.57 25.1875 1073.38 24.9924 1073.38 24.75C1073.38 24.5076 1073.57 24.3125 1073.81 24.3125ZM1075.12 26.0625H1075.56C1075.8 26.0625 1076 26.2576 1076 26.5C1076 26.7424 1075.8 26.9487 1075.56 26.9375H1075.12V26.0625ZM1078.62 27.8125V28.6875H1083.88V27.8125H1078.62Z" fill="black"/>
<path d="M1074.25 22.125V23H1073.81C1073.09 23 1072.5 23.5854 1072.5 24.3125C1072.5 25.0396 1073.09 25.625 1073.81 25.625H1074.25V26.5H1072.58C1072.76 27.0093 1073.24 27.375 1073.81 27.375H1074.25V28.25H1075.12V27.375H1075.56C1076.29 27.375 1076.88 26.7896 1076.88 26.0625C1076.88 25.3354 1076.29 24.75 1075.56 24.75H1075.12V23.875H1076.79C1076.61 23.3657 1076.13 23 1075.56 23H1075.13V22.125H1074.25H1074.25ZM1073.81 23.875H1074.25V24.75H1073.81C1073.57 24.75 1073.38 24.5549 1073.38 24.3125C1073.38 24.0701 1073.57 23.875 1073.81 23.875ZM1075.12 25.625H1075.56C1075.8 25.625 1076 25.8201 1076 26.0625C1076 26.3049 1075.8 26.5112 1075.56 26.5H1075.12V25.625ZM1078.62 27.375V28.25H1083.88V27.375H1078.62Z" fill="white"/>
</g>
<g filter="url(#filter7_dd)">
<g opacity="0.2">
<path opacity="0.2" d="M1135.54 17.9688C1133.24 17.9718 1131.16 19.3701 1130.21 21.5475C1127.82 21.3887 1125.53 22.3674 1124.24 24.0938C1122.99 26.0555 1123.24 28.4714 1124.88 30.2188C1123.7 32.0029 1123.46 34.3273 1124.24 36.3438C1125.57 38.4402 1127.92 39.4474 1130.21 38.8909C1131.16 41.0679 1133.24 42.4652 1135.54 42.4688C1137.83 42.4661 1139.91 41.0683 1140.87 38.8909C1143.35 39.2037 1145.68 38.2084 1146.83 36.3438C1148.02 34.4166 1147.68 32.0261 1146.2 30.217C1146.33 30.0586 1146.45 29.8933 1146.57 29.7213C1146.57 29.7209 1146.57 29.7204 1146.57 29.7196C1146.68 29.5533 1146.78 29.3809 1146.88 29.2038C1146.88 29.2007 1146.88 29.1981 1146.88 29.195C1146.97 29.0305 1147.05 28.8616 1147.12 28.6892C1147.13 28.6757 1147.13 28.6626 1147.14 28.649C1147.2 28.4893 1147.26 28.327 1147.31 28.1621C1147.32 28.1336 1147.33 28.1052 1147.34 28.0768C1147.38 27.9263 1147.41 27.7744 1147.44 27.6213C1147.45 27.5811 1147.46 27.5408 1147.47 27.5006C1147.49 27.3566 1147.51 27.2118 1147.52 27.0666C1147.53 27.0198 1147.53 26.9729 1147.53 26.9266C1147.54 26.787 1147.54 26.6479 1147.54 26.5088C1147.54 26.458 1147.54 26.4073 1147.53 26.3565C1147.52 26.2257 1147.51 26.0957 1147.49 25.9658C1147.49 25.9076 1147.48 25.849 1147.47 25.7908C1147.45 25.6687 1147.42 25.5476 1147.39 25.4277C1147.37 25.3638 1147.36 25.3004 1147.34 25.2369C1147.3 25.1306 1147.27 25.0252 1147.23 24.9211C1147.2 24.8467 1147.17 24.7728 1147.14 24.6997C1147.1 24.6087 1147.06 24.519 1147.01 24.4306C1146.95 24.316 1146.89 24.204 1146.83 24.0938C1146.74 23.9577 1146.65 23.826 1146.56 23.6983C1146.5 23.6265 1146.44 23.5561 1146.38 23.4869C1146.32 23.4117 1146.25 23.3378 1146.19 23.2656C1146.13 23.2026 1146.06 23.1404 1146 23.0805C1145.92 23.0088 1145.85 22.9392 1145.77 22.8718C1145.7 22.8145 1145.63 22.7589 1145.56 22.7051C1145.48 22.643 1145.39 22.5831 1145.31 22.5258C1145.23 22.4711 1145.14 22.4186 1145.06 22.3687C1144.98 22.3184 1144.89 22.2707 1144.81 22.2252C1144.72 22.1762 1144.62 22.1298 1144.53 22.0865C1144.44 22.0462 1144.36 22.0082 1144.27 21.9719C1144.18 21.9321 1144.08 21.8949 1143.98 21.8607C1143.88 21.8271 1143.79 21.7956 1143.7 21.7671C1143.6 21.7374 1143.5 21.7111 1143.4 21.6875C1143.3 21.6621 1143.2 21.6394 1143.11 21.6192C1143 21.5991 1142.9 21.5821 1142.79 21.5681C1142.69 21.5506 1142.59 21.5361 1142.48 21.5252C1142.31 21.5033 1142.13 21.4906 1141.95 21.4867C1141.59 21.4692 1141.23 21.4893 1140.87 21.5466C1139.91 19.3692 1137.83 17.9714 1135.54 17.9688Z" fill="black"/>
</g>
<path d="M1135.54 39.581C1141.3 39.581 1145.97 35.1934 1145.97 29.781C1145.97 24.3686 1141.3 19.981 1135.54 19.981C1129.78 19.981 1125.11 24.3686 1125.11 29.781C1125.11 35.1934 1129.78 39.581 1135.54 39.581Z" fill="#278DF2"/>
<path d="M1138.25 21.9448C1141.37 20.2548 1145.21 21.0217 1146.83 23.6563C1148.45 26.2914 1147.23 29.8028 1144.12 31.4928C1141 33.1833 1137.16 32.4164 1135.54 29.7813C1133.92 27.1467 1135.14 23.6349 1138.25 21.9448Z" fill="#34E0C4"/>
<path d="M1135.54 42.0312C1138.78 42.0312 1141.41 39.289 1141.41 35.9062C1141.41 32.5235 1138.78 29.7812 1135.54 29.7812C1132.3 29.7812 1129.67 32.5235 1129.67 35.9062C1129.67 39.289 1132.3 42.0312 1135.54 42.0312Z" fill="#FFC107"/>
<path d="M1126.96 28.0698C1130.08 26.3798 1133.92 27.1467 1135.54 29.7818C1137.16 32.4164 1135.94 35.9278 1132.83 37.6183C1129.71 39.3083 1125.87 38.5414 1124.25 35.9063C1122.63 33.2717 1123.84 29.7603 1126.96 28.0698Z" fill="#FB8300"/>
<path d="M1132.83 21.9453C1129.71 20.2553 1125.87 21.0222 1124.25 23.6568C1122.63 26.2919 1123.84 29.8033 1126.96 31.4933C1130.08 33.1838 1133.92 32.4165 1135.54 29.7818C1137.16 27.1468 1135.94 23.6354 1132.83 21.9453Z" fill="#FA3E30"/>
<path d="M1135.54 17.5312C1132.3 17.5312 1129.67 20.2735 1129.67 23.6562C1129.67 27.039 1132.3 29.7812 1135.54 29.7812C1134.48 26.8071 1135.65 23.4283 1138.25 21.9443C1139.05 21.4416 1139.95 21.1555 1140.87 21.1096C1139.91 18.9321 1137.83 17.5343 1135.54 17.5312ZM1135.54 29.7812C1138.08 29.7795 1140.33 28.0693 1141.12 25.5454C1140.93 26.1286 1140.67 26.6798 1140.33 27.1803C1138.35 27.3711 1136.58 28.3301 1135.54 29.7812ZM1141.12 25.5454C1141.17 25.3673 1141.22 25.1871 1141.26 25.0046C1141.22 25.1871 1141.17 25.3673 1141.12 25.5454ZM1140.94 21.2719C1141.01 21.4548 1141.07 21.6411 1141.13 21.8306C1141.07 21.6411 1141.01 21.4548 1140.94 21.2719ZM1141.14 21.8559C1141.19 22.0156 1141.23 22.1771 1141.26 22.3402C1141.23 22.1771 1141.19 22.0156 1141.14 21.8559ZM1141.29 22.4899C1141.32 22.6194 1141.34 22.7502 1141.35 22.881C1141.34 22.7502 1141.32 22.6194 1141.29 22.4899ZM1141.38 23.1251C1141.39 23.3019 1141.4 23.4791 1141.41 23.6562C1141.4 23.4791 1141.39 23.3019 1141.38 23.1251ZM1141.39 23.9266C1141.39 24.0609 1141.38 24.1948 1141.37 24.3287C1141.38 24.1948 1141.39 24.0609 1141.39 23.9266ZM1141.35 24.4696C1141.33 24.6288 1141.3 24.7876 1141.27 24.9447C1141.3 24.7876 1141.33 24.6288 1141.35 24.4696Z" fill="#A544C9"/>
<path d="M1140.42 27.1749C1138.33 27.23 1136.51 28.2056 1135.54 29.7815C1138.78 29.7815 1141.41 32.5238 1141.41 35.9065C1141.4 36.7859 1141.22 37.6548 1140.87 38.4532C1143.35 38.766 1145.68 37.7711 1146.83 35.9065C1148.45 33.2697 1147.24 29.761 1144.12 28.0696C1142.98 27.4527 1141.69 27.1408 1140.42 27.1749Z" fill="#009688"/>
<path d="M1141.95 21.0499C1140.66 20.8841 1139.36 21.2 1138.25 21.945C1135.65 23.429 1134.48 26.8074 1135.54 29.7811C1136.51 28.2057 1138.33 27.23 1140.42 27.1749C1141.69 27.1408 1142.98 27.4527 1144.12 28.0696C1144.95 28.5242 1145.65 29.1113 1146.2 29.7763C1147.38 27.9922 1147.62 25.6704 1146.83 23.6565C1145.71 21.9472 1143.88 20.9677 1141.95 21.0499ZM1135.54 29.7815C1136.64 31.462 1138.44 32.4359 1140.34 32.3825C1139.27 30.8097 1137.52 29.7815 1135.54 29.7815Z" fill="#03A9F4"/>
<path d="M1135.54 29.7812C1136.57 31.7618 1138.34 32.6198 1140.34 32.3822C1139.27 30.8094 1137.52 29.7812 1135.54 29.7812Z" fill="#FFC107"/>
<g opacity="0.2">
<path opacity="0.2" d="M1135.54 17.5312C1133.24 17.5343 1131.16 18.9321 1130.21 21.11C1127.82 20.9512 1125.53 21.9303 1124.24 23.6562C1123.73 24.5168 1123.49 25.4776 1123.54 26.4436C1123.57 25.6254 1123.81 24.8226 1124.24 24.0937C1125.53 22.3678 1127.82 21.3887 1130.21 21.5475C1131.16 19.3696 1133.24 17.9718 1135.54 17.9687C1137.83 17.9718 1139.91 19.3692 1140.87 21.5466C1141.23 21.4893 1141.59 21.4692 1141.95 21.4867C1142.13 21.4906 1142.31 21.5033 1142.48 21.5252C1142.59 21.5361 1142.69 21.5506 1142.79 21.5681C1142.9 21.5821 1143 21.5991 1143.1 21.6192C1143.2 21.6394 1143.3 21.6621 1143.4 21.6875C1143.5 21.7111 1143.6 21.7374 1143.7 21.7671C1143.79 21.7956 1143.88 21.8271 1143.98 21.8607C1144.08 21.8949 1144.18 21.9321 1144.27 21.9719C1144.36 22.0082 1144.44 22.0462 1144.53 22.0865C1144.62 22.1298 1144.72 22.1762 1144.81 22.2252C1144.89 22.2707 1144.98 22.3184 1145.06 22.3687C1145.14 22.4186 1145.23 22.4711 1145.31 22.5257C1145.39 22.5831 1145.47 22.643 1145.55 22.7051C1145.63 22.7589 1145.7 22.8145 1145.77 22.8718C1145.85 22.9392 1145.92 23.0087 1146 23.0805C1146.06 23.1404 1146.13 23.2026 1146.19 23.2656C1146.25 23.3377 1146.32 23.4117 1146.38 23.4869C1146.44 23.5561 1146.5 23.6265 1146.55 23.6982C1146.65 23.826 1146.74 23.9577 1146.83 24.0937C1146.89 24.204 1146.95 24.316 1147.01 24.4306C1147.06 24.519 1147.1 24.6087 1147.14 24.6997C1147.17 24.7727 1147.2 24.8467 1147.23 24.9211C1147.27 25.0252 1147.3 25.1306 1147.34 25.2369C1147.36 25.3004 1147.37 25.3638 1147.39 25.4277C1147.42 25.5476 1147.45 25.6687 1147.47 25.7908C1147.48 25.849 1147.49 25.9076 1147.49 25.9658C1147.51 26.0957 1147.52 26.2257 1147.53 26.3565C1147.53 26.3683 1147.53 26.3797 1147.53 26.3915C1147.54 26.2847 1147.54 26.178 1147.54 26.0712C1147.54 26.0205 1147.54 25.9697 1147.53 25.919C1147.52 25.7882 1147.51 25.6582 1147.49 25.5283C1147.49 25.4701 1147.48 25.4115 1147.47 25.3533C1147.45 25.2312 1147.42 25.1101 1147.39 24.9902C1147.37 24.9263 1147.36 24.8629 1147.34 24.7994C1147.3 24.6931 1147.27 24.5877 1147.23 24.4836C1147.2 24.4092 1147.17 24.3352 1147.14 24.2622C1147.1 24.1712 1147.06 24.0815 1147.01 23.9931C1146.95 23.8785 1146.89 23.7665 1146.83 23.6562C1146.74 23.5202 1146.65 23.3885 1146.55 23.2607C1146.5 23.189 1146.44 23.1186 1146.38 23.0494C1146.32 22.9742 1146.25 22.9002 1146.19 22.8281C1146.13 22.7651 1146.06 22.7029 1146 22.643C1145.92 22.5712 1145.85 22.5017 1145.77 22.4343C1145.7 22.377 1145.63 22.3214 1145.55 22.2676C1145.47 22.2055 1145.39 22.1456 1145.31 22.0882C1145.23 22.0336 1145.14 21.9811 1145.06 21.9312C1144.98 21.8809 1144.89 21.8332 1144.81 21.7877C1144.72 21.7387 1144.62 21.6923 1144.53 21.649C1144.44 21.6087 1144.36 21.5707 1144.27 21.5344C1144.18 21.4946 1144.08 21.4574 1143.98 21.4232C1143.88 21.3896 1143.79 21.3581 1143.7 21.3296C1143.6 21.2999 1143.5 21.2736 1143.4 21.25C1143.3 21.2246 1143.2 21.2019 1143.1 21.1817C1143 21.1616 1142.9 21.1446 1142.79 21.1306C1142.69 21.1131 1142.59 21.0986 1142.48 21.0877C1142.31 21.0658 1142.13 21.0531 1141.95 21.0492C1141.59 21.0317 1141.23 21.0518 1140.87 21.1091C1139.91 18.9317 1137.83 17.5343 1135.54 17.5312ZM1146.36 29.9956C1146.31 30.0709 1146.25 30.1448 1146.2 30.217C1147.02 31.2237 1147.49 32.4106 1147.54 33.5976C1147.6 32.3507 1147.18 31.0815 1146.36 29.9956ZM1124.71 30.0052C1123.98 31.0522 1123.57 32.3201 1123.54 33.6308C1123.66 32.3739 1124.13 31.1847 1124.88 30.2187C1124.82 30.1487 1124.77 30.0774 1124.71 30.0052Z" fill="white"/>
</g>
</g>
<path d="M32.6607 38.8393C32.8214 39 33.1429 39 33.1429 39H36.3571C36.3571 39 36.6786 39 36.8393 38.8393C37 38.6786 37 38.3571 37 38.3571V35.1429C37 35.1429 37 34.8214 36.8393 34.6607C36.6786 34.5 36.3571 34.5 36.3571 34.5H33.1429C33.1429 34.5 32.8214 34.5 32.6607 34.6607C32.5 34.8214 32.5 35.1429 32.5 35.1429V38.3571C32.5 38.3571 32.5 38.6786 32.6607 38.8393Z" fill="#F0F8FF"/>
<path d="M25.9107 34.6607C26.0714 34.5 26.3929 34.5 26.3929 34.5H29.6071C29.6071 34.5 29.9286 34.5 30.0893 34.6607C30.25 34.8214 30.25 35.1429 30.25 35.1429V38.3571C30.25 38.3571 30.25 38.6786 30.0893 38.8393C29.9286 39 29.6071 39 29.6071 39H26.3929C26.3929 39 26.0714 39 25.9107 38.8393C25.75 38.6786 25.75 38.3571 25.75 38.3571V35.1429C25.75 35.1429 25.75 34.8214 25.9107 34.6607Z" fill="#F0F8FF"/>
<path d="M19.1607 34.6607C19.3214 34.5 19.6429 34.5 19.6429 34.5H22.8571C22.8571 34.5 23.1786 34.5 23.3393 34.6607C23.5 34.8214 23.5 35.1429 23.5 35.1429V38.3571C23.5 38.3571 23.5 38.6786 23.3393 38.8393C23.1786 39 22.8571 39 22.8571 39H19.6429C19.6429 39 19.3214 39 19.1607 38.8393C19 38.6786 19 38.3571 19 38.3571V35.1429C19 35.1429 19 34.8214 19.1607 34.6607Z" fill="#F0F8FF"/>
<path d="M19.1607 27.9107C19.3214 27.75 19.6429 27.75 19.6429 27.75H22.8571C22.8571 27.75 23.1786 27.75 23.3393 27.9107C23.5 28.0714 23.5 28.3929 23.5 28.3929V31.6071C23.5 31.6071 23.5 31.9286 23.3393 32.0893C23.1786 32.25 22.8571 32.25 22.8571 32.25H19.6429C19.6429 32.25 19.3214 32.25 19.1607 32.0893C19 31.9286 19 31.6071 19 31.6071V28.3929C19 28.3929 19 28.0714 19.1607 27.9107Z" fill="#F0F8FF"/>
<path d="M25.9107 27.9107C26.0714 27.75 26.3929 27.75 26.3929 27.75H29.6071C29.6071 27.75 29.9286 27.75 30.0893 27.9107C30.25 28.0714 30.25 28.3929 30.25 28.3929V31.6071C30.25 31.6071 30.25 31.9286 30.0893 32.0893C29.9286 32.25 29.6071 32.25 29.6071 32.25H26.3929C26.3929 32.25 26.0714 32.25 25.9107 32.0893C25.75 31.9286 25.75 31.6071 25.75 31.6071V28.3929C25.75 28.3929 25.75 28.0714 25.9107 27.9107Z" fill="#F0F8FF"/>
<path d="M32.6607 27.9107C32.8214 27.75 33.1429 27.75 33.1429 27.75H36.3571C36.3571 27.75 36.6786 27.75 36.8393 27.9107C37 28.0714 37 28.3929 37 28.3929V31.6071C37 31.6071 37 31.9286 36.8393 32.0893C36.6786 32.25 36.3571 32.25 36.3571 32.25H33.1429C33.1429 32.25 32.8214 32.25 32.6607 32.0893C32.5 31.9286 32.5 31.6071 32.5 31.6071V28.3929C32.5 28.3929 32.5 28.0714 32.6607 27.9107Z" fill="#F0F8FF"/>
<path d="M32.6607 21.1607C32.8214 21 33.1429 21 33.1429 21H36.3571C36.3571 21 36.6786 21 36.8393 21.1607C37 21.3214 37 21.6429 37 21.6429V24.8571C37 24.8571 37 25.1786 36.8393 25.3393C36.6786 25.5 36.3571 25.5 36.3571 25.5H33.1429C33.1429 25.5 32.8214 25.5 32.6607 25.3393C32.5 25.1786 32.5 24.8571 32.5 24.8571V21.6429C32.5 21.6429 32.5 21.3214 32.6607 21.1607Z" fill="#F0F8FF"/>
<path d="M25.9107 21.1607C26.0714 21 26.3929 21 26.3929 21H29.6071C29.6071 21 29.9286 21 30.0893 21.1607C30.25 21.3214 30.25 21.6429 30.25 21.6429V24.8571C30.25 24.8571 30.25 25.1786 30.0893 25.3393C29.9286 25.5 29.6071 25.5 29.6071 25.5H26.3929C26.3929 25.5 26.0714 25.5 25.9107 25.3393C25.75 25.1786 25.75 24.8571 25.75 24.8571V21.6429C25.75 21.6429 25.75 21.3214 25.9107 21.1607Z" fill="#F0F8FF"/>
<path d="M19.1607 21.1607C19.3214 21 19.6429 21 19.6429 21H22.8571C22.8571 21 23.1786 21 23.3393 21.1607C23.5 21.3214 23.5 21.6429 23.5 21.6429V24.8571C23.5 24.8571 23.5 25.1786 23.3393 25.3393C23.1786 25.5 22.8571 25.5 22.8571 25.5H19.6429C19.6429 25.5 19.3214 25.5 19.1607 25.3393C19 25.1786 19 24.8571 19 24.8571V21.6429C19 21.6429 19 21.3214 19.1607 21.1607Z" fill="#F0F8FF"/>
<path d="M79.3189 31.8344H78.5404L78.2645 31.5685C78.8803 30.8535 79.3304 30.0113 79.5825 29.1022C79.8347 28.193 79.8826 27.2394 79.7229 26.3096C79.2598 23.5718 76.9737 21.3855 74.2145 21.0507C73.2445 20.928 72.2593 21.0288 71.3342 21.3452C70.4092 21.6616 69.5688 22.1854 68.8775 22.8764C68.1861 23.5673 67.662 24.4072 67.3454 25.3317C67.0288 26.2562 66.928 27.2409 67.0507 28.2103C67.3857 30.9678 69.5733 33.2526 72.3127 33.7155C73.2431 33.875 74.1972 33.8271 75.1069 33.5752C76.0166 33.3232 76.8593 32.8734 77.5747 32.2579L77.8408 32.5337V33.3117L82.0287 37.4972C82.4328 37.9009 83.093 37.9009 83.497 37.4972C83.901 37.0934 83.901 36.4336 83.497 36.0298L79.3189 31.8344ZM73.4065 31.8344C70.9529 31.8344 68.9722 29.855 68.9722 27.4028C68.9722 24.9505 70.9529 22.9711 73.4065 22.9711C75.8602 22.9711 77.8408 24.9505 77.8408 27.4028C77.8408 29.855 75.8602 31.8344 73.4065 31.8344Z" fill="#F0F8FF"/>
<path d="M115 27V37C115 37.5523 115.448 38 116 38H129C129.552 38 130 37.5523 130 37V27C130 26.4477 129.552 26 129 26H116C115.448 26 115 26.4477 115 27Z" fill="#F0F8FF" fill-opacity="0.5"/>
<path d="M118 23V34C118 34.5523 118.448 35 119 35H132C132.552 35 133 34.5523 133 34V23C133 22.4477 132.552 22 132 22H119C118.448 22 118 22.4477 118 23Z" fill="#F0F8FF"/>
<path d="M1710 40C1711.1 40 1712 39.1 1712 38L1708 38C1708 39.1 1708.9 40 1710 40ZM1716 28C1716 25.21 1714.09 22.86 1711.5 22.2L1711.5 21.5C1711.5 20.67 1710.83 20 1710 20C1709.17 20 1708.5 20.67 1708.5 21.5L1708.5 22.2C1705.91 22.86 1704 25.21 1704 28L1704 35L1703 35C1702.45 35 1702 35.45 1702 36C1702 36.55 1702.45 37 1703 37L1717 37C1717.55 37 1718 36.55 1718 36C1718 35.45 1717.55 35 1717 35L1716 35L1716 28ZM1704.15 21.15C1703.75 20.75 1703.1 20.76 1702.71 21.17C1701.23 22.7404 1700.3 24.7472 1700.06 26.89C1700 27.48 1700.47 28 1701.06 28C1701.56 28 1701.99 27.63 1702.05 27.13C1702.24 25.36 1703.02 23.76 1704.17 22.52C1704.54 22.14 1704.53 21.53 1704.15 21.15ZM1715.86 21.16C1715.48 21.54 1715.47 22.15 1715.84 22.54C1717.03 23.8004 1717.77 25.4162 1717.96 27.14C1718.01 27.64 1718.45 28.01 1718.95 28.01C1719.09 28.0109 1719.23 27.9818 1719.36 27.9248C1719.49 27.8679 1719.6 27.7842 1719.7 27.6794C1719.79 27.5745 1719.86 27.4509 1719.91 27.3165C1719.95 27.1822 1719.97 27.0403 1719.95 26.9C1719.71 24.7 1718.75 22.72 1717.31 21.19C1716.91 20.77 1716.26 20.76 1715.86 21.16Z" fill="#F0F8FF"/>
<rect x="1734" y="10" width="128" height="40" rx="6" fill="#0A0A0A" fill-opacity="0.75"/>
<g clip-path="url(#clip0)">
<g clip-path="url(#clip1)">
<path d="M1750.36 25C1750.81 24.66 1755.29 21 1762 21C1768.72 21 1773.19 24.66 1773.64 25L1763.56 37.56C1762.76 38.56 1761.24 38.56 1760.44 37.56L1750.36 25Z" fill="#F0F8FF" fill-opacity="0.3"/>
<path d="M1770.47 28.95L1763.56 37.56C1762.76 38.56 1761.24 38.56 1760.44 37.56L1753.53 28.95C1753.96 28.62 1757.19 26 1762 26C1766.81 26 1770.04 28.62 1770.47 28.95V28.95Z" fill="#F0F8FF"/>
</g>
<path d="M1792 28.9999C1792.55 29.5499 1792.55 30.4399 1792 30.9899V30.9999C1791.45 31.5499 1790.55 31.5499 1790 30.9999C1789.45 30.4499 1789.45 29.5499 1790 28.9999C1790.55 28.4499 1791.45 28.4499 1792 28.9999ZM1806 30.9999C1805.87 31.1324 1805.71 31.2378 1805.54 31.31C1805.37 31.3823 1805.19 31.42 1805 31.4209C1804.82 31.4218 1804.63 31.386 1804.46 31.3154C1804.29 31.2449 1804.13 31.1411 1804 31.0099V30.9999C1803.45 30.4499 1803.45 29.5599 1804 29.0099V28.9999C1804.55 28.4499 1805.44 28.4499 1805.99 28.9999H1806C1806.55 29.5499 1806.55 30.4499 1806 30.9999Z" fill="#F0F8FF"/>
<path d="M1803 34.9999L1798.71 39.2899C1798.08 39.9199 1797 39.4799 1797 38.5899V32.4099L1793.11 36.2999C1793.02 36.3925 1792.91 36.466 1792.79 36.5161C1792.67 36.5662 1792.54 36.592 1792.41 36.592C1792.27 36.592 1792.14 36.5662 1792.02 36.5161C1791.9 36.466 1791.79 36.3925 1791.7 36.2999C1791.61 36.2074 1791.53 36.0975 1791.48 35.9765C1791.43 35.8555 1791.41 35.7259 1791.41 35.5949C1791.41 35.464 1791.43 35.3344 1791.48 35.2134C1791.53 35.0924 1791.61 34.9825 1791.7 34.8899L1796.59 29.9999L1791.7 25.1099C1791.61 25.0174 1791.53 24.9075 1791.48 24.7865C1791.43 24.6655 1791.41 24.5359 1791.41 24.4049C1791.41 24.274 1791.43 24.1444 1791.48 24.0234C1791.53 23.9024 1791.61 23.7925 1791.7 23.6999C1791.79 23.6074 1791.9 23.5339 1792.02 23.4838C1792.14 23.4337 1792.27 23.4079 1792.41 23.4079C1792.54 23.4079 1792.67 23.4337 1792.79 23.4838C1792.91 23.5339 1793.02 23.6074 1793.11 23.6999L1797 27.5899V21.4099C1797 20.5199 1798.08 20.0699 1798.71 20.6999L1803 24.9999C1803.39 25.3899 1803.39 26.0199 1803 26.4199L1799.41 29.9999L1803 33.5799C1803.39 33.9699 1803.39 34.6099 1803 34.9999ZM1800.88 25.7099L1799 23.8299V27.5899L1800.88 25.7099V25.7099ZM1799 32.4099V36.1699L1800.88 34.2899L1799 32.4099Z" fill="#F0F8FF"/>
<path d="M1842 26.33V28H1844V32H1842V33.67C1842 34.4 1841.4 35 1840.67 35H1837V30.07L1839 29H1837V25H1840.67C1841.4 25 1842 25.6 1842 26.33Z" fill="#F0F8FF" fill-opacity="0.3"/>
<path d="M1833.5 29V27L1826 31H1831.5V33L1837 30.07V35H1825.33C1824.6 35 1824 34.4 1824 33.67V26.34C1824 25.6 1824.6 25 1825.33 25H1837V29H1833.5Z" fill="#F0F8FF"/>
</g>
<path d="M1891.84 27H1886.25V26.2207L1889.2 22.9395C1889.64 22.4434 1889.94 22.041 1890.1 21.7324C1890.27 21.4199 1890.36 21.0977 1890.36 20.7656C1890.36 20.3203 1890.22 19.9551 1889.95 19.6699C1889.68 19.3848 1889.32 19.2422 1888.87 19.2422C1888.33 19.2422 1887.91 19.3965 1887.61 19.7051C1887.32 20.0098 1887.17 20.4355 1887.17 20.9824H1886.08C1886.08 20.1973 1886.34 19.5625 1886.84 19.0781C1887.35 18.5938 1888.03 18.3516 1888.87 18.3516C1889.67 18.3516 1890.29 18.5605 1890.75 18.9785C1891.21 19.3926 1891.45 19.9453 1891.45 20.6367C1891.45 21.4766 1890.91 22.4766 1889.84 23.6367L1887.55 26.1152H1891.84V27ZM1896.79 27H1895.7V19.7754L1893.51 20.5781V19.5938L1896.62 18.4277H1896.79V27ZM1900.28 26.4316C1900.28 26.2441 1900.34 26.0879 1900.44 25.9629C1900.56 25.8379 1900.73 25.7754 1900.95 25.7754C1901.17 25.7754 1901.34 25.8379 1901.45 25.9629C1901.57 26.0879 1901.63 26.2441 1901.63 26.4316C1901.63 26.6113 1901.57 26.7617 1901.45 26.8828C1901.34 27.0039 1901.17 27.0645 1900.95 27.0645C1900.73 27.0645 1900.56 27.0039 1900.44 26.8828C1900.34 26.7617 1900.28 26.6113 1900.28 26.4316ZM1900.29 21.2578C1900.29 21.0703 1900.34 20.9141 1900.45 20.7891C1900.56 20.6641 1900.73 20.6016 1900.95 20.6016C1901.18 20.6016 1901.35 20.6641 1901.46 20.7891C1901.58 20.9141 1901.63 21.0703 1901.63 21.2578C1901.63 21.4375 1901.58 21.5879 1901.46 21.709C1901.35 21.8301 1901.18 21.8906 1900.95 21.8906C1900.73 21.8906 1900.56 21.8301 1900.45 21.709C1900.34 21.5879 1900.29 21.4375 1900.29 21.2578ZM1904.93 22.207H1905.74C1906.25 22.1992 1906.66 22.0645 1906.95 21.8027C1907.24 21.541 1907.39 21.1875 1907.39 20.7422C1907.39 19.7422 1906.89 19.2422 1905.89 19.2422C1905.42 19.2422 1905.05 19.377 1904.77 19.6465C1904.49 19.9121 1904.35 20.2656 1904.35 20.707H1903.27C1903.27 20.0312 1903.51 19.4707 1904.01 19.0254C1904.5 18.5762 1905.13 18.3516 1905.89 18.3516C1906.7 18.3516 1907.33 18.5645 1907.79 18.9902C1908.24 19.416 1908.47 20.0078 1908.47 20.7656C1908.47 21.1367 1908.35 21.4961 1908.11 21.8438C1907.87 22.1914 1907.54 22.4512 1907.13 22.623C1907.6 22.7715 1907.96 23.0176 1908.21 23.3613C1908.47 23.7051 1908.6 24.125 1908.6 24.6211C1908.6 25.3867 1908.35 25.9941 1907.85 26.4434C1907.35 26.8926 1906.7 27.1172 1905.9 27.1172C1905.1 27.1172 1904.45 26.9004 1903.94 26.4668C1903.44 26.0332 1903.19 25.4609 1903.19 24.75H1904.28C1904.28 25.1992 1904.43 25.5586 1904.72 25.8281C1905.01 26.0977 1905.41 26.2324 1905.9 26.2324C1906.42 26.2324 1906.82 26.0957 1907.1 25.8223C1907.38 25.5488 1907.52 25.1562 1907.52 24.6445C1907.52 24.1484 1907.36 23.7676 1907.06 23.502C1906.75 23.2363 1906.32 23.0996 1905.74 23.0918H1904.93V22.207ZM1913.89 27H1912.8V19.7754L1910.62 20.5781V19.5938L1913.72 18.4277H1913.89V27ZM1917.38 26.4316C1917.38 26.2441 1917.44 26.0879 1917.55 25.9629C1917.66 25.8379 1917.83 25.7754 1918.05 25.7754C1918.27 25.7754 1918.44 25.8379 1918.56 25.9629C1918.67 26.0879 1918.73 26.2441 1918.73 26.4316C1918.73 26.6113 1918.67 26.7617 1918.56 26.8828C1918.44 27.0039 1918.27 27.0645 1918.05 27.0645C1917.83 27.0645 1917.66 27.0039 1917.55 26.8828C1917.44 26.7617 1917.38 26.6113 1917.38 26.4316ZM1917.39 21.2578C1917.39 21.0703 1917.44 20.9141 1917.55 20.7891C1917.67 20.6641 1917.83 20.6016 1918.06 20.6016C1918.28 20.6016 1918.45 20.6641 1918.56 20.7891C1918.68 20.9141 1918.74 21.0703 1918.74 21.2578C1918.74 21.4375 1918.68 21.5879 1918.56 21.709C1918.45 21.8301 1918.28 21.8906 1918.06 21.8906C1917.83 21.8906 1917.67 21.8301 1917.55 21.709C1917.44 21.5879 1917.39 21.4375 1917.39 21.2578ZM1925.03 24.1348H1926.21V25.0195H1925.03V27H1923.94V25.0195H1920.06V24.3809L1923.88 18.4688H1925.03V24.1348ZM1921.29 24.1348H1923.94V19.9512L1923.81 20.1855L1921.29 24.1348ZM1931.69 18.4629V19.3828H1931.49C1930.64 19.3984 1929.97 19.6484 1929.47 20.1328C1928.97 20.6172 1928.68 21.2988 1928.6 22.1777C1929.05 21.6621 1929.67 21.4043 1930.44 21.4043C1931.19 21.4043 1931.78 21.666 1932.22 22.1895C1932.66 22.7129 1932.89 23.3887 1932.89 24.2168C1932.89 25.0957 1932.65 25.7988 1932.17 26.3262C1931.69 26.8535 1931.05 27.1172 1930.24 27.1172C1929.43 27.1172 1928.77 26.8047 1928.26 26.1797C1927.75 25.5508 1927.5 24.7422 1927.5 23.7539V23.3379C1927.5 21.7676 1927.83 20.5684 1928.5 19.7402C1929.17 18.9082 1930.17 18.4824 1931.49 18.4629H1931.69ZM1930.26 22.3066C1929.89 22.3066 1929.55 22.418 1929.24 22.6406C1928.92 22.8633 1928.71 23.1426 1928.59 23.4785V23.877C1928.59 24.5801 1928.74 25.1465 1929.06 25.5762C1929.38 26.0059 1929.77 26.2207 1930.24 26.2207C1930.73 26.2207 1931.12 26.041 1931.39 25.6816C1931.67 25.3223 1931.81 24.8516 1931.81 24.2695C1931.81 23.6836 1931.67 23.2109 1931.39 22.8516C1931.11 22.4883 1930.73 22.3066 1930.26 22.3066Z" fill="#F0F8FF"/>
<path d="M1884.36 37.3613C1884.36 38.6309 1884.14 39.5742 1883.71 40.1914C1883.28 40.8086 1882.6 41.1172 1881.68 41.1172C1880.77 41.1172 1880.09 40.8164 1879.66 40.2148C1879.22 39.6094 1878.99 38.707 1878.98 37.5078V36.0605C1878.98 34.8066 1879.19 33.875 1879.63 33.2656C1880.06 32.6562 1880.74 32.3516 1881.67 32.3516C1882.58 32.3516 1883.26 32.6465 1883.69 33.2363C1884.13 33.8223 1884.35 34.7285 1884.36 35.9551V37.3613ZM1883.28 35.8789C1883.28 34.9609 1883.15 34.293 1882.89 33.875C1882.63 33.4531 1882.22 33.2422 1881.67 33.2422C1881.11 33.2422 1880.71 33.4512 1880.45 33.8691C1880.2 34.2871 1880.07 34.9297 1880.06 35.7969V37.5312C1880.06 38.4531 1880.19 39.1348 1880.46 39.5762C1880.73 40.0137 1881.13 40.2324 1881.68 40.2324C1882.21 40.2324 1882.61 40.0254 1882.87 39.6113C1883.13 39.1973 1883.27 38.5449 1883.28 37.6543V35.8789ZM1890.24 32.4629V33.3828H1890.04C1889.2 33.3984 1888.53 33.6484 1888.03 34.1328C1887.53 34.6172 1887.24 35.2988 1887.16 36.1777C1887.61 35.6621 1888.22 35.4043 1889 35.4043C1889.74 35.4043 1890.34 35.666 1890.78 36.1895C1891.22 36.7129 1891.45 37.3887 1891.45 38.2168C1891.45 39.0957 1891.2 39.7988 1890.72 40.3262C1890.25 40.8535 1889.61 41.1172 1888.8 41.1172C1887.99 41.1172 1887.32 40.8047 1886.82 40.1797C1886.31 39.5508 1886.05 38.7422 1886.05 37.7539V37.3379C1886.05 35.7676 1886.39 34.5684 1887.06 33.7402C1887.73 32.9082 1888.73 32.4824 1890.05 32.4629H1890.24ZM1888.82 36.3066C1888.45 36.3066 1888.11 36.418 1887.79 36.6406C1887.48 36.8633 1887.27 37.1426 1887.14 37.4785V37.877C1887.14 38.5801 1887.3 39.1465 1887.62 39.5762C1887.94 40.0059 1888.33 40.2207 1888.8 40.2207C1889.29 40.2207 1889.67 40.041 1889.95 39.6816C1890.23 39.3223 1890.37 38.8516 1890.37 38.2695C1890.37 37.6836 1890.23 37.2109 1889.95 36.8516C1889.66 36.4883 1889.29 36.3066 1888.82 36.3066ZM1893.1 40.4316C1893.1 40.2441 1893.16 40.0879 1893.27 39.9629C1893.38 39.8379 1893.55 39.7754 1893.77 39.7754C1893.99 39.7754 1894.16 39.8379 1894.27 39.9629C1894.39 40.0879 1894.45 40.2441 1894.45 40.4316C1894.45 40.6113 1894.39 40.7617 1894.27 40.8828C1894.16 41.0039 1893.99 41.0645 1893.77 41.0645C1893.55 41.0645 1893.38 41.0039 1893.27 40.8828C1893.16 40.7617 1893.1 40.6113 1893.1 40.4316ZM1901.72 37.3613C1901.72 38.6309 1901.51 39.5742 1901.07 40.1914C1900.64 40.8086 1899.96 41.1172 1899.04 41.1172C1898.13 41.1172 1897.45 40.8164 1897.02 40.2148C1896.58 39.6094 1896.35 38.707 1896.34 37.5078V36.0605C1896.34 34.8066 1896.55 33.875 1896.99 33.2656C1897.42 32.6562 1898.1 32.3516 1899.03 32.3516C1899.94 32.3516 1900.62 32.6465 1901.05 33.2363C1901.49 33.8223 1901.71 34.7285 1901.72 35.9551V37.3613ZM1900.64 35.8789C1900.64 34.9609 1900.51 34.293 1900.25 33.875C1899.99 33.4531 1899.59 33.2422 1899.03 33.2422C1898.47 33.2422 1898.07 33.4512 1897.81 33.8691C1897.56 34.2871 1897.43 34.9297 1897.42 35.7969V37.5312C1897.42 38.4531 1897.55 39.1348 1897.82 39.5762C1898.09 40.0137 1898.5 40.2324 1899.04 40.2324C1899.57 40.2324 1899.97 40.0254 1900.23 39.6113C1900.49 39.1973 1900.63 38.5449 1900.64 37.6543V35.8789ZM1904.93 36.207H1905.74C1906.25 36.1992 1906.66 36.0645 1906.95 35.8027C1907.24 35.541 1907.39 35.1875 1907.39 34.7422C1907.39 33.7422 1906.89 33.2422 1905.89 33.2422C1905.42 33.2422 1905.05 33.377 1904.77 33.6465C1904.49 33.9121 1904.35 34.2656 1904.35 34.707H1903.27C1903.27 34.0312 1903.51 33.4707 1904.01 33.0254C1904.5 32.5762 1905.13 32.3516 1905.89 32.3516C1906.7 32.3516 1907.33 32.5645 1907.79 32.9902C1908.24 33.416 1908.47 34.0078 1908.47 34.7656C1908.47 35.1367 1908.35 35.4961 1908.11 35.8438C1907.87 36.1914 1907.54 36.4512 1907.13 36.623C1907.6 36.7715 1907.96 37.0176 1908.21 37.3613C1908.47 37.7051 1908.6 38.125 1908.6 38.6211C1908.6 39.3867 1908.35 39.9941 1907.85 40.4434C1907.35 40.8926 1906.7 41.1172 1905.9 41.1172C1905.1 41.1172 1904.45 40.9004 1903.94 40.4668C1903.44 40.0332 1903.19 39.4609 1903.19 38.75H1904.28C1904.28 39.1992 1904.43 39.5586 1904.72 39.8281C1905.01 40.0977 1905.41 40.2324 1905.9 40.2324C1906.42 40.2324 1906.82 40.0957 1907.1 39.8223C1907.38 39.5488 1907.52 39.1562 1907.52 38.6445C1907.52 38.1484 1907.36 37.7676 1907.06 37.502C1906.75 37.2363 1906.32 37.0996 1905.74 37.0918H1904.93V36.207ZM1910.46 40.4316C1910.46 40.2441 1910.52 40.0879 1910.63 39.9629C1910.74 39.8379 1910.91 39.7754 1911.13 39.7754C1911.35 39.7754 1911.52 39.8379 1911.64 39.9629C1911.75 40.0879 1911.81 40.2441 1911.81 40.4316C1911.81 40.6113 1911.75 40.7617 1911.64 40.8828C1911.52 41.0039 1911.35 41.0645 1911.13 41.0645C1910.91 41.0645 1910.74 41.0039 1910.63 40.8828C1910.52 40.7617 1910.46 40.6113 1910.46 40.4316ZM1919.32 41H1913.73V40.2207L1916.69 36.9395C1917.12 36.4434 1917.42 36.041 1917.59 35.7324C1917.76 35.4199 1917.84 35.0977 1917.84 34.7656C1917.84 34.3203 1917.71 33.9551 1917.44 33.6699C1917.17 33.3848 1916.81 33.2422 1916.36 33.2422C1915.82 33.2422 1915.4 33.3965 1915.1 33.7051C1914.8 34.0098 1914.65 34.4355 1914.65 34.9824H1913.57C1913.57 34.1973 1913.82 33.5625 1914.32 33.0781C1914.83 32.5938 1915.51 32.3516 1916.36 32.3516C1917.15 32.3516 1917.78 32.5605 1918.24 32.9785C1918.7 33.3926 1918.93 33.9453 1918.93 34.6367C1918.93 35.4766 1918.4 36.4766 1917.32 37.6367L1915.04 40.1152H1919.32V41ZM1926.06 37.3613C1926.06 38.6309 1925.84 39.5742 1925.41 40.1914C1924.98 40.8086 1924.3 41.1172 1923.38 41.1172C1922.47 41.1172 1921.79 40.8164 1921.36 40.2148C1920.92 39.6094 1920.69 38.707 1920.68 37.5078V36.0605C1920.68 34.8066 1920.89 33.875 1921.33 33.2656C1921.76 32.6562 1922.44 32.3516 1923.37 32.3516C1924.28 32.3516 1924.96 32.6465 1925.39 33.2363C1925.83 33.8223 1926.05 34.7285 1926.06 35.9551V37.3613ZM1924.98 35.8789C1924.98 34.9609 1924.85 34.293 1924.59 33.875C1924.33 33.4531 1923.92 33.2422 1923.37 33.2422C1922.81 33.2422 1922.41 33.4512 1922.15 33.8691C1921.9 34.2871 1921.77 34.9297 1921.76 35.7969V37.5312C1921.76 38.4531 1921.89 39.1348 1922.16 39.5762C1922.43 40.0137 1922.83 40.2324 1923.38 40.2324C1923.91 40.2324 1924.31 40.0254 1924.57 39.6113C1924.83 39.1973 1924.97 38.5449 1924.98 37.6543V35.8789ZM1933.28 41H1927.69V40.2207L1930.64 36.9395C1931.08 36.4434 1931.38 36.041 1931.55 35.7324C1931.71 35.4199 1931.8 35.0977 1931.8 34.7656C1931.8 34.3203 1931.66 33.9551 1931.39 33.6699C1931.12 33.3848 1930.76 33.2422 1930.31 33.2422C1929.78 33.2422 1929.36 33.3965 1929.05 33.7051C1928.76 34.0098 1928.61 34.4355 1928.61 34.9824H1927.53C1927.53 34.1973 1927.78 33.5625 1928.28 33.0781C1928.79 32.5938 1929.47 32.3516 1930.31 32.3516C1931.11 32.3516 1931.73 32.5605 1932.2 32.9785C1932.66 33.3926 1932.89 33.9453 1932.89 34.6367C1932.89 35.4766 1932.35 36.4766 1931.28 37.6367L1929 40.1152H1933.28V41ZM1938.23 41H1937.14V33.7754L1934.96 34.5781V33.5938L1938.06 32.4277H1938.23V41Z" fill="#F0F8FF" fill-opacity="0.76"/>
</g>
<defs>
<filter id="filter0_b" x="-48" y="-48" width="2053" height="156" filterUnits="userSpaceOnUse" color-interpolation-filters="sRGB">
<feFlood flood-opacity="0" result="BackgroundImageFix"/>
<feGaussianBlur in="BackgroundImage" stdDeviation="24"/>
<feComposite in2="SourceAlpha" operator="in" result="effect1_backgroundBlur"/>
<feBlend mode="normal" in="SourceGraphic" in2="effect1_backgroundBlur" result="shape"/>
</filter>
<filter id="filter1_dd" x="794.75" y="3.6" width="56.5" height="56.5" filterUnits="userSpaceOnUse" color-interpolation-filters="sRGB">
<feFlood flood-opacity="0" result="BackgroundImageFix"/>
<feColorMatrix in="SourceAlpha" type="matrix" values="0 0 0 0 0 0 0 0 0 0 0 0 0 0 0 0 0 0 127 0" result="hardAlpha"/>
<feOffset dy="1.85"/>
<feGaussianBlur stdDeviation="3.125"/>
<feColorMatrix type="matrix" values="0 0 0 0 0 0 0 0 0 0 0 0 0 0 0 0 0 0 0.19 0"/>
<feBlend mode="normal" in2="BackgroundImageFix" result="effect1_dropShadow"/>
<feColorMatrix in="SourceAlpha" type="matrix" values="0 0 0 0 0 0 0 0 0 0 0 0 0 0 0 0 0 0 127 0" result="hardAlpha"/>
<feOffset dy="0.5"/>
<feGaussianBlur stdDeviation="0.875"/>
<feColorMatrix type="matrix" values="0 0 0 0 0 0 0 0 0 0 0 0 0 0 0 0 0 0 0.039 0"/>
<feBlend mode="normal" in2="effect1_dropShadow" result="effect2_dropShadow"/>
<feBlend mode="normal" in="SourceGraphic" in2="effect2_dropShadow" result="shape"/>
</filter>
<filter id="filter2_dd" x="846.75" y="3.6" width="56.5" height="56.5" filterUnits="userSpaceOnUse" color-interpolation-filters="sRGB">
<feFlood flood-opacity="0" result="BackgroundImageFix"/>
<feColorMatrix in="SourceAlpha" type="matrix" values="0 0 0 0 0 0 0 0 0 0 0 0 0 0 0 0 0 0 127 0" result="hardAlpha"/>
<feOffset dy="1.85"/>
<feGaussianBlur stdDeviation="3.125"/>
<feColorMatrix type="matrix" values="0 0 0 0 0 0 0 0 0 0 0 0 0 0 0 0 0 0 0.19 0"/>
<feBlend mode="normal" in2="BackgroundImageFix" result="effect1_dropShadow"/>
<feColorMatrix in="SourceAlpha" type="matrix" values="0 0 0 0 0 0 0 0 0 0 0 0 0 0 0 0 0 0 127 0" result="hardAlpha"/>
<feOffset dy="0.5"/>
<feGaussianBlur stdDeviation="0.875"/>
<feColorMatrix type="matrix" values="0 0 0 0 0 0 0 0 0 0 0 0 0 0 0 0 0 0 0.039 0"/>
<feBlend mode="normal" in2="effect1_dropShadow" result="effect2_dropShadow"/>
<feBlend mode="normal" in="SourceGraphic" in2="effect2_dropShadow" result="shape"/>
</filter>
<filter id="filter3_dd" x="898.75" y="3.6" width="56.5" height="56.5" filterUnits="userSpaceOnUse" color-interpolation-filters="sRGB">
<feFlood flood-opacity="0" result="BackgroundImageFix"/>
<feColorMatrix in="SourceAlpha" type="matrix" values="0 0 0 0 0 0 0 0 0 0 0 0 0 0 0 0 0 0 127 0" result="hardAlpha"/>
<feOffset dy="1.85"/>
<feGaussianBlur stdDeviation="3.125"/>
<feColorMatrix type="matrix" values="0 0 0 0 0 0 0 0 0 0 0 0 0 0 0 0 0 0 0.19 0"/>
<feBlend mode="normal" in2="BackgroundImageFix" result="effect1_dropShadow"/>
<feColorMatrix in="SourceAlpha" type="matrix" values="0 0 0 0 0 0 0 0 0 0 0 0 0 0 0 0 0 0 127 0" result="hardAlpha"/>
<feOffset dy="0.5"/>
<feGaussianBlur stdDeviation="0.875"/>
<feColorMatrix type="matrix" values="0 0 0 0 0 0 0 0 0 0 0 0 0 0 0 0 0 0 0.039 0"/>
<feBlend mode="normal" in2="effect1_dropShadow" result="effect2_dropShadow"/>
<feBlend mode="normal" in="SourceGraphic" in2="effect2_dropShadow" result="shape"/>
</filter>
<filter id="filter4_dd" x="950.75" y="3.6" width="56.5" height="56.5" filterUnits="userSpaceOnUse" color-interpolation-filters="sRGB">
<feFlood flood-opacity="0" result="BackgroundImageFix"/>
<feColorMatrix in="SourceAlpha" type="matrix" values="0 0 0 0 0 0 0 0 0 0 0 0 0 0 0 0 0 0 127 0" result="hardAlpha"/>
<feOffset dy="1.85"/>
<feGaussianBlur stdDeviation="3.125"/>
<feColorMatrix type="matrix" values="0 0 0 0 0 0 0 0 0 0 0 0 0 0 0 0 0 0 0.19 0"/>
<feBlend mode="normal" in2="BackgroundImageFix" result="effect1_dropShadow"/>
<feColorMatrix in="SourceAlpha" type="matrix" values="0 0 0 0 0 0 0 0 0 0 0 0 0 0 0 0 0 0 127 0" result="hardAlpha"/>
<feOffset dy="0.5"/>
<feGaussianBlur stdDeviation="0.875"/>
<feColorMatrix type="matrix" values="0 0 0 0 0 0 0 0 0 0 0 0 0 0 0 0 0 0 0.039 0"/>
<feBlend mode="normal" in2="effect1_dropShadow" result="effect2_dropShadow"/>
<feBlend mode="normal" in="SourceGraphic" in2="effect2_dropShadow" result="shape"/>
</filter>
<filter id="filter5_dd" x="1002.75" y="3.6" width="56.5" height="56.5" filterUnits="userSpaceOnUse" color-interpolation-filters="sRGB">
<feFlood flood-opacity="0" result="BackgroundImageFix"/>
<feColorMatrix in="SourceAlpha" type="matrix" values="0 0 0 0 0 0 0 0 0 0 0 0 0 0 0 0 0 0 127 0" result="hardAlpha"/>
<feOffset dy="1.85"/>
<feGaussianBlur stdDeviation="3.125"/>
<feColorMatrix type="matrix" values="0 0 0 0 0 0 0 0 0 0 0 0 0 0 0 0 0 0 0.19 0"/>
<feBlend mode="normal" in2="BackgroundImageFix" result="effect1_dropShadow"/>
<feColorMatrix in="SourceAlpha" type="matrix" values="0 0 0 0 0 0 0 0 0 0 0 0 0 0 0 0 0 0 127 0" result="hardAlpha"/>
<feOffset dy="0.5"/>
<feGaussianBlur stdDeviation="0.875"/>
<feColorMatrix type="matrix" values="0 0 0 0 0 0 0 0 0 0 0 0 0 0 0 0 0 0 0.039 0"/>
<feBlend mode="normal" in2="effect1_dropShadow" result="effect2_dropShadow"/>
<feBlend mode="normal" in="SourceGraphic" in2="effect2_dropShadow" result="shape"/>
</filter>
<filter id="filter6_dd" x="1054.75" y="3.6" width="56.5" height="56.5" filterUnits="userSpaceOnUse" color-interpolation-filters="sRGB">
<feFlood flood-opacity="0" result="BackgroundImageFix"/>
<feColorMatrix in="SourceAlpha" type="matrix" values="0 0 0 0 0 0 0 0 0 0 0 0 0 0 0 0 0 0 127 0" result="hardAlpha"/>
<feOffset dy="1.85"/>
<feGaussianBlur stdDeviation="3.125"/>
<feColorMatrix type="matrix" values="0 0 0 0 0 0 0 0 0 0 0 0 0 0 0 0 0 0 0.19 0"/>
<feBlend mode="normal" in2="BackgroundImageFix" result="effect1_dropShadow"/>
<feColorMatrix in="SourceAlpha" type="matrix" values="0 0 0 0 0 0 0 0 0 0 0 0 0 0 0 0 0 0 127 0" result="hardAlpha"/>
<feOffset dy="0.5"/>
<feGaussianBlur stdDeviation="0.875"/>
<feColorMatrix type="matrix" values="0 0 0 0 0 0 0 0 0 0 0 0 0 0 0 0 0 0 0.039 0"/>
<feBlend mode="normal" in2="effect1_dropShadow" result="effect2_dropShadow"/>
<feBlend mode="normal" in="SourceGraphic" in2="effect2_dropShadow" result="shape"/>
</filter>
<filter id="filter7_dd" x="1106.75" y="3.6" width="56.5" height="56.5" filterUnits="userSpaceOnUse" color-interpolation-filters="sRGB">
<feFlood flood-opacity="0" result="BackgroundImageFix"/>
<feColorMatrix in="SourceAlpha" type="matrix" values="0 0 0 0 0 0 0 0 0 0 0 0 0 0 0 0 0 0 127 0" result="hardAlpha"/>
<feOffset dy="1.85"/>
<feGaussianBlur stdDeviation="3.125"/>
<feColorMatrix type="matrix" values="0 0 0 0 0 0 0 0 0 0 0 0 0 0 0 0 0 0 0.19 0"/>
<feBlend mode="normal" in2="BackgroundImageFix" result="effect1_dropShadow"/>
<feColorMatrix in="SourceAlpha" type="matrix" values="0 0 0 0 0 0 0 0 0 0 0 0 0 0 0 0 0 0 127 0" result="hardAlpha"/>
<feOffset dy="0.5"/>
<feGaussianBlur stdDeviation="0.875"/>
<feColorMatrix type="matrix" values="0 0 0 0 0 0 0 0 0 0 0 0 0 0 0 0 0 0 0.039 0"/>
<feBlend mode="normal" in2="effect1_dropShadow" result="effect2_dropShadow"/>
<feBlend mode="normal" in="SourceGraphic" in2="effect2_dropShadow" result="shape"/>
</filter>
<clipPath id="clip0">
<rect width="96" height="24" fill="white" transform="matrix(1 0 0 -1 1750 42)"/>
</clipPath>
<clipPath id="clip1">
<rect width="24" height="24" fill="white" transform="matrix(-1 -8.74228e-08 -8.74228e-08 1 1774 18)"/>
</clipPath>
</defs>
</svg>
