<svg width="1957" height="1226" viewBox="0 0 1957 1226" fill="none" xmlns="http://www.w3.org/2000/svg">
<g clip-path="url(#clip0)">
<path d="M2364.97 -121.812H-246.949V1347.39H2364.97V-121.812Z" fill="white"/>
<path d="M-276.879 -452.368C-225.321 -525.828 176.126 -306.127 250.947 -289.123C325.767 -272.118 434.597 -208.181 543.427 -241.51C652.257 -274.839 722.997 -279.6 793.056 -219.064C863.115 -158.527 945.418 -138.801 1059.01 -127.918C1172.6 -117.036 1260.35 -19.7685 1306.6 37.3676C1352.85 94.5033 1507.93 172.045 1603.84 187.689C1699.75 203.333 1931.01 238.022 1994.27 303.32C2057.52 368.618 2079.97 431.195 2237.09 493.772C2394.22 556.349 2419.38 697.148 2486.72 759.725C2554.06 822.303 2675.95 894.403 2727.51 820.942" stroke="url(#paint0_linear)" stroke-width="452.812"/>
<path d="M-276.879 -452.368C-225.321 -525.828 176.126 -306.127 250.947 -289.123C325.767 -272.118 434.597 -208.181 543.427 -241.51C652.257 -274.839 722.997 -279.6 793.056 -219.064C863.115 -158.527 945.418 -138.801 1059.01 -127.918C1172.6 -117.036 1260.35 -19.7685 1306.6 37.3676C1352.85 94.5033 1507.93 172.045 1603.84 187.689C1699.75 203.333 1931.01 238.022 1994.27 303.32C2057.52 368.618 2079.97 431.195 2237.09 493.772C2394.22 556.349 2419.38 697.148 2486.72 759.725C2554.06 822.303 2675.95 894.403 2727.51 820.942" stroke="url(#paint1_linear)" stroke-width="452.812"/>
<path d="M-159.887 -569.361C-108.328 -642.821 293.118 -423.12 367.939 -406.116C442.759 -389.111 551.589 -325.173 660.42 -358.503C769.25 -391.832 839.989 -396.593 910.048 -336.056C980.108 -275.52 1062.41 -255.795 1176 -244.912C1289.59 -234.029 1377.34 -136.762 1423.59 -79.626C1469.84 -22.4903 1624.93 55.0515 1720.83 70.6959C1816.74 86.3402 2048 121.028 2111.26 186.326C2174.52 251.624 2196.96 314.202 2354.09 376.779C2511.21 439.356 2536.38 580.155 2603.72 642.732C2671.05 705.31 2792.94 777.409 2844.5 703.949" stroke="url(#paint2_linear)" stroke-width="452.812"/>
<path d="M-67.3809 -691.793C-15.8226 -765.254 385.624 -545.553 460.445 -528.548C535.265 -511.544 644.095 -447.606 752.925 -480.935C861.755 -514.264 932.495 -519.026 1002.55 -458.489C1072.61 -397.952 1154.92 -378.227 1268.51 -367.344C1382.1 -356.461 1469.84 -259.194 1516.1 -202.059C1562.35 -144.923 1717.43 -67.3815 1813.34 -51.737C1909.24 -36.0927 2140.51 -1.40424 2203.77 63.8938C2267.02 129.192 2289.47 191.769 2446.59 254.346C2603.72 316.924 2628.88 457.722 2696.22 520.3C2763.56 582.877 2885.45 654.977 2937.01 581.517" stroke="url(#paint3_linear)" stroke-width="452.812"/>
<path d="M49.6113 -787.02C101.17 -860.48 502.616 -640.78 577.437 -623.775C652.258 -606.77 761.088 -542.833 869.918 -576.162C978.748 -609.491 1049.49 -614.252 1119.55 -553.716C1189.61 -493.179 1271.91 -473.453 1385.5 -462.57C1499.09 -451.687 1586.84 -354.421 1633.09 -297.285C1679.34 -240.149 1834.42 -162.608 1930.33 -146.964C2026.24 -131.319 2257.5 -96.6308 2320.76 -31.3328C2384.02 33.9652 2406.46 96.5425 2563.58 159.12C2720.71 221.697 2745.87 362.496 2813.21 425.073C2880.55 487.65 3002.44 559.75 3054 486.29" stroke="url(#paint4_linear)" stroke-width="452.812"/>
<path d="M-476.854 42.8093C-425.295 -30.6513 -23.8486 189.05 50.9721 206.054C125.793 223.059 234.623 286.997 343.453 253.667C452.283 220.338 523.022 215.577 593.082 276.114C663.141 336.65 745.444 356.376 859.035 367.259C972.626 378.142 1060.37 475.409 1106.62 532.544C1152.88 589.68 1307.96 667.222 1403.87 682.866C1499.77 698.51 1731.04 733.198 1794.29 798.496C1857.55 863.794 1880 926.372 2037.12 988.949C2194.24 1051.53 2219.41 1192.33 2286.75 1254.9C2354.09 1317.48 2475.98 1389.58 2527.54 1316.12" stroke="url(#paint5_linear)" stroke-width="452.812"/>
<path d="M-348.977 -276.879C-297.418 -350.34 104.028 -130.639 178.849 -113.635C253.67 -96.6299 362.5 -32.6924 471.33 -66.0215C580.16 -99.3507 650.899 -104.112 720.959 -43.5753C791.018 16.9618 873.321 36.6872 986.912 47.5702C1100.5 58.4532 1188.25 155.72 1234.5 212.856C1280.75 269.992 1435.84 347.533 1531.74 363.177C1627.65 378.822 1858.91 413.51 1922.17 478.808C1985.43 544.106 2007.87 606.683 2165 669.26C2322.12 731.838 2347.29 872.636 2414.63 935.214C2481.96 997.791 2603.85 1069.89 2655.41 996.431" stroke="url(#paint6_linear)" stroke-width="452.812"/>
<path d="M-476.172 -127.253C-424.614 -200.714 -23.1669 18.987 51.6537 35.9917C126.474 52.9964 235.304 116.934 344.134 83.6049C452.964 50.2757 523.704 45.5144 593.763 106.051C663.823 166.588 746.125 186.313 859.717 197.196C973.308 208.079 1061.05 305.346 1107.3 362.482C1153.56 419.618 1308.64 497.159 1404.55 512.803C1500.45 528.448 1731.72 563.136 1794.97 628.434C1858.23 693.732 1880.68 756.309 2037.8 818.886C2194.92 881.464 2220.09 1022.26 2287.43 1084.84C2354.77 1147.42 2476.66 1219.52 2528.22 1146.06" stroke="url(#paint7_linear)" stroke-width="452.812"/>
<path d="M-504.061 207.415C-452.502 133.954 -51.0556 353.655 23.765 370.66C98.5857 387.664 207.416 451.602 316.246 418.273C425.076 384.944 495.815 380.182 565.875 440.719C635.934 501.256 718.237 520.981 831.828 531.864C945.419 542.747 1033.16 640.014 1079.42 697.15C1125.67 754.286 1280.75 831.827 1376.66 847.471C1472.56 863.116 1703.83 897.804 1767.09 963.102C1830.34 1028.4 1852.79 1090.98 2009.91 1153.55C2167.04 1216.13 2192.2 1356.93 2259.54 1419.51C2326.88 1482.08 2448.77 1554.18 2500.33 1480.72" stroke="url(#paint8_linear)" stroke-width="424.688"/>
<path d="M-476.854 382.903C-425.295 309.443 -23.8486 529.143 50.972 546.148C125.793 563.153 234.623 627.09 343.453 593.761C452.283 560.432 523.022 555.671 593.082 616.207C663.141 676.744 745.444 696.469 859.035 707.352C972.626 718.235 1060.37 815.502 1106.62 872.638C1152.88 929.774 1307.96 1007.32 1403.87 1022.96C1499.77 1038.6 1731.04 1073.29 1794.29 1138.59C1857.55 1203.89 1880 1266.46 2037.12 1329.04C2194.24 1391.62 2219.41 1532.42 2286.75 1594.99C2354.09 1657.57 2475.98 1729.67 2527.54 1656.21" stroke="url(#paint9_linear)" stroke-width="424.688"/>
<path d="M-572.08 582.878C-520.522 509.417 -119.075 729.118 -44.2545 746.123C30.5661 763.127 139.396 827.065 248.226 793.736C357.056 760.407 427.796 755.645 497.855 816.182C567.914 876.719 650.217 896.444 763.808 907.327C877.4 918.21 965.144 1015.48 1011.4 1072.61C1057.65 1129.75 1212.73 1207.29 1308.64 1222.93C1404.55 1238.58 1635.81 1273.27 1699.07 1338.56C1762.32 1403.86 1784.77 1466.44 1941.89 1529.02C2099.02 1591.59 2124.18 1732.39 2191.52 1794.97C2258.86 1857.55 2380.75 1929.65 2432.31 1856.19" stroke="url(#paint10_linear)" stroke-width="655.312"/>
<path d="M-572.08 796.457C-520.522 722.996 -119.075 942.697 -44.2545 959.702C30.5661 976.706 139.396 1040.64 248.226 1007.31C357.056 973.986 427.796 969.224 497.855 1029.76C567.914 1090.3 650.217 1110.02 763.808 1120.91C877.4 1131.79 965.144 1229.06 1011.4 1286.19C1057.65 1343.32 1212.73 1420.87 1308.64 1436.51C1404.55 1452.15 1635.81 1486.84 1699.07 1552.14C1762.32 1617.44 1784.77 1680.02 1941.89 1742.59C2099.02 1805.17 2124.18 1945.97 2191.52 2008.55C2258.86 2071.13 2380.75 2143.23 2432.31 2069.77" stroke="url(#paint11_linear)" stroke-width="655.312"/>
<path d="M-719 1042.69C-667.442 969.225 -265.995 1188.93 -191.174 1205.93C-116.354 1222.93 -7.52379 1286.87 101.306 1253.54C210.136 1220.21 280.876 1215.45 350.935 1275.99C420.994 1336.52 503.297 1356.25 616.888 1367.13C730.48 1378.01 818.224 1475.28 864.477 1532.42C910.729 1589.55 1065.81 1667.09 1161.72 1682.74C1257.63 1698.38 1488.89 1733.07 1552.15 1798.37C1615.4 1863.67 1637.85 1926.25 1794.97 1988.82C1952.1 2051.4 1977.26 2192.2 2044.6 2254.78C2111.94 2317.35 2233.83 2389.45 2285.39 2315.99" stroke="url(#paint12_linear)" stroke-width="655.312"/>
</g>
<defs>
<linearGradient id="paint0_linear" x1="264.55" y1="108.771" x2="2665.61" y2="955.604" gradientUnits="userSpaceOnUse">
<stop stop-color="#FF5722"/>
<stop offset="1" stop-color="#FF7043"/>
</linearGradient>
<linearGradient id="paint1_linear" x1="264.55" y1="108.771" x2="2665.61" y2="955.604" gradientUnits="userSpaceOnUse">
<stop stop-color="#FF480F"/>
<stop offset="1" stop-color="#FF7043"/>
</linearGradient>
<linearGradient id="paint2_linear" x1="381.543" y1="-8.22226" x2="2782.6" y2="838.611" gradientUnits="userSpaceOnUse">
<stop stop-color="#FF480F"/>
<stop offset="1" stop-color="#FF7043"/>
</linearGradient>
<linearGradient id="paint3_linear" x1="474.048" y1="-130.655" x2="2875.11" y2="716.179" gradientUnits="userSpaceOnUse">
<stop stop-color="#FF480F"/>
<stop offset="1" stop-color="#FF7043"/>
</linearGradient>
<linearGradient id="paint4_linear" x1="1269.87" y1="-321.108" x2="2971.02" y2="624.353" gradientUnits="userSpaceOnUse">
<stop stop-color="#FF480F"/>
<stop offset="1" stop-color="#FF7043"/>
</linearGradient>
<linearGradient id="paint5_linear" x1="161.843" y1="306.041" x2="1824.22" y2="1155.59" gradientUnits="userSpaceOnUse">
<stop stop-color="#FF5722"/>
<stop offset="1" stop-color="#D84315"/>
</linearGradient>
<linearGradient id="paint6_linear" x1="192.453" y1="284.259" x2="2593.51" y2="1131.09" gradientUnits="userSpaceOnUse">
<stop stop-color="#FF6433"/>
<stop offset="1" stop-color="#D84315"/>
</linearGradient>
<linearGradient id="paint7_linear" x1="21.7254" y1="491.717" x2="1987.47" y2="999.137" gradientUnits="userSpaceOnUse">
<stop stop-color="#FF5722"/>
<stop offset="1" stop-color="#D84315"/>
</linearGradient>
<linearGradient id="paint8_linear" x1="-361.901" y1="48.2345" x2="1672.54" y2="1025.66" gradientUnits="userSpaceOnUse">
<stop stop-color="#FF5722"/>
<stop offset="1" stop-color="#D84315"/>
</linearGradient>
<linearGradient id="paint9_linear" x1="-687.031" y1="-85.7625" x2="1808.58" y2="1283.46" gradientUnits="userSpaceOnUse">
<stop stop-color="#FF5722"/>
<stop offset="1" stop-color="#D84315"/>
</linearGradient>
<linearGradient id="paint10_linear" x1="-1167.92" y1="793.039" x2="1675.94" y2="1312.02" gradientUnits="userSpaceOnUse">
<stop stop-color="#FF5722"/>
<stop offset="1" stop-color="#D84315"/>
</linearGradient>
<linearGradient id="paint11_linear" x1="-392.511" y1="831.13" x2="1203.89" y2="1407.25" gradientUnits="userSpaceOnUse">
<stop stop-color="#FF5722"/>
<stop offset="1" stop-color="#D84315"/>
</linearGradient>
<linearGradient id="paint12_linear" x1="-539.43" y1="1077.36" x2="703.953" y2="1387.52" gradientUnits="userSpaceOnUse">
<stop stop-color="#FF5722"/>
<stop offset="1" stop-color="#D84315"/>
</linearGradient>
<clipPath id="clip0">
<rect width="1957" height="1226" fill="white"/>
</clipPath>
</defs>
</svg>
