<svg width="786" height="400" viewBox="0 0 786 400" fill="none" xmlns="http://www.w3.org/2000/svg">
<g clip-path="url(#clip0)">
<path d="M-486.503 893.14C-504.063 829.54 -191.739 704.56 -147.11 670.08C-102.48 635.59 -15.3281 603.75 16.6539 526.44C48.6349 449.13 79.0109 406.77 146.106 395.34C213.201 383.91 262.873 346.45 322.158 287.106C381.444 227.764 477.642 223.474 531.677 223.954C585.712 224.434 702.207 172.726 755.92 125.641C809.64 78.5561 937.45 -36.4 1004.07 -41.749C1070.68 -47.098 1116.67 -30.5699 1225.63 -90.4329C1334.6 -150.296 1426.23 -98.7369 1493.21 -107.673C1560.19 -116.609 1658.08 -152.034 1640.52 -215.627" stroke="url(#paint0_linear)" stroke-width="151"/>
<path d="M-413.503 969.14C-431.063 905.54 -118.739 780.56 -74.1101 746.08C-29.4801 711.59 57.6719 679.75 89.6539 602.44C121.635 525.13 152.011 482.77 219.106 471.34C286.201 459.91 335.873 422.45 395.158 363.11C454.444 303.764 550.642 299.474 604.677 299.954C658.712 300.434 775.21 248.726 828.92 201.641C882.64 154.556 1010.45 39.6 1077.07 34.251C1143.68 28.902 1189.67 45.4301 1298.63 -14.4329C1407.6 -74.2959 1499.23 -22.7369 1566.21 -31.6729C1633.19 -40.6089 1731.08 -76.034 1713.52 -139.627" stroke="url(#paint1_linear)" stroke-width="151"/>
<path d="M-331.503 1020.14C-349.063 956.54 -36.7389 831.56 7.89008 797.08C52.5201 762.59 139.672 730.75 171.654 653.44C203.635 576.13 234.011 533.77 301.106 522.34C368.201 510.91 417.873 473.45 477.158 414.11C536.444 354.76 632.642 350.47 686.677 350.95C740.71 351.43 857.21 299.726 910.92 252.641C964.64 205.556 1092.45 90.6 1159.07 85.251C1225.68 79.902 1271.67 96.4301 1380.63 36.5671C1489.6 -23.2959 1581.23 28.2631 1648.21 19.3271C1715.19 10.3911 1813.08 -25.034 1795.52 -88.627" stroke="url(#paint2_linear)" stroke-width="151"/>
</g>
<defs>
<linearGradient id="paint0_linear" x1="-850.611" y1="793.22" x2="1092.91" y2="17.8843" gradientUnits="userSpaceOnUse">
<stop stop-color="#FF5722"/>
<stop offset="1" stop-color="#D84315"/>
</linearGradient>
<linearGradient id="paint1_linear" x1="56.9999" y1="851" x2="1165.91" y2="93.8842" gradientUnits="userSpaceOnUse">
<stop stop-color="#FF5722"/>
<stop offset="1" stop-color="#D84315"/>
</linearGradient>
<linearGradient id="paint2_linear" x1="-178.5" y1="1061" x2="1247.91" y2="144.884" gradientUnits="userSpaceOnUse">
<stop stop-color="#FF5722"/>
<stop offset="1" stop-color="#D84315"/>
</linearGradient>
<clipPath id="clip0">
<rect width="786" height="400" fill="white"/>
</clipPath>
</defs>
</svg>
