<svg xmlns="http://www.w3.org/2000/svg" xmlns:xlink="http://www.w3.org/1999/xlink" viewBox="0 0 5635.9 1633.5"><defs><style>.cls-1{fill:none;}.cls-10,.cls-11,.cls-12,.cls-13,.cls-14,.cls-15,.cls-16,.cls-17,.cls-18,.cls-2,.cls-3,.cls-4,.cls-5,.cls-6,.cls-7,.cls-8,.cls-9{fill-rule:evenodd;}.cls-2{fill:url(#linear-gradient);}.cls-3{fill:url(#linear-gradient-2);}.cls-4{fill:url(#linear-gradient-3);}.cls-5{fill:url(#linear-gradient-4);}.cls-6{fill:url(#linear-gradient-5);}.cls-7{fill:url(#linear-gradient-6);}.cls-8{fill:url(#linear-gradient-7);}.cls-9{fill:url(#linear-gradient-8);}.cls-10{fill:url(#linear-gradient-9);}.cls-11{fill:url(#linear-gradient-10);}.cls-12{fill:url(#linear-gradient-11);}.cls-13{fill:url(#linear-gradient-12);}.cls-14{fill:url(#linear-gradient-13);}.cls-15{fill:url(#linear-gradient-14);}.cls-16{fill:url(#linear-gradient-15);}.cls-17{fill:url(#linear-gradient-16);}.cls-18{fill:url(#linear-gradient-17);}</style><linearGradient id="linear-gradient" x1="2832.45" y1="1120.38" x2="2833.3" y2="1119.79" gradientTransform="matrix(1057.35, 0, 0, -736, -2992209.73, 825476.69)" gradientUnits="userSpaceOnUse"><stop offset="0" stop-color="#e64a19"/><stop offset="1" stop-color="#c62828"/></linearGradient><linearGradient id="linear-gradient-2" x1="2832.54" y1="1120.66" x2="2832.66" y2="1119.79" gradientTransform="matrix(718, 0, 0, -681, -2030554.44, 763882.63)" xlink:href="#linear-gradient"/><linearGradient id="linear-gradient-3" x1="2832.58" y1="1120.38" x2="2833.43" y2="1119.79" gradientTransform="matrix(1057.35, 0, 0, -736, -2990782.73, 825476.69)" xlink:href="#linear-gradient"/><linearGradient id="linear-gradient-4" x1="2833.42" y1="1120.86" x2="2834.27" y2="1120.27" gradientTransform="matrix(1057.35, 0, 0, -736, -2991152.42, 825830.19)" xlink:href="#linear-gradient"/><linearGradient id="linear-gradient-5" x1="2829.09" y1="1120.86" x2="2829.94" y2="1120.27" gradientTransform="matrix(1057.35, 0, 0, -736, -2991152.42, 825830.19)" xlink:href="#linear-gradient"/><linearGradient id="linear-gradient-6" x1="2832.68" y1="1120.4" x2="2833.53" y2="1119.81" gradientTransform="matrix(1454.42, 0, 0, -961, -4116598.22, 1077452.5)" xlink:href="#linear-gradient"/><linearGradient id="linear-gradient-7" x1="2832.63" y1="1120.39" x2="2833.48" y2="1119.8" gradientTransform="matrix(1234.06, 0, 0, -859, -3491908.63, 963223.5)" xlink:href="#linear-gradient"/><linearGradient id="linear-gradient-8" x1="2832.58" y1="1120.38" x2="2833.43" y2="1119.79" gradientTransform="matrix(1057.35, 0, 0, -736, -2991639.42, 825765.19)" xlink:href="#linear-gradient"/><linearGradient id="linear-gradient-9" x1="2832.58" y1="1120.38" x2="2833.43" y2="1119.79" gradientTransform="matrix(1057.35, 0, 0, -736, -2991152.42, 825830.19)" xlink:href="#linear-gradient"/><linearGradient id="linear-gradient-10" x1="2830.77" y1="1120.38" x2="2831.62" y2="1119.79" xlink:href="#linear-gradient"/><linearGradient id="linear-gradient-11" x1="2830.33" y1="1120.37" x2="2831.18" y2="1119.78" gradientTransform="matrix(879.05, 0, 0, -617, -2487303.79, 692209.5)" xlink:href="#linear-gradient"/><linearGradient id="linear-gradient-12" x1="2829.95" y1="1120.66" x2="2830.07" y2="1119.79" gradientTransform="matrix(718, 0, 0, -681, -2030554.44, 763882.63)" xlink:href="#linear-gradient"/><linearGradient id="linear-gradient-13" x1="2830.77" y1="1120.38" x2="2831.62" y2="1119.79" gradientTransform="matrix(1057.35, 0, 0, -736, -2990782.73, 825476.69)" xlink:href="#linear-gradient"/><linearGradient id="linear-gradient-14" x1="2831.36" y1="1120.4" x2="2832.21" y2="1119.81" gradientTransform="matrix(1454.42, 0, 0, -961, -4116598.22, 1077452.5)" xlink:href="#linear-gradient"/><linearGradient id="linear-gradient-15" x1="2831.08" y1="1120.39" x2="2831.93" y2="1119.8" gradientTransform="matrix(1234.06, 0, 0, -859, -3491908.63, 963223.5)" xlink:href="#linear-gradient"/><linearGradient id="linear-gradient-16" x1="2830.77" y1="1120.38" x2="2831.62" y2="1119.79" gradientTransform="matrix(1057.35, 0, 0, -736, -2991639.42, 825765.19)" xlink:href="#linear-gradient"/><linearGradient id="linear-gradient-17" x1="2830.77" y1="1120.38" x2="2831.62" y2="1119.79" gradientTransform="matrix(1057.35, 0, 0, -736, -2991152.42, 825830.19)" xlink:href="#linear-gradient"/></defs><title>Asset 11</title><g id="Layer_2" data-name="Layer 2"><g id="Layer_1-2" data-name="Layer 1"><rect class="cls-1" x="915.3" width="3838.1" height="1280"/><path class="cls-2" d="M3023.6,544l528.7,736H2494.9Z"/><rect class="cls-1" x="915.3" width="3838.1" height="1280"/><path class="cls-3" d="M3290.3,599l359,681h-718Z"/><rect class="cls-1" x="915.3" width="3838.1" height="1280"/><path class="cls-4" d="M4588.6,544l528.7,736H4059.9Z"/><rect class="cls-1" x="915.3" width="3838.1" height="1280"/><path class="cls-5" d="M5107.2,544l528.7,736H4578.5Z"/><rect class="cls-1" x="915.3" width="3838.1" height="1280"/><path class="cls-6" d="M528.6,544l528.7,736H0Z"/><rect class="cls-1" x="915.3" width="3838.1" height="1280"/><path class="cls-7" d="M3775.5,319l727.2,961H3048.3Z"/><rect class="cls-1" x="915.3" width="3838.1" height="1280"/><path class="cls-8" d="M4130.6,421l617,859h-1234Z"/><rect class="cls-1" x="915.3" width="3838.1" height="1280"/><path class="cls-9" d="M3732,832.5l528.7,736H3203.3Z"/><rect class="cls-1" x="915.3" width="3838.1" height="1280"/><path class="cls-10" d="M4219,897.5l528.7,736H3690.3Z"/><rect class="cls-1" x="915.3" width="3838.1" height="1280"/><path class="cls-11" d="M1241.6,544l528.7,736H712.9Z"/><rect class="cls-1" x="915.3" width="3838.1" height="1280"/><path class="cls-12" d="M975.8,663l439.5,617h-879Z"/><rect class="cls-1" x="915.3" width="3838.1" height="1280"/><path class="cls-13" d="M1430.3,599l359,681h-718Z"/><rect class="cls-1" x="915.3" width="3838.1" height="1280"/><path class="cls-14" d="M2668.6,544l528.7,736H2139.9Z"/><rect class="cls-1" x="915.3" width="3838.1" height="1280"/><path class="cls-15" d="M1855.5,319l727.2,961H1128.3Z"/><rect class="cls-1" x="915.3" width="3838.1" height="1280"/><path class="cls-16" d="M2210.6,421l617,859h-1234Z"/><rect class="cls-1" x="915.3" width="3838.1" height="1280"/><path class="cls-17" d="M1812,832.5l528.7,736H1283.3Z"/><path class="cls-18" d="M2299,897.5l528.7,736H1770.3Z"/></g></g></svg>