<svg width="24" height="24" viewBox="0 0 24 24" xmlns="http://www.w3.org/2000/svg">
<path fill-rule="evenodd" clip-rule="evenodd" d="M21.8648 5.16577C23.211 7.10534 23.9999 9.4605 23.9999 12.0002C23.9999 14.5399 23.211 16.8953 21.8648 18.8347L18.7564 15.7263C19.3669 14.6218 19.7144 13.3514 19.7144 12.0002C19.7144 10.649 19.3669 9.3789 18.7564 8.27437L21.8648 5.16577Z" />
<path fill-rule="evenodd" clip-rule="evenodd" d="M18.8345 2.13514L15.7259 5.24354C14.6213 4.63309 13.3512 4.28563 12 4.28563C7.73955 4.28563 4.28563 7.73955 4.28563 12C4.28563 16.2605 7.73955 19.7144 12 19.7144C13.3512 19.7144 14.6213 19.367 15.7259 18.7565L18.8345 21.8649C16.8949 23.211 14.5397 24 12 24C5.37264 24 0 18.6274 0 12C0 5.37263 5.37264 0 12 0C14.5397 0 16.8949 0.788977 18.8345 2.13514Z" />
</svg>
