<svg width="658" height="638" viewBox="0 0 658 638" fill="none" xmlns="http://www.w3.org/2000/svg">
<g clip-path="url(#clip0)" filter="url(#filter0_d)">
<g filter="url(#filter1_i)">
<path d="M29 37.6539C29 32.8745 32.8745 29 37.6538 29H620.346C625.125 29 629 32.8745 629 37.6538V75.1538H29V37.6539Z" fill="#4CAF50"/>
<path d="M531.885 58.8086H541.501C542.03 58.8086 542.462 59.2413 542.462 59.7701C542.462 60.299 542.03 60.7317 541.501 60.7317H531.885C531.357 60.7317 530.924 60.299 530.924 59.7701C530.924 59.2413 531.357 58.8086 531.885 58.8086Z" fill="white"/>
<path d="M577.075 44.3857H565.536C564.479 44.3857 563.613 45.2511 563.613 46.3088V57.8473C563.613 58.905 564.479 59.7704 565.536 59.7704H577.075C578.133 59.7704 578.998 58.905 578.998 57.8473V46.3088C578.998 45.2511 578.133 44.3857 577.075 44.3857ZM576.113 57.8473H566.498C565.969 57.8473 565.536 57.4146 565.536 56.8857V47.2704C565.536 46.7415 565.969 46.3088 566.498 46.3088H576.113C576.642 46.3088 577.075 46.7415 577.075 47.2704V56.8857C577.075 57.4146 576.642 57.8473 576.113 57.8473Z" fill="white"/>
<path d="M611.982 46.0287C611.893 45.9395 611.787 45.8688 611.671 45.8206C611.555 45.7723 611.43 45.7475 611.304 45.7475C611.178 45.7475 611.054 45.7723 610.937 45.8206C610.821 45.8688 610.715 45.9395 610.626 46.0287L605.924 50.721L601.222 46.0191C601.133 45.93 601.028 45.8594 600.911 45.8113C600.795 45.7631 600.671 45.7383 600.545 45.7383C600.419 45.7383 600.294 45.7631 600.178 45.8113C600.061 45.8594 599.956 45.93 599.867 46.0191C599.778 46.1081 599.707 46.2138 599.659 46.3301C599.611 46.4464 599.586 46.5711 599.586 46.697C599.586 46.8228 599.611 46.9475 599.659 47.0638C599.707 47.1801 599.778 47.2858 599.867 47.3748L604.569 52.0768L599.867 56.7787C599.778 56.8677 599.707 56.9734 599.659 57.0897C599.611 57.206 599.586 57.3307 599.586 57.4566C599.586 57.5825 599.611 57.7071 599.659 57.8234C599.707 57.9398 599.778 58.0454 599.867 58.1345C599.956 58.2235 600.061 58.2941 600.178 58.3423C600.294 58.3904 600.419 58.4152 600.545 58.4152C600.671 58.4152 600.795 58.3904 600.911 58.3423C601.028 58.2941 601.133 58.2235 601.222 58.1345L605.924 53.4325L610.626 58.1345C610.715 58.2235 610.821 58.2941 610.937 58.3423C611.054 58.3904 611.178 58.4152 611.304 58.4152C611.43 58.4152 611.555 58.3904 611.671 58.3423C611.787 58.2941 611.893 58.2235 611.982 58.1345C612.071 58.0454 612.142 57.9398 612.19 57.8234C612.238 57.7071 612.263 57.5825 612.263 57.4566C612.263 57.3307 612.238 57.206 612.19 57.0897C612.142 56.9734 612.071 56.8677 611.982 56.7787L607.28 52.0768L611.982 47.3748C612.347 47.0095 612.347 46.3941 611.982 46.0287Z" fill="white"/>
<path d="M298.022 54.3075C297.87 55.609 297.388 56.6147 296.577 57.3246C295.771 58.0288 294.698 58.3809 293.357 58.3809C291.904 58.3809 290.737 57.8598 289.859 56.8175C288.985 55.7752 288.549 54.3808 288.549 52.6342V51.4511C288.549 50.3074 288.751 49.3017 289.157 48.4341C289.568 47.5664 290.149 46.9016 290.898 46.4396C291.647 45.972 292.515 45.7382 293.501 45.7382C294.808 45.7382 295.856 46.1044 296.645 46.8368C297.433 47.5636 297.893 48.5721 298.022 49.8623H296.391C296.25 48.882 295.943 48.1721 295.47 47.7326C295.002 47.2932 294.346 47.0735 293.501 47.0735C292.464 47.0735 291.65 47.4566 291.059 48.2228C290.473 48.989 290.18 50.0792 290.18 51.4934V52.6849C290.18 54.0202 290.459 55.0822 291.016 55.871C291.574 56.6597 292.354 57.0541 293.357 57.0541C294.259 57.0541 294.949 56.8513 295.428 56.4457C295.912 56.0344 296.233 55.3217 296.391 54.3075H298.022ZM305.991 58.2119C305.901 58.0316 305.828 57.7105 305.771 57.2485C305.045 58.0035 304.177 58.3809 303.169 58.3809C302.267 58.3809 301.526 58.1274 300.946 57.6203C300.371 57.1076 300.084 56.4597 300.084 55.6766C300.084 54.7245 300.445 53.9864 301.166 53.4624C301.892 52.9328 302.912 52.668 304.225 52.668H305.746V51.9497C305.746 51.4032 305.583 50.9694 305.256 50.6483C304.929 50.3215 304.447 50.1581 303.811 50.1581C303.253 50.1581 302.785 50.2989 302.408 50.5806C302.031 50.8623 301.842 51.2032 301.842 51.6032H300.27C300.27 51.1469 300.43 50.7074 300.752 50.2849C301.078 49.8567 301.518 49.5186 302.07 49.2707C302.628 49.0228 303.239 48.8989 303.904 48.8989C304.957 48.8989 305.783 49.1637 306.38 49.6933C306.977 50.2172 307.287 50.9412 307.31 51.8652V56.0738C307.31 56.9133 307.417 57.5809 307.631 58.0767V58.2119H305.991ZM303.397 57.0203C303.887 57.0203 304.352 56.8936 304.791 56.64C305.231 56.3865 305.549 56.0569 305.746 55.6513V53.7751H304.521C302.605 53.7751 301.647 54.3357 301.647 55.4569C301.647 55.947 301.811 56.3302 302.138 56.6062C302.464 56.8823 302.884 57.0203 303.397 57.0203ZM311.805 58.2119H310.242V45.2311H311.805V58.2119ZM318.329 57.1048C318.887 57.1048 319.374 56.9358 319.791 56.5978C320.208 56.2597 320.439 55.8372 320.484 55.3301H321.963C321.935 55.8541 321.755 56.3527 321.422 56.8259C321.09 57.2992 320.645 57.6767 320.087 57.9584C319.535 58.2401 318.949 58.3809 318.329 58.3809C317.084 58.3809 316.092 57.9668 315.354 57.1386C314.622 56.3048 314.256 55.1667 314.256 53.7244V53.4624C314.256 52.5723 314.419 51.7807 314.746 51.0877C315.073 50.3947 315.54 49.8567 316.149 49.4736C316.763 49.0904 317.487 48.8989 318.321 48.8989C319.346 48.8989 320.197 49.2059 320.873 49.82C321.555 50.4342 321.918 51.2314 321.963 52.2117H320.484C320.439 51.6201 320.214 51.1356 319.808 50.7581C319.408 50.375 318.912 50.1834 318.321 50.1834C317.526 50.1834 316.909 50.4708 316.47 51.0454C316.036 51.6145 315.819 52.4399 315.819 53.5216V53.8174C315.819 54.8709 316.036 55.6822 316.47 56.2513C316.904 56.8203 317.523 57.1048 318.329 57.1048ZM329.712 57.3077C329.104 58.0232 328.211 58.3809 327.033 58.3809C326.059 58.3809 325.315 58.0992 324.802 57.5358C324.295 56.9668 324.039 56.1273 324.033 55.0174V49.0679H325.597V54.9752C325.597 56.3611 326.16 57.0541 327.287 57.0541C328.481 57.0541 329.276 56.609 329.67 55.7189V49.0679H331.233V58.2119H329.746L329.712 57.3077ZM335.661 58.2119H334.098V45.2311H335.661V58.2119ZM344.163 58.2119C344.073 58.0316 343.999 57.7105 343.943 57.2485C343.216 58.0035 342.349 58.3809 341.34 58.3809C340.439 58.3809 339.698 58.1274 339.118 57.6203C338.543 57.1076 338.256 56.4597 338.256 55.6766C338.256 54.7245 338.616 53.9864 339.337 53.4624C340.064 52.9328 341.084 52.668 342.397 52.668H343.918V51.9497C343.918 51.4032 343.754 50.9694 343.428 50.6483C343.101 50.3215 342.619 50.1581 341.982 50.1581C341.425 50.1581 340.957 50.2989 340.58 50.5806C340.202 50.8623 340.013 51.2032 340.013 51.6032H338.441C338.441 51.1469 338.602 50.7074 338.923 50.2849C339.25 49.8567 339.689 49.5186 340.242 49.2707C340.799 49.0228 341.411 48.8989 342.075 48.8989C343.129 48.8989 343.954 49.1637 344.552 49.6933C345.149 50.2172 345.459 50.9412 345.481 51.8652V56.0738C345.481 56.9133 345.588 57.5809 345.802 58.0767V58.2119H344.163ZM341.568 57.0203C342.058 57.0203 342.523 56.8936 342.963 56.64C343.402 56.3865 343.721 56.0569 343.918 55.6513V53.7751H342.692C340.777 53.7751 339.819 54.3357 339.819 55.4569C339.819 55.947 339.982 56.3302 340.309 56.6062C340.636 56.8823 341.056 57.0203 341.568 57.0203ZM350.399 46.8537V49.0679H352.106V50.2764H350.399V55.947C350.399 56.3133 350.475 56.5893 350.627 56.7752C350.78 56.9555 351.039 57.0457 351.405 57.0457C351.585 57.0457 351.833 57.0119 352.149 56.9443V58.2119C351.737 58.3246 351.337 58.3809 350.949 58.3809C350.25 58.3809 349.723 58.1697 349.368 57.7471C349.013 57.3246 348.836 56.7245 348.836 55.947V50.2764H347.171V49.0679H348.836V46.8537H350.399ZM353.703 53.5554C353.703 52.6596 353.878 51.8539 354.227 51.1384C354.582 50.4229 355.072 49.8708 355.698 49.482C356.329 49.0933 357.047 48.8989 357.853 48.8989C359.098 48.8989 360.104 49.3299 360.87 50.1919C361.642 51.0539 362.028 52.2004 362.028 53.6315V53.7413C362.028 54.6315 361.856 55.4315 361.512 56.1414C361.174 56.8457 360.687 57.395 360.05 57.7894C359.419 58.1837 358.692 58.3809 357.87 58.3809C356.63 58.3809 355.625 57.9499 354.853 57.0879C354.086 56.2259 353.703 55.085 353.703 53.6653V53.5554ZM355.275 53.7413C355.275 54.7554 355.509 55.5696 355.977 56.1837C356.45 56.7978 357.081 57.1048 357.87 57.1048C358.664 57.1048 359.295 56.795 359.763 56.1752C360.23 55.5498 360.464 54.6766 360.464 53.5554C360.464 52.5525 360.225 51.7412 359.746 51.1215C359.273 50.4961 358.642 50.1834 357.853 50.1834C357.081 50.1834 356.458 50.4905 355.985 51.1046C355.512 51.7187 355.275 52.5976 355.275 53.7413ZM368.754 50.4708C368.518 50.4313 368.261 50.4116 367.985 50.4116C366.96 50.4116 366.264 50.8483 365.898 51.7215V58.2119H364.334V49.0679H365.856L365.881 50.1243C366.394 49.3074 367.12 48.8989 368.061 48.8989C368.365 48.8989 368.596 48.9383 368.754 49.0172V50.4708Z" fill="white"/>
<g clip-path="url(#clip1)">
<path opacity="0.2" d="M43.0622 41.9805H61.091C61.6903 41.9805 62.1728 42.4629 62.1728 43.0622V58.6288L60.4407 60.4612C60.029 60.8967 58.918 60.529 58.5717 61.0181L57.754 62.1728H43.0622C42.4629 62.1728 41.9805 61.6903 41.9805 61.091V43.0622C41.9805 42.4629 42.4629 41.9805 43.0622 41.9805Z" fill="black"/>
<path d="M62.1728 51.7168V58.4721L60.6506 60.1014C60.2415 60.5393 59.8412 60.3455 59.4115 60.7632L58.3314 61.813H51.3555V51.7168H62.1728Z" fill="#666666"/>
<path d="M41.9805 50.9951V60.7307C41.9805 61.33 42.4629 61.8124 43.0622 61.8124H52.0766V50.9951H41.9805Z" fill="#8C8C8C"/>
<path d="M43.0622 41.6201C42.4629 41.6201 41.9805 42.1026 41.9805 42.7018V51.7163H52.7978V41.6201H43.0622Z" fill="#A6A6A6"/>
<path d="M61.0906 41.6201C61.6899 41.6201 62.1723 42.1026 62.1723 42.7018V51.7163H52.0762V41.6201H61.0906Z" fill="#595959"/>
<path opacity="0.2" d="M43.0622 41.6201C42.4629 41.6201 41.9805 42.1026 41.9805 42.7018V43.0624C41.9805 42.4631 42.4629 41.9807 43.0622 41.9807H61.091C61.6903 41.9807 62.1728 42.4631 62.1728 43.0624V42.7018C62.1728 42.1026 61.6903 41.6201 61.091 41.6201H43.0622Z" fill="white"/>
<path opacity="0.2" d="M57.1247 63.2553C60.311 63.2553 62.8939 60.6723 62.8939 57.486C62.8939 54.2998 60.311 51.7168 57.1247 51.7168C53.9384 51.7168 51.3555 54.2998 51.3555 57.486C51.3555 60.6723 53.9384 63.2553 57.1247 63.2553Z" fill="black"/>
<path d="M57.1247 62.8939C60.311 62.8939 62.8939 60.311 62.8939 57.1247C62.8939 53.9384 60.311 51.3555 57.1247 51.3555C53.9384 51.3555 51.3555 53.9384 51.3555 57.1247C51.3555 60.311 53.9384 62.8939 57.1247 62.8939Z" fill="#4CAF50"/>
<path opacity="0.2" d="M47.0279 45.2256V47.389H44.8645V48.1102H47.0279V50.2737H47.7491V48.1102H49.9126V47.389H47.7491V45.2256H47.0279ZM54.9606 47.389V48.1102H59.2876V47.389H54.9606ZM45.0363 54.9612L44.5039 55.4943L46.4955 57.4852L44.5039 59.4761L45.0363 60.0092L47.0272 58.0176L49.0189 60.0092L49.552 59.4761L47.5597 57.4852L49.552 55.4943L49.0189 54.9612L47.0272 56.9528L45.0363 54.9612Z" fill="black"/>
<path d="M47.0279 44.8652V47.0287H44.8645V47.7498H47.0279V49.9133H47.7491V47.7498H49.9126V47.0287H47.7491V44.8652H47.0279ZM54.9606 47.0287V47.7498H59.2876V47.0287H54.9606ZM45.0363 54.6008L44.5039 55.1339L46.4955 57.1249L44.5039 59.1158L45.0363 59.6489L47.0272 57.6573L49.0189 59.6489L49.552 59.1158L47.5597 57.1249L49.552 55.1339L49.0189 54.6008L47.0272 56.5924L45.0363 54.6008Z" fill="white"/>
<path d="M54.9609 55.6826V56.4038H59.2879V55.6826H54.9609ZM54.9609 57.8461V58.5672H59.2879V57.8461H54.9609Z" fill="white"/>
</g>
</g>
<path d="M29 249.673H629V600.154C629 604.933 625.126 608.807 620.346 608.807H37.6539C32.8745 608.807 29 604.933 29 600.154V249.673Z" fill="#26252C"/>
<path d="M605.924 249.673H629.001V600.154C629.001 604.933 625.126 608.807 620.347 608.807H605.924V249.673Z" fill="#2AA04F"/>
<path d="M614.827 428.567L620.346 433.416V437.173L613.135 429.909V427.11L620.346 419.865V423.622L614.827 428.567Z" fill="white"/>
<path d="M114.148 293.777C113.92 295.729 113.197 297.238 111.98 298.303C110.772 299.359 109.162 299.887 107.151 299.887C104.97 299.887 103.221 299.106 101.902 297.542C100.593 295.979 99.9376 293.887 99.9376 291.267V289.493C99.9376 287.777 100.242 286.268 100.85 284.967C101.467 283.666 102.338 282.668 103.462 281.975C104.586 281.274 105.887 280.923 107.366 280.923C109.327 280.923 110.899 281.473 112.082 282.571C113.265 283.661 113.954 285.174 114.148 287.109H111.701C111.49 285.639 111.03 284.574 110.32 283.915C109.618 283.256 108.634 282.926 107.366 282.926C105.811 282.926 104.59 283.501 103.703 284.65C102.824 285.799 102.384 287.435 102.384 289.556V291.343C102.384 293.346 102.802 294.939 103.639 296.122C104.476 297.306 105.646 297.897 107.151 297.897C108.503 297.897 109.538 297.593 110.256 296.984C110.983 296.367 111.465 295.298 111.701 293.777H114.148Z" fill="white"/>
<path d="M260.623 292.142C260.623 290.232 260.877 288.398 261.384 286.64C261.9 284.883 262.664 283.285 263.678 281.849C264.693 280.412 265.745 279.398 266.835 278.806L267.317 280.353C266.083 281.299 265.069 282.744 264.274 284.688C263.488 286.632 263.057 288.808 262.981 291.217L262.969 292.294C262.969 295.556 263.564 298.387 264.756 300.787C265.474 302.224 266.328 303.348 267.317 304.159L266.835 305.592C265.711 304.966 264.638 303.918 263.615 302.448C261.621 299.575 260.623 296.139 260.623 292.142Z" fill="white"/>
<path d="M418.934 292.269C418.934 294.153 418.684 295.962 418.186 297.694C417.696 299.418 416.939 301.011 415.917 302.473C414.903 303.935 413.838 304.975 412.722 305.592L412.228 304.159C413.529 303.162 414.573 301.616 415.359 299.52C416.153 297.415 416.559 295.083 416.576 292.522V292.117C416.576 290.342 416.39 288.694 416.018 287.173C415.646 285.643 415.127 284.274 414.459 283.066C413.8 281.857 413.056 280.915 412.228 280.239L412.722 278.806C413.838 279.423 414.898 280.454 415.904 281.899C416.918 283.344 417.675 284.937 418.173 286.678C418.68 288.419 418.934 290.283 418.934 292.269Z" fill="white"/>
<path d="M554.367 289.144H541.716V286.812H554.367V289.144ZM546.66 282.831C546.66 282.426 546.778 282.087 547.015 281.817C547.26 281.547 547.623 281.411 548.105 281.411C548.586 281.411 548.95 281.547 549.195 281.817C549.448 282.087 549.575 282.426 549.575 282.831C549.575 283.228 549.448 283.558 549.195 283.82C548.95 284.082 548.586 284.213 548.105 284.213C547.623 284.213 547.26 284.082 547.015 283.82C546.778 283.558 546.66 283.228 546.66 282.831ZM546.66 293.188C546.66 292.782 546.778 292.444 547.015 292.174C547.26 291.903 547.623 291.768 548.105 291.768C548.586 291.768 548.95 291.903 549.195 292.174C549.448 292.444 549.575 292.782 549.575 293.188C549.575 293.577 549.448 293.906 549.195 294.177C548.95 294.439 548.586 294.57 548.105 294.57C547.623 294.57 547.26 294.439 547.015 294.177C546.778 293.906 546.66 293.577 546.66 293.188Z" fill="white"/>
<path d="M548.167 358.714L551.21 353.707H553.948L549.46 360.489L554.087 367.423H551.374L548.205 362.289L545.036 367.423H542.311L546.938 360.489L542.45 353.707H545.163L548.167 358.714Z" fill="white"/>
<path d="M551.298 431.212H545.112V429.298H551.298V431.212Z" fill="white"/>
<path d="M549.36 498.868H554.506V501.087H549.36V506.918H547.002V501.087H541.855V498.868H547.002V493.481H549.36V498.868Z" fill="white"/>
<path d="M553.606 569.124H543.034V567.083H553.606V569.124ZM553.606 574.384H543.034V572.356H553.606V574.384Z" fill="white"/>
<rect x="29" y="75.1543" width="600" height="174.519" fill="white"/>
<path d="M29 331.885H484.769C487.955 331.885 490.538 334.468 490.538 337.654V608.808H37.6539C32.8745 608.808 29 604.933 29 600.154V331.885Z" fill="#2F2E3D"/>
<path d="M112.324 350.284L104.68 367.423H102.221L109.839 350.893H99.8502V348.966H112.324V350.284Z" fill="white"/>
<path d="M265.207 353.783C265.207 354.704 264.962 355.524 264.472 356.242C263.99 356.96 263.335 357.522 262.507 357.928C263.47 358.342 264.231 358.946 264.789 359.741C265.355 360.535 265.638 361.435 265.638 362.441C265.638 364.038 265.097 365.31 264.015 366.257C262.942 367.203 261.526 367.676 259.769 367.676C257.994 367.676 256.57 367.203 255.497 366.257C254.432 365.302 253.899 364.03 253.899 362.441C253.899 361.444 254.17 360.544 254.711 359.741C255.26 358.938 256.016 358.33 256.98 357.915C256.16 357.51 255.514 356.948 255.04 356.229C254.567 355.511 254.33 354.696 254.33 353.783C254.33 352.228 254.829 350.994 255.826 350.081C256.823 349.169 258.138 348.712 259.769 348.712C261.391 348.712 262.701 349.169 263.698 350.081C264.704 350.994 265.207 352.228 265.207 353.783ZM263.293 362.39C263.293 361.359 262.963 360.518 262.304 359.868C261.653 359.217 260.8 358.892 259.743 358.892C258.687 358.892 257.838 359.213 257.195 359.855C256.561 360.497 256.245 361.342 256.245 362.39C256.245 363.438 256.553 364.262 257.17 364.862C257.795 365.462 258.662 365.762 259.769 365.762C260.867 365.762 261.729 365.462 262.355 364.862C262.98 364.254 263.293 363.43 263.293 362.39ZM259.769 350.639C258.847 350.639 258.1 350.926 257.525 351.501C256.959 352.067 256.676 352.841 256.676 353.821C256.676 354.759 256.954 355.52 257.512 356.103C258.078 356.677 258.831 356.965 259.769 356.965C260.707 356.965 261.455 356.677 262.012 356.103C262.579 355.52 262.862 354.759 262.862 353.821C262.862 352.883 262.57 352.118 261.987 351.526C261.404 350.935 260.664 350.639 259.769 350.639Z" fill="white"/>
<path d="M416.607 359.31C416.116 359.893 415.529 360.362 414.845 360.717C414.168 361.072 413.425 361.249 412.614 361.249C411.549 361.249 410.619 360.987 409.825 360.463C409.039 359.939 408.43 359.204 407.999 358.258C407.568 357.303 407.353 356.251 407.353 355.101C407.353 353.867 407.585 352.756 408.05 351.767C408.523 350.779 409.191 350.022 410.053 349.498C410.915 348.974 411.921 348.712 413.07 348.712C414.895 348.712 416.332 349.397 417.38 350.766C418.436 352.127 418.964 353.986 418.964 356.344V357.028C418.964 360.62 418.255 363.244 416.835 364.9C415.415 366.548 413.273 367.393 410.408 367.436H409.951V365.458H410.446C412.381 365.424 413.868 364.921 414.908 363.949C415.947 362.969 416.514 361.423 416.607 359.31ZM412.994 359.31C413.78 359.31 414.502 359.069 415.161 358.587C415.829 358.106 416.315 357.51 416.619 356.8V355.862C416.619 354.324 416.285 353.073 415.618 352.11C414.95 351.146 414.105 350.664 413.083 350.664C412.052 350.664 411.223 351.062 410.598 351.856C409.973 352.642 409.66 353.681 409.66 354.974C409.66 356.234 409.96 357.273 410.56 358.093C411.168 358.904 411.98 359.31 412.994 359.31Z" fill="white"/>
<path d="M110.308 435.744H112.869V437.658H110.308V441.942H107.951V437.658H99.546V436.276L107.811 423.485H110.308V435.744ZM102.208 435.744H107.951V426.693L107.672 427.2L102.208 435.744Z" fill="white"/>
<path d="M255.091 432.689L256.029 423.485H265.486V425.653H258.019L257.462 430.686C258.366 430.153 259.393 429.887 260.542 429.887C262.224 429.887 263.559 430.445 264.548 431.56C265.536 432.667 266.031 434.167 266.031 436.06C266.031 437.962 265.515 439.462 264.484 440.561C263.462 441.651 262.029 442.196 260.187 442.196C258.556 442.196 257.225 441.744 256.194 440.84C255.163 439.935 254.575 438.685 254.432 437.087H256.65C256.794 438.144 257.17 438.942 257.778 439.483C258.387 440.016 259.19 440.282 260.187 440.282C261.277 440.282 262.131 439.91 262.748 439.166C263.373 438.423 263.686 437.396 263.686 436.086C263.686 434.852 263.348 433.863 262.672 433.12C262.004 432.367 261.112 431.991 259.997 431.991C258.974 431.991 258.171 432.215 257.588 432.663L256.967 433.17L255.091 432.689Z" fill="white"/>
<path d="M416.822 423.473V425.463H416.391C414.566 425.497 413.112 426.038 412.03 427.085C410.949 428.133 410.323 429.608 410.154 431.51C411.126 430.394 412.453 429.836 414.135 429.836C415.74 429.836 417.021 430.403 417.976 431.535C418.939 432.667 419.421 434.129 419.421 435.921C419.421 437.823 418.901 439.344 417.862 440.485C416.831 441.625 415.445 442.196 413.704 442.196C411.937 442.196 410.505 441.52 409.406 440.168C408.308 438.807 407.758 437.058 407.758 434.92V434.02C407.758 430.622 408.481 428.028 409.926 426.236C411.38 424.436 413.539 423.515 416.404 423.473H416.822ZM413.742 431.788C412.939 431.788 412.199 432.029 411.523 432.511C410.847 432.993 410.378 433.597 410.116 434.324V435.186C410.116 436.707 410.458 437.932 411.143 438.862C411.828 439.792 412.681 440.256 413.704 440.256C414.76 440.256 415.588 439.868 416.188 439.09C416.797 438.313 417.101 437.294 417.101 436.035C417.101 434.767 416.793 433.745 416.176 432.967C415.567 432.181 414.756 431.788 413.742 431.788Z" fill="white"/>
<path d="M108.115 516.461H105.758V500.831L101.029 502.567V500.438L107.748 497.915H108.115V516.461Z" fill="white"/>
<path d="M266.107 516.461H254.013V514.775L260.402 507.676C261.349 506.603 262 505.732 262.355 505.065C262.718 504.389 262.9 503.691 262.9 502.973C262.9 502.01 262.608 501.22 262.025 500.603C261.442 499.986 260.664 499.677 259.693 499.677C258.526 499.677 257.618 500.011 256.967 500.679C256.325 501.338 256.004 502.259 256.004 503.442H253.659C253.659 501.743 254.204 500.37 255.294 499.322C256.392 498.274 257.859 497.75 259.693 497.75C261.408 497.75 262.765 498.203 263.762 499.107C264.759 500.003 265.258 501.198 265.258 502.694C265.258 504.511 264.1 506.675 261.784 509.185L256.84 514.547H266.107V516.461Z" fill="white"/>
<path d="M411.029 506.092H412.791C413.898 506.075 414.769 505.783 415.402 505.217C416.036 504.651 416.353 503.886 416.353 502.922C416.353 500.759 415.276 499.677 413.121 499.677C412.106 499.677 411.295 499.969 410.687 500.552C410.087 501.127 409.787 501.891 409.787 502.846H407.441C407.441 501.384 407.974 500.172 409.039 499.208C410.112 498.236 411.473 497.75 413.121 497.75C414.861 497.75 416.226 498.211 417.215 499.132C418.204 500.053 418.698 501.334 418.698 502.973C418.698 503.776 418.436 504.553 417.912 505.306C417.397 506.058 416.691 506.62 415.795 506.992C416.809 507.313 417.591 507.845 418.14 508.589C418.698 509.333 418.977 510.241 418.977 511.314C418.977 512.971 418.436 514.285 417.355 515.257C416.273 516.229 414.866 516.714 413.133 516.714C411.401 516.714 409.989 516.245 408.899 515.307C407.818 514.369 407.277 513.131 407.277 511.593H409.635C409.635 512.565 409.951 513.343 410.585 513.926C411.219 514.509 412.068 514.8 413.133 514.8C414.266 514.8 415.132 514.505 415.732 513.913C416.332 513.321 416.632 512.472 416.632 511.365C416.632 510.292 416.302 509.468 415.643 508.893C414.984 508.318 414.033 508.023 412.791 508.006H411.029V506.092Z" fill="white"/>
<path d="M100.15 576.073C100.15 574.966 100.501 574.053 101.202 573.335C101.912 572.616 102.821 572.257 103.928 572.257C105.052 572.257 105.96 572.621 106.653 573.347C107.355 574.066 107.705 575 107.705 576.149V577.049C107.705 578.164 107.351 579.077 106.641 579.787C105.939 580.489 105.043 580.839 103.953 580.839C102.855 580.839 101.946 580.489 101.228 579.787C100.509 579.077 100.15 578.135 100.15 576.96V576.073ZM101.9 577.049C101.9 577.708 102.086 578.253 102.457 578.684C102.829 579.107 103.328 579.318 103.953 579.318C104.553 579.318 105.035 579.111 105.398 578.697C105.77 578.283 105.956 577.717 105.956 576.998V576.073C105.956 575.414 105.774 574.869 105.411 574.438C105.048 574.007 104.553 573.791 103.928 573.791C103.302 573.791 102.808 574.007 102.445 574.438C102.081 574.869 101.9 575.431 101.9 576.124V577.049ZM109.138 586.455C109.138 585.348 109.489 584.439 110.19 583.729C110.9 583.011 111.808 582.652 112.916 582.652C114.023 582.652 114.931 583.007 115.641 583.717C116.351 584.427 116.706 585.369 116.706 586.544V587.444C116.706 588.551 116.351 589.464 115.641 590.182C114.94 590.892 114.04 591.247 112.941 591.247C111.842 591.247 110.934 590.896 110.215 590.195C109.497 589.485 109.138 588.542 109.138 587.368V586.455ZM110.887 587.444C110.887 588.111 111.073 588.661 111.445 589.092C111.817 589.514 112.316 589.725 112.941 589.725C113.549 589.725 114.035 589.518 114.399 589.104C114.762 588.682 114.944 588.111 114.944 587.393V586.455C114.944 585.787 114.758 585.242 114.386 584.82C114.023 584.397 113.532 584.186 112.916 584.186C112.316 584.186 111.825 584.397 111.445 584.82C111.073 585.234 110.887 585.796 110.887 586.506V587.444ZM104.486 589.586L103.155 588.749L112.168 574.324L113.499 575.16L104.486 589.586Z" fill="white"/>
<path d="M272.077 583.108C272.077 585.855 271.608 587.896 270.67 589.231C269.732 590.566 268.266 591.234 266.272 591.234C264.302 591.234 262.845 590.583 261.898 589.282C260.952 587.972 260.461 586.02 260.428 583.425V580.294C260.428 577.581 260.897 575.566 261.835 574.247C262.773 572.929 264.243 572.27 266.246 572.27C268.232 572.27 269.694 572.908 270.632 574.184C271.57 575.452 272.052 577.412 272.077 580.066V583.108ZM269.732 579.901C269.732 577.915 269.453 576.47 268.896 575.566C268.338 574.653 267.455 574.197 266.246 574.197C265.046 574.197 264.171 574.649 263.622 575.553C263.073 576.457 262.79 577.848 262.773 579.724V583.476C262.773 585.47 263.06 586.945 263.635 587.9C264.218 588.847 265.097 589.32 266.272 589.32C267.429 589.32 268.287 588.872 268.845 587.976C269.411 587.08 269.707 585.669 269.732 583.742V579.901Z" fill="white"/>
<path d="M416.104 589.751C416.104 589.345 416.223 589.007 416.459 588.737C416.704 588.466 417.068 588.331 417.549 588.331C418.031 588.331 418.394 588.466 418.64 588.737C418.893 589.007 419.02 589.345 419.02 589.751C419.02 590.14 418.893 590.465 418.64 590.727C418.394 590.989 418.031 591.12 417.549 591.12C417.068 591.12 416.704 590.989 416.459 590.727C416.223 590.465 416.104 590.14 416.104 589.751Z" fill="white"/>
<path d="M530.909 146.055H526.573V162.602C526.573 164.008 526.823 165.055 527.323 165.742C527.823 166.43 528.675 166.773 529.878 166.773C530.612 166.773 531.37 166.695 532.151 166.539L532.268 168.883C531.409 169.117 530.409 169.234 529.268 169.234C527.378 169.234 525.995 168.695 525.12 167.617C524.245 166.539 523.792 164.953 523.761 162.859V146.055H512.628V169H509.815V146.055H505.55V143.641H530.909V146.055ZM543.775 138.578L538.432 151.914H535.713L542.721 134.875H544.83L551.814 151.914H549.096L543.775 138.578ZM579.423 169H558.048V166.844L569.743 153.578C571.681 151.344 573.024 149.5 573.774 148.047C574.524 146.594 574.899 145.18 574.899 143.805C574.899 141.648 574.267 139.945 573.001 138.695C571.735 137.43 569.993 136.797 567.774 136.797C565.478 136.797 563.618 137.531 562.196 139C560.79 140.469 560.087 142.375 560.087 144.719H557.298C557.298 142.797 557.728 141.047 558.587 139.469C559.462 137.891 560.696 136.656 562.29 135.766C563.899 134.859 565.728 134.406 567.774 134.406C570.899 134.406 573.337 135.227 575.087 136.867C576.853 138.508 577.735 140.742 577.735 143.57C577.735 145.164 577.235 146.906 576.235 148.797C575.251 150.688 573.509 153.047 571.009 155.875L561.493 166.633H579.423V169ZM605.461 149.57H585.914V147.086H605.461V149.57ZM605.461 159.203H585.914V156.719H605.461V159.203ZM425.139 209.203C424.139 210.672 422.897 211.812 421.413 212.625C419.928 213.422 418.319 213.82 416.585 213.82C414.647 213.82 412.936 213.32 411.452 212.32C409.967 211.32 408.819 209.938 408.007 208.172C407.194 206.406 406.788 204.477 406.788 202.383C406.788 200.133 407.217 198.086 408.077 196.242C408.952 194.398 410.163 192.969 411.71 191.953C413.272 190.922 415.069 190.406 417.1 190.406C420.522 190.406 423.186 191.609 425.092 194.016C426.999 196.406 427.952 199.805 427.952 204.211V206.742C427.952 212.898 426.639 217.523 424.014 220.617C421.389 223.711 417.382 225.258 411.991 225.258H411.475L411.499 222.82H412.483C416.561 222.758 419.663 221.602 421.788 219.352C423.913 217.102 425.03 213.719 425.139 209.203ZM416.936 211.406C418.811 211.406 420.491 210.852 421.975 209.742C423.475 208.617 424.538 207.164 425.163 205.383V203.766C425.163 200.297 424.436 197.609 422.983 195.703C421.546 193.781 419.6 192.82 417.147 192.82C414.928 192.82 413.108 193.719 411.686 195.516C410.264 197.297 409.553 199.547 409.553 202.266C409.553 204.875 410.233 207.055 411.592 208.805C412.967 210.539 414.749 211.406 416.936 211.406ZM435.404 223.312C435.404 222.766 435.576 222.305 435.92 221.93C436.279 221.539 436.771 221.344 437.396 221.344C438.021 221.344 438.513 221.539 438.873 221.93C439.232 222.305 439.412 222.766 439.412 223.312C439.412 223.859 439.232 224.312 438.873 224.672C438.513 225.016 438.021 225.188 437.396 225.188C436.771 225.188 436.279 225.016 435.92 224.672C435.576 224.312 435.404 223.859 435.404 223.312ZM467.77 199.664C467.77 201.43 467.255 203.016 466.223 204.422C465.192 205.812 463.833 206.836 462.145 207.492C464.114 208.164 465.692 209.25 466.88 210.75C468.067 212.25 468.661 213.984 468.661 215.953C468.661 218.875 467.669 221.195 465.684 222.914C463.7 224.617 461.075 225.469 457.809 225.469C454.512 225.469 451.872 224.617 449.887 222.914C447.919 221.211 446.934 218.891 446.934 215.953C446.934 214.016 447.505 212.289 448.645 210.773C449.786 209.258 451.348 208.164 453.333 207.492C451.645 206.836 450.302 205.812 449.302 204.422C448.302 203.016 447.802 201.43 447.802 199.664C447.802 196.836 448.708 194.586 450.52 192.914C452.348 191.242 454.762 190.406 457.762 190.406C460.762 190.406 463.177 191.25 465.005 192.938C466.848 194.625 467.77 196.867 467.77 199.664ZM465.848 215.977C465.848 213.852 465.091 212.109 463.575 210.75C462.059 209.375 460.122 208.688 457.762 208.688C455.403 208.688 453.473 209.359 451.973 210.703C450.473 212.047 449.723 213.805 449.723 215.977C449.723 218.148 450.45 219.883 451.903 221.18C453.356 222.461 455.325 223.102 457.809 223.102C460.231 223.102 462.177 222.461 463.645 221.18C465.114 219.898 465.848 218.164 465.848 215.977ZM464.958 199.641C464.958 197.688 464.278 196.062 462.919 194.766C461.575 193.453 459.856 192.797 457.762 192.797C455.637 192.797 453.911 193.43 452.583 194.695C451.27 195.945 450.614 197.594 450.614 199.641C450.614 201.641 451.27 203.25 452.583 204.469C453.911 205.688 455.645 206.297 457.786 206.297C459.895 206.297 461.614 205.688 462.942 204.469C464.286 203.234 464.958 201.625 464.958 199.641ZM491.793 190.617V193.078H491.465C487.387 193.078 484.176 194.281 481.832 196.688C479.488 199.078 478.191 202.406 477.941 206.672C478.879 205.375 480.074 204.375 481.527 203.672C482.98 202.953 484.605 202.594 486.402 202.594C489.402 202.594 491.785 203.633 493.551 205.711C495.332 207.773 496.222 210.477 496.222 213.82C496.222 216.039 495.808 218.039 494.98 219.82C494.152 221.602 492.965 222.992 491.418 223.992C489.871 224.977 488.105 225.469 486.121 225.469C482.855 225.469 480.199 224.289 478.152 221.93C476.105 219.555 475.082 216.492 475.082 212.742V209.93C475.082 203.82 476.472 199.094 479.254 195.75C482.035 192.391 485.98 190.68 491.09 190.617H491.793ZM485.957 205.008C484.176 205.008 482.512 205.539 480.965 206.602C479.433 207.648 478.41 208.984 477.894 210.609V213C477.894 215.969 478.652 218.391 480.168 220.266C481.699 222.141 483.683 223.078 486.121 223.078C488.308 223.078 490.074 222.211 491.418 220.477C492.777 218.742 493.457 216.555 493.457 213.914C493.457 211.227 492.777 209.07 491.418 207.445C490.074 205.82 488.254 205.008 485.957 205.008ZM520.339 209.203C519.339 210.672 518.097 211.812 516.612 212.625C515.128 213.422 513.518 213.82 511.784 213.82C509.847 213.82 508.136 213.32 506.651 212.32C505.167 211.32 504.018 209.938 503.206 208.172C502.393 206.406 501.987 204.477 501.987 202.383C501.987 200.133 502.417 198.086 503.276 196.242C504.151 194.398 505.362 192.969 506.909 191.953C508.472 190.922 510.268 190.406 512.3 190.406C515.722 190.406 518.386 191.609 520.292 194.016C522.198 196.406 523.151 199.805 523.151 204.211V206.742C523.151 212.898 521.839 217.523 519.214 220.617C516.589 223.711 512.581 225.258 507.19 225.258H506.675L506.698 222.82H507.682C511.761 222.758 514.862 221.602 516.987 219.352C519.112 217.102 520.229 213.719 520.339 209.203ZM512.136 211.406C514.011 211.406 515.69 210.852 517.175 209.742C518.675 208.617 519.737 207.164 520.362 205.383V203.766C520.362 200.297 519.636 197.609 518.182 195.703C516.745 193.781 514.8 192.82 512.347 192.82C510.128 192.82 508.307 193.719 506.886 195.516C505.464 197.297 504.753 199.547 504.753 202.266C504.753 204.875 505.432 207.055 506.792 208.805C508.167 210.539 509.948 211.406 512.136 211.406ZM546.963 190.617V193.078H546.635C542.557 193.078 539.346 194.281 537.002 196.688C534.658 199.078 533.361 202.406 533.111 206.672C534.049 205.375 535.244 204.375 536.697 203.672C538.15 202.953 539.775 202.594 541.572 202.594C544.572 202.594 546.955 203.633 548.721 205.711C550.502 207.773 551.393 210.477 551.393 213.82C551.393 216.039 550.978 218.039 550.15 219.82C549.322 221.602 548.135 222.992 546.588 223.992C545.041 224.977 543.275 225.469 541.291 225.469C538.025 225.469 535.369 224.289 533.322 221.93C531.275 219.555 530.252 216.492 530.252 212.742V209.93C530.252 203.82 531.643 199.094 534.424 195.75C537.205 192.391 541.15 190.68 546.26 190.617H546.963ZM541.127 205.008C539.346 205.008 537.682 205.539 536.135 206.602C534.603 207.648 533.58 208.984 533.064 210.609V213C533.064 215.969 533.822 218.391 535.338 220.266C536.869 222.141 538.853 223.078 541.291 223.078C543.478 223.078 545.244 222.211 546.588 220.477C547.947 218.742 548.627 216.555 548.627 213.914C548.627 211.227 547.947 209.07 546.588 207.445C545.244 205.82 543.424 205.008 541.127 205.008ZM578.579 210.773C578.579 215.586 577.696 219.242 575.931 221.742C574.165 224.227 571.563 225.469 568.126 225.469C564.751 225.469 562.165 224.25 560.368 221.812C558.571 219.359 557.649 215.797 557.602 211.125V205.008C557.602 200.211 558.493 196.578 560.274 194.109C562.056 191.641 564.657 190.406 568.079 190.406C571.454 190.406 574.032 191.602 575.813 193.992C577.595 196.367 578.517 199.875 578.579 204.516V210.773ZM575.767 204.656C575.767 200.75 575.126 197.797 573.845 195.797C572.579 193.797 570.657 192.797 568.079 192.797C565.548 192.797 563.642 193.773 562.36 195.727C561.079 197.68 560.423 200.562 560.392 204.375V211.078C560.392 214.969 561.048 217.945 562.36 220.008C563.688 222.07 565.61 223.102 568.126 223.102C570.626 223.102 572.517 222.094 573.798 220.078C575.095 218.062 575.751 215.109 575.767 211.219V204.656ZM602.812 214.008H608.133V216.375H602.812V225H600V216.375H583.945V214.781L599.742 190.875H602.812V214.008ZM587.391 214.008H600V194.508L598.758 196.664L587.391 214.008Z" fill="black"/>
<path d="M50.1787 101.823H47.1729V107H45.4766V94.2031H49.7129C51.1543 94.2031 52.2617 94.5312 53.0352 95.1875C53.8145 95.8438 54.2041 96.7988 54.2041 98.0527C54.2041 98.8496 53.9873 99.5439 53.5537 100.136C53.126 100.728 52.5283 101.17 51.7607 101.463L54.7666 106.895V107H52.9561L50.1787 101.823ZM47.1729 100.443H49.7656C50.6035 100.443 51.2686 100.227 51.7607 99.793C52.2588 99.3594 52.5078 98.7793 52.5078 98.0527C52.5078 97.2617 52.2705 96.6553 51.7959 96.2334C51.3271 95.8115 50.6475 95.5977 49.7568 95.5918H47.1729V100.443ZM64.0036 103.66H58.6422L57.4381 107H55.6979L60.5846 94.2031H62.0612L66.9567 107H65.2252L64.0036 103.66ZM59.152 102.271H63.5026L61.3229 96.2861L59.152 102.271ZM69.0393 107V94.2031H72.6516C73.7649 94.2031 74.7493 94.4492 75.6048 94.9414C76.4602 95.4336 77.1194 96.1338 77.5823 97.042C78.0511 97.9502 78.2884 98.9932 78.2942 100.171V100.988C78.2942 102.195 78.0598 103.253 77.5911 104.161C77.1282 105.069 76.4632 105.767 75.596 106.253C74.7346 106.739 73.7298 106.988 72.5813 107H69.0393ZM70.7268 95.5918V105.62H72.5022C73.803 105.62 74.8137 105.216 75.5345 104.407C76.261 103.599 76.6243 102.447 76.6243 100.953V100.206C76.6243 98.7529 76.2815 97.625 75.596 96.8223C74.9163 96.0137 73.9495 95.6035 72.6956 95.5918H70.7268Z" fill="#8C8C8C"/>
</g>
<defs>
<filter id="filter0_d" x="0.153847" y="0.153847" width="657.692" height="637.5" filterUnits="userSpaceOnUse" color-interpolation-filters="sRGB">
<feFlood flood-opacity="0" result="BackgroundImageFix"/>
<feColorMatrix in="SourceAlpha" type="matrix" values="0 0 0 0 0 0 0 0 0 0 0 0 0 0 0 0 0 0 127 0" result="hardAlpha"/>
<feOffset/>
<feGaussianBlur stdDeviation="14.4231"/>
<feColorMatrix type="matrix" values="0 0 0 0 0 0 0 0 0 0 0 0 0 0 0 0 0 0 0.5 0"/>
<feBlend mode="normal" in2="BackgroundImageFix" result="effect1_dropShadow"/>
<feBlend mode="normal" in="SourceGraphic" in2="effect1_dropShadow" result="shape"/>
</filter>
<filter id="filter1_i" x="29" y="29" width="600" height="46.1538" filterUnits="userSpaceOnUse" color-interpolation-filters="sRGB">
<feFlood flood-opacity="0" result="BackgroundImageFix"/>
<feBlend mode="normal" in="SourceGraphic" in2="BackgroundImageFix" result="shape"/>
<feColorMatrix in="SourceAlpha" type="matrix" values="0 0 0 0 0 0 0 0 0 0 0 0 0 0 0 0 0 0 127 0" result="hardAlpha"/>
<feOffset/>
<feGaussianBlur stdDeviation="1.44231"/>
<feComposite in2="hardAlpha" operator="arithmetic" k2="-1" k3="1"/>
<feColorMatrix type="matrix" values="0 0 0 0 0 0 0 0 0 0 0 0 0 0 0 0 0 0 0.15 0"/>
<feBlend mode="normal" in2="shape" result="effect1_innerShadow"/>
</filter>
<clipPath id="clip0">
<rect width="600" height="579.808" fill="white" transform="translate(29 29)"/>
</clipPath>
<clipPath id="clip1">
<rect width="23.0769" height="23.0769" fill="white" transform="translate(40.5391 40.5381)"/>
</clipPath>
</defs>
</svg>
