<svg width="1052" height="456" viewBox="0 0 1052 456" fill="none" xmlns="http://www.w3.org/2000/svg">
<g clip-path="url(#clip0)">
<path d="M-651.147 1018.18C-674.649 945.676 -256.628 803.198 -196.895 763.891C-137.162 724.573 -20.5155 688.275 22.2899 600.142C65.094 512.008 105.75 463.718 195.551 450.688C285.353 437.657 351.835 394.953 431.183 327.301C510.533 259.651 639.287 254.76 711.608 255.308C783.93 255.855 939.849 196.908 1011.74 143.231C1083.64 89.5539 1254.7 -41.4959 1343.87 -47.5938C1433.02 -53.6917 1494.58 -34.8497 1640.41 -103.094C1786.26 -171.337 1908.9 -112.56 1998.55 -122.747C2088.19 -132.934 2219.21 -173.319 2195.71 -245.815" stroke="url(#paint0_linear)" stroke-width="151"/>
<path d="M-553.442 1104.82C-576.945 1032.32 -158.923 889.838 -99.1908 850.531C-39.4571 811.213 77.1891 774.915 119.995 686.782C162.799 598.648 203.455 550.358 293.256 537.328C383.058 524.297 449.54 481.593 528.888 413.945C608.238 346.291 736.991 341.4 809.313 341.948C881.635 342.495 1037.56 283.548 1109.44 229.871C1181.34 176.194 1352.41 45.144 1441.57 39.0461C1530.73 32.9482 1592.28 51.7902 1738.12 -16.4536C1883.96 -84.6974 2006.6 -25.9202 2096.25 -36.1072C2185.9 -46.2942 2316.92 -86.6788 2293.41 -159.175" stroke="url(#paint1_linear)" stroke-width="151"/>
<path d="M-443.692 1162.96C-467.195 1090.46 -49.1726 947.978 10.5598 908.671C70.2936 869.353 186.94 833.055 229.745 744.922C272.549 656.788 313.205 608.498 403.007 595.468C492.808 582.437 559.29 539.733 638.639 472.085C717.988 404.426 846.742 399.536 919.064 400.083C991.383 400.63 1147.31 341.688 1219.2 288.011C1291.1 234.334 1462.16 103.284 1551.32 97.1862C1640.48 91.0884 1702.03 109.93 1847.87 41.6865C1993.71 -26.5573 2116.35 32.22 2206 22.0329C2295.65 11.8459 2426.67 -28.5387 2403.16 -101.035" stroke="url(#paint2_linear)" stroke-width="151"/>
</g>
<defs>
<linearGradient id="paint0_linear" x1="-1138.48" y1="904.271" x2="1334.3" y2="-253.905" gradientUnits="userSpaceOnUse">
<stop stop-color="#252525"/>
<stop offset="1" stop-color="#131313"/>
</linearGradient>
<linearGradient id="paint1_linear" x1="76.2897" y1="970.14" x2="1401.09" y2="-91.8122" gradientUnits="userSpaceOnUse">
<stop stop-color="#292929"/>
<stop offset="1" stop-color="#131313"/>
</linearGradient>
<linearGradient id="paint2_linear" x1="-238.909" y1="1209.54" x2="1480.25" y2="-86.7772" gradientUnits="userSpaceOnUse">
<stop stop-color="#0E0E0E"/>
<stop offset="1" stop-color="#303030"/>
</linearGradient>
<clipPath id="clip0">
<rect width="1052" height="456" fill="white"/>
</clipPath>
</defs>
</svg>
