<svg width="1957" height="1226" viewBox="0 0 1957 1226" fill="none" xmlns="http://www.w3.org/2000/svg">
<g clip-path="url(#clip0)">
<path d="M1957 0.000976562H0V1226H1957V0.000976562Z" fill="white"/>
<path d="M-22.4238 -275.836C16.2065 -337.136 316.993 -153.803 373.053 -139.613C429.113 -125.424 510.655 -72.0703 592.196 -99.8822C673.738 -127.694 726.74 -131.667 779.233 -81.1516C831.725 -30.6359 893.391 -14.1757 978.5 -5.09429C1063.61 3.98715 1129.35 85.1531 1164.01 132.831C1198.66 180.509 1314.86 245.214 1386.72 258.269C1458.58 271.324 1631.85 300.27 1679.25 354.759C1726.64 409.248 1743.46 461.466 1861.19 513.685C1978.91 565.903 1997.77 683.395 2048.22 735.613C2098.68 787.832 2190.01 847.997 2228.64 786.697" stroke="url(#paint0_linear)" stroke-width="452.738"/>
<path d="M-22.4238 -275.836C16.2065 -337.136 316.993 -153.803 373.053 -139.613C429.113 -125.424 510.655 -72.0703 592.196 -99.8822C673.738 -127.694 726.74 -131.667 779.233 -81.1516C831.725 -30.6359 893.391 -14.1757 978.5 -5.09429C1063.61 3.98715 1129.35 85.1531 1164.01 132.831C1198.66 180.509 1314.86 245.214 1386.72 258.269C1458.58 271.324 1631.85 300.27 1679.25 354.759C1726.64 409.248 1743.46 461.466 1861.19 513.685C1978.91 565.903 1997.77 683.395 2048.22 735.613C2098.68 787.832 2190.01 847.997 2228.64 786.697" stroke="url(#paint1_linear)" stroke-width="452.738"/>
<path d="M65.2324 -373.462C103.863 -434.762 404.65 -251.429 460.709 -237.239C516.769 -223.05 598.311 -169.696 679.853 -197.508C761.394 -225.32 814.396 -229.293 866.889 -178.777C919.381 -128.262 981.047 -111.802 1066.16 -102.72C1151.27 -93.6389 1217.01 -12.4729 1251.66 35.2048C1286.32 82.8825 1402.52 147.588 1474.37 160.643C1546.23 173.698 1719.51 202.644 1766.9 257.133C1814.3 311.622 1831.12 363.84 1948.84 416.059C2066.57 468.277 2085.43 585.769 2135.88 637.987C2186.33 690.206 2277.66 750.371 2316.29 689.071" stroke="url(#paint2_linear)" stroke-width="452.738"/>
<path d="M134.543 -475.629C173.173 -536.929 473.96 -353.596 530.02 -339.406C586.08 -325.216 667.622 -271.863 749.163 -299.675C830.705 -327.487 883.707 -331.46 936.199 -280.944C988.692 -230.429 1050.36 -213.968 1135.47 -204.887C1220.58 -195.805 1286.32 -114.64 1320.97 -66.9622C1355.63 -19.2844 1471.83 45.4211 1543.68 58.4759C1615.54 71.5305 1788.82 100.477 1836.22 154.966C1883.61 209.455 1900.43 261.673 2018.16 313.892C2135.88 366.11 2154.74 483.602 2205.19 535.82C2255.65 588.039 2346.97 648.204 2385.6 586.904" stroke="url(#paint3_linear)" stroke-width="452.738"/>
<path d="M222.201 -555.091C260.832 -616.391 561.618 -433.059 617.678 -418.869C673.738 -404.679 755.28 -351.326 836.821 -379.138C918.363 -406.95 971.365 -410.923 1023.86 -360.407C1076.35 -309.891 1138.02 -293.431 1223.13 -284.35C1308.23 -275.268 1373.98 -194.103 1408.63 -146.425C1443.29 -98.7473 1559.48 -34.0418 1631.34 -20.9871C1703.2 -7.93239 1876.48 21.0139 1923.87 75.5028C1971.27 129.992 1988.09 182.21 2105.81 234.429C2223.54 286.647 2242.4 404.139 2292.85 456.357C2343.3 508.576 2434.63 568.741 2473.26 507.441" stroke="url(#paint4_linear)" stroke-width="452.738"/>
<path d="M-172.256 137.372C-133.625 76.0712 167.161 259.404 223.221 273.594C279.281 287.784 360.823 341.137 442.364 313.325C523.906 285.513 576.908 281.54 629.401 332.056C681.893 382.572 743.559 399.032 828.668 408.113C913.777 417.195 979.52 498.36 1014.18 546.038C1048.83 593.716 1165.03 658.422 1236.89 671.476C1308.74 684.531 1482.02 713.477 1529.42 767.966C1576.81 822.455 1593.63 874.673 1711.36 926.892C1829.08 979.11 1847.94 1096.6 1898.39 1148.82C1948.85 1201.04 2040.17 1261.2 2078.8 1199.9" stroke="url(#paint5_linear)" stroke-width="452.738"/>
<path d="M-76.4453 -129.397C-37.8149 -190.697 262.972 -7.36496 319.032 6.82485C375.092 21.0146 456.633 74.3682 538.175 46.5563C619.717 18.7442 672.719 14.771 725.211 65.2868C777.704 115.803 839.369 132.263 924.479 141.345C1009.59 150.426 1075.33 231.592 1109.99 279.27C1144.64 326.947 1260.84 391.653 1332.7 404.708C1404.56 417.762 1577.83 446.708 1625.23 501.197C1672.62 555.686 1689.44 607.905 1807.17 660.123C1924.89 712.342 1943.75 829.833 1994.2 882.052C2044.66 934.27 2135.98 994.435 2174.61 933.135" stroke="url(#paint6_linear)" stroke-width="452.738"/>
<path d="M-171.748 -4.53967C-133.118 -65.8397 167.669 117.493 223.729 131.683C279.789 145.872 361.331 199.226 442.872 171.414C524.414 143.602 577.416 139.629 629.909 190.145C682.401 240.66 744.067 257.12 829.176 266.202C914.285 275.283 980.028 356.449 1014.68 404.127C1049.34 451.805 1165.54 516.51 1237.39 529.565C1309.25 542.62 1482.53 571.566 1529.92 626.055C1577.32 680.543 1594.14 732.762 1711.86 784.98C1829.59 837.199 1848.45 954.691 1898.9 1006.91C1949.35 1059.13 2040.68 1119.29 2079.31 1057.99" stroke="url(#paint7_linear)" stroke-width="452.738"/>
<path d="M-192.643 274.729C-154.012 213.429 146.775 396.761 202.834 410.951C258.894 425.141 340.436 478.495 421.978 450.683C503.519 422.871 556.521 418.897 609.014 469.413C661.506 519.929 723.172 536.389 808.281 545.471C893.39 554.552 959.133 635.718 993.788 683.396C1028.44 731.073 1144.64 795.779 1216.5 808.834C1288.36 821.888 1461.63 850.834 1509.03 905.323C1556.43 959.812 1573.24 1012.03 1690.97 1064.25C1808.7 1116.47 1827.55 1233.96 1878.01 1286.18C1928.46 1338.4 2019.79 1398.56 2058.42 1337.26" stroke="url(#paint8_linear)" stroke-width="424.618"/>
<path d="M-172.256 421.168C-133.625 359.868 167.161 543.201 223.221 557.391C279.281 571.58 360.823 624.934 442.364 597.122C523.906 569.31 576.908 565.337 629.401 615.853C681.893 666.368 743.559 682.829 828.668 691.91C913.777 700.992 979.52 782.157 1014.18 829.835C1048.83 877.513 1165.03 942.218 1236.89 955.273C1308.74 968.328 1482.02 997.274 1529.42 1051.76C1576.81 1106.25 1593.63 1158.47 1711.36 1210.69C1829.08 1262.91 1847.94 1380.4 1898.39 1432.62C1948.85 1484.83 2040.17 1545 2078.8 1483.7" stroke="url(#paint9_linear)" stroke-width="424.618"/>
<path d="M-243.605 588.039C-204.975 526.739 95.8117 710.072 151.872 724.262C207.932 738.451 289.473 791.805 371.015 763.993C452.557 736.181 505.559 732.208 558.051 782.724C610.544 833.239 672.209 849.7 757.319 858.781C842.428 867.863 908.171 949.028 942.826 996.706C977.481 1044.38 1093.68 1109.09 1165.54 1122.14C1237.4 1135.2 1410.67 1164.14 1458.07 1218.63C1505.46 1273.12 1522.28 1325.34 1640.01 1377.56C1757.73 1429.78 1776.59 1547.27 1827.04 1599.49C1877.5 1651.71 1968.82 1711.87 2007.45 1650.57" stroke="url(#paint10_linear)" stroke-width="655.205"/>
<path d="M-243.605 766.264C-204.975 704.964 95.8117 888.296 151.872 902.486C207.932 916.676 289.473 970.03 371.015 942.218C452.557 914.406 505.559 910.433 558.051 960.948C610.544 1011.46 672.209 1027.92 757.319 1037.01C842.428 1046.09 908.171 1127.25 942.826 1174.93C977.481 1222.61 1093.68 1287.31 1165.54 1300.37C1237.4 1313.42 1410.67 1342.37 1458.07 1396.86C1505.46 1451.35 1522.28 1503.56 1640.01 1555.78C1757.73 1608 1776.59 1725.49 1827.04 1777.71C1877.5 1829.93 1968.82 1890.09 2007.45 1828.79" stroke="url(#paint11_linear)" stroke-width="655.205"/>
<path d="M-353.688 971.733C-315.057 910.433 -14.2704 1093.77 41.7895 1107.96C97.8494 1122.14 179.391 1175.5 260.933 1147.68C342.474 1119.87 395.476 1115.9 447.969 1166.41C500.461 1216.93 562.127 1233.39 647.236 1242.47C732.345 1251.55 798.088 1332.72 832.744 1380.4C867.399 1428.08 983.596 1492.78 1055.45 1505.84C1127.31 1518.89 1300.59 1547.84 1347.98 1602.33C1395.38 1656.81 1412.2 1709.03 1529.92 1761.25C1647.65 1813.47 1666.51 1930.96 1716.96 1983.18C1767.41 2035.4 1858.74 2095.56 1897.37 2034.26" stroke="url(#paint12_linear)" stroke-width="655.205"/>
</g>
<defs>
<linearGradient id="paint0_linear" x1="383.246" y1="192.415" x2="2221.67" y2="774.604" gradientUnits="userSpaceOnUse">
<stop stop-color="#585858"/>
<stop offset="1" stop-color="#323232"/>
</linearGradient>
<linearGradient id="paint1_linear" x1="383.246" y1="192.415" x2="2221.67" y2="774.604" gradientUnits="userSpaceOnUse">
<stop stop-color="#0E0E0E"/>
<stop offset="1" stop-color="#2E2E2E"/>
</linearGradient>
<linearGradient id="paint2_linear" x1="470.902" y1="94.7887" x2="2309.33" y2="676.978" gradientUnits="userSpaceOnUse">
<stop stop-color="#0E0E0E"/>
<stop offset="1" stop-color="#2E2E2E"/>
</linearGradient>
<linearGradient id="paint3_linear" x1="540.213" y1="-7.3782" x2="2378.64" y2="574.811" gradientUnits="userSpaceOnUse">
<stop/>
<stop offset="1" stop-color="#454545"/>
</linearGradient>
<linearGradient id="paint4_linear" x1="1136.49" y1="-166.304" x2="2472.17" y2="500.238" gradientUnits="userSpaceOnUse">
<stop stop-color="#131313"/>
<stop offset="1" stop-color="#404040"/>
</linearGradient>
<linearGradient id="paint5_linear" x1="306.292" y1="357.029" x2="1603.92" y2="952.463" gradientUnits="userSpaceOnUse">
<stop stop-color="#272727"/>
<stop offset="1" stop-color="#1C1C1C"/>
</linearGradient>
<linearGradient id="paint6_linear" x1="329.224" y1="338.853" x2="2167.65" y2="921.042" gradientUnits="userSpaceOnUse">
<stop stop-color="#373737"/>
<stop offset="1" stop-color="#111111"/>
</linearGradient>
<linearGradient id="paint7_linear" x1="201.305" y1="511.97" x2="1692.2" y2="857.52" gradientUnits="userSpaceOnUse">
<stop stop-color="#313131"/>
<stop offset="1" stop-color="#1D1D1D"/>
</linearGradient>
<linearGradient id="paint8_linear" x1="-86.1287" y1="141.899" x2="1495.68" y2="824.264" gradientUnits="userSpaceOnUse">
<stop stop-color="#232323"/>
<stop offset="1" stop-color="#222222"/>
</linearGradient>
<linearGradient id="paint9_linear" x1="-329.733" y1="30.0835" x2="1627.9" y2="994.466" gradientUnits="userSpaceOnUse">
<stop stop-color="#313131"/>
<stop offset="1" stop-color="#1D1D1D"/>
</linearGradient>
<linearGradient id="paint10_linear" x1="-690.046" y1="763.412" x2="1454.13" y2="1114.75" gradientUnits="userSpaceOnUse">
<stop stop-color="#434343"/>
<stop offset="1" stop-color="#131313"/>
</linearGradient>
<linearGradient id="paint11_linear" x1="-109.062" y1="795.198" x2="1114.37" y2="1191.63" gradientUnits="userSpaceOnUse">
<stop stop-color="#292929"/>
<stop offset="1" stop-color="#232323"/>
</linearGradient>
<linearGradient id="paint12_linear" x1="-219.144" y1="1000.67" x2="723.168" y2="1211.73" gradientUnits="userSpaceOnUse">
<stop stop-color="#1C1C1C"/>
<stop offset="1" stop-color="#2E2E2E"/>
</linearGradient>
<clipPath id="clip0">
<rect width="1957" height="1226" fill="white"/>
</clipPath>
</defs>
</svg>
