<svg width="1052" height="559" viewBox="0 0 1052 559" fill="none" xmlns="http://www.w3.org/2000/svg">
<g clip-path="url(#clip0)">
<path d="M-651.147 1248.16C-674.649 1159.28 -256.628 984.623 -196.895 936.437C-137.162 888.237 -20.5155 843.741 22.2899 735.7C65.094 627.659 105.75 568.461 195.551 552.488C285.353 536.514 351.835 484.164 431.183 401.231C510.533 318.3 639.287 312.305 711.608 312.976C783.93 313.647 939.849 241.385 1011.74 175.583C1083.64 109.782 1254.7 -50.8689 1343.87 -58.3441C1433.02 -65.8194 1494.58 -42.7214 1640.41 -126.38C1786.26 -210.039 1908.9 -137.985 1998.55 -150.473C2088.19 -162.961 2219.21 -212.467 2195.71 -301.339" stroke="url(#paint0_linear)" stroke-width="151"/>
<path d="M-553.442 1354.37C-576.945 1265.49 -158.923 1090.83 -99.1908 1042.65C-39.4571 994.447 77.1891 949.951 119.995 841.91C162.799 733.869 203.455 674.671 293.256 658.698C383.058 642.724 449.54 590.374 528.888 507.446C608.238 424.51 736.991 418.515 809.313 419.186C881.635 419.857 1037.56 347.595 1109.44 281.793C1181.34 215.992 1352.41 55.341 1441.57 47.8658C1530.73 40.3906 1592.28 63.4885 1738.12 -20.17C1883.96 -103.829 2006.6 -31.7748 2096.25 -44.2629C2185.9 -56.751 2316.92 -106.257 2293.41 -195.129" stroke="url(#paint1_linear)" stroke-width="151"/>
<path d="M-469.856 1464C-493.359 1375.12 -75.3367 1200.46 -15.6042 1152.28C44.1296 1104.08 160.776 1059.58 203.581 951.538C246.385 843.498 287.041 784.3 376.843 768.326C466.644 752.353 533.126 700.003 612.475 617.075C691.824 534.133 820.578 528.138 892.9 528.809C965.219 529.48 1121.14 457.223 1193.03 391.422C1264.93 325.621 1436 164.97 1525.16 157.494C1614.31 150.019 1675.87 173.117 1821.7 89.4586C1967.55 5.80011 2090.19 77.8538 2179.84 65.3658C2269.48 52.8777 2400.5 3.37121 2377 -85.5" stroke="url(#paint2_linear)" stroke-width="151"/>
</g>
<defs>
<linearGradient id="paint0_linear" x1="-1138.48" y1="1108.53" x2="1492.67" y2="103.244" gradientUnits="userSpaceOnUse">
<stop stop-color="#252525"/>
<stop offset="1" stop-color="#131313"/>
</linearGradient>
<linearGradient id="paint1_linear" x1="76.2897" y1="1189.27" x2="1600.59" y2="192.542" gradientUnits="userSpaceOnUse">
<stop stop-color="#292929"/>
<stop offset="1" stop-color="#131313"/>
</linearGradient>
<linearGradient id="paint2_linear" x1="-238.909" y1="1482.75" x2="1717.51" y2="279.347" gradientUnits="userSpaceOnUse">
<stop stop-color="#0E0E0E"/>
<stop offset="1" stop-color="#303030"/>
</linearGradient>
<clipPath id="clip0">
<rect width="1052" height="559" fill="white"/>
</clipPath>
</defs>
</svg>
