<svg width="1957" height="61" viewBox="0 0 1957 61" fill="none" xmlns="http://www.w3.org/2000/svg">
<rect width="1957" height="60" fill="#F0F8FF" fill-opacity="0.7"/>
<g filter="url(#filter0_dd)">
<path opacity="0.2" d="M776.102 14.25H805.398C806.372 14.25 807.156 15.0026 807.156 15.9375V40.2214L804.342 43.0799C803.673 43.7593 801.867 43.1857 801.304 43.9486L799.976 45.75H776.102C775.128 45.75 774.344 44.9974 774.344 44.0625V15.9375C774.344 15.0026 775.128 14.25 776.102 14.25Z" fill="black"/>
<path d="M807.156 29.4375V39.9757L804.683 42.5174C804.018 43.2006 803.367 42.8983 802.669 43.5499L800.914 45.1875H789.578V29.4375H807.156Z" fill="#666666"/>
<path d="M774.344 28.3125V43.5C774.344 44.4349 775.128 45.1875 776.102 45.1875H790.75V28.3125H774.344Z" fill="#8C8C8C"/>
<path d="M776.102 13.6875C775.128 13.6875 774.344 14.4401 774.344 15.375V29.4375H791.922V13.6875H776.102Z" fill="#A6A6A6"/>
<path d="M805.398 13.6875C806.372 13.6875 807.156 14.4401 807.156 15.375V29.4375H790.75V13.6875H805.398Z" fill="#595959"/>
<path opacity="0.2" d="M776.102 13.6875C775.128 13.6875 774.344 14.4401 774.344 15.375V15.9375C774.344 15.0026 775.128 14.25 776.102 14.25H805.398C806.372 14.25 807.156 15.0026 807.156 15.9375V15.375C807.156 14.4401 806.372 13.6875 805.398 13.6875H776.102Z" fill="white"/>
<path opacity="0.2" d="M798.953 47.4375C804.131 47.4375 808.328 43.4081 808.328 38.4375C808.328 33.4669 804.131 29.4375 798.953 29.4375C793.775 29.4375 789.578 33.4669 789.578 38.4375C789.578 43.4081 793.775 47.4375 798.953 47.4375Z" fill="black"/>
<path d="M798.953 46.875C804.131 46.875 808.328 42.8456 808.328 37.875C808.328 32.9044 804.131 28.875 798.953 28.875C793.775 28.875 789.578 32.9044 789.578 37.875C789.578 42.8456 793.775 46.875 798.953 46.875Z" fill="#4CAF50"/>
<path opacity="0.2" d="M782.547 19.3125V22.6875H779.031V23.8125H782.547V27.1875H783.719V23.8125H787.234V22.6875H783.719V19.3125H782.547ZM795.438 22.6875V23.8125H802.469V22.6875H795.438ZM779.31 34.5L778.445 35.3317L781.682 38.4375L778.445 41.5433L779.31 42.375L782.546 39.2681L785.782 42.375L786.648 41.5433L783.411 38.4375L786.648 35.3317L785.782 34.5L782.546 37.6069L779.31 34.5Z" fill="black"/>
<path d="M782.547 18.75V22.125H779.031V23.25H782.547V26.625H783.719V23.25H787.234V22.125H783.719V18.75H782.547ZM795.438 22.125V23.25H802.469V22.125H795.438ZM779.31 33.9375L778.445 34.7692L781.682 37.875L778.445 40.9808L779.31 41.8125L782.546 38.7056L785.782 41.8125L786.648 40.9808L783.411 37.875L786.648 34.7692L785.782 33.9375L782.546 37.0444L779.31 33.9375Z" fill="white"/>
<path d="M795.438 35.625V36.75H802.469V35.625H795.438ZM795.438 39V40.125H802.469V39H795.438Z" fill="white"/>
</g>
<g filter="url(#filter1_dd)">
<path d="M865.094 13.6875H840.906C840.13 13.6875 839.5 14.3171 839.5 15.0938V31.4062C839.5 32.1829 840.13 32.8125 840.906 32.8125H865.094C865.87 32.8125 866.5 32.1829 866.5 31.4062V15.0938C866.5 14.3171 865.87 13.6875 865.094 13.6875Z" fill="#FFB300"/>
<path opacity="0.1" d="M865.094 16.5H840.906C840.13 16.5 839.5 17.1296 839.5 17.9062V34.2188C839.5 34.9954 840.13 35.625 840.906 35.625H865.094C865.87 35.625 866.5 34.9954 866.5 34.2188V17.9062C866.5 17.1296 865.87 16.5 865.094 16.5Z" fill="black"/>
<path d="M865.094 17.0625H840.906C840.13 17.0625 839.5 17.6921 839.5 18.4688V34.7812C839.5 35.5579 840.13 36.1875 840.906 36.1875H865.094C865.87 36.1875 866.5 35.5579 866.5 34.7812V18.4688C866.5 17.6921 865.87 17.0625 865.094 17.0625Z" fill="#FF5722"/>
<path opacity="0.1" d="M865.094 19.875H840.906C840.13 19.875 839.5 20.5046 839.5 21.2812V37.5938C839.5 38.3704 840.13 39 840.906 39H865.094C865.87 39 866.5 38.3704 866.5 37.5938V21.2812C866.5 20.5046 865.87 19.875 865.094 19.875Z" fill="black"/>
<path d="M865.094 20.4375H840.906C840.13 20.4375 839.5 21.0671 839.5 21.8438V38.1562C839.5 38.9329 840.13 39.5625 840.906 39.5625H865.094C865.87 39.5625 866.5 38.9329 866.5 38.1562V21.8438C866.5 21.0671 865.87 20.4375 865.094 20.4375Z" fill="#D32F2F"/>
<path opacity="0.2" d="M867.062 24.375H838.938C838.006 24.375 837.25 25.1305 837.25 26.0625V45.1875C837.25 46.1195 838.006 46.875 838.938 46.875H867.062C867.994 46.875 868.75 46.1195 868.75 45.1875V26.0625C868.75 25.1305 867.994 24.375 867.062 24.375Z" fill="black"/>
<path d="M867.062 23.8125H838.938C838.006 23.8125 837.25 24.568 837.25 25.5V44.625C837.25 45.557 838.006 46.3125 838.938 46.3125H867.062C867.994 46.3125 868.75 45.557 868.75 44.625V25.5C868.75 24.568 867.994 23.8125 867.062 23.8125Z" fill="#8E8E8E"/>
<path opacity="0.2" d="M857.5 33.375H848.5C847.879 33.375 847.375 33.8787 847.375 34.5V35.625C847.375 36.2463 847.879 36.75 848.5 36.75H857.5C858.121 36.75 858.625 36.2463 858.625 35.625V34.5C858.625 33.8787 858.121 33.375 857.5 33.375Z" fill="black"/>
<path d="M857.5 32.8125H848.5C847.879 32.8125 847.375 33.3162 847.375 33.9375V35.0625C847.375 35.6838 847.879 36.1875 848.5 36.1875H857.5C858.121 36.1875 858.625 35.6838 858.625 35.0625V33.9375C858.625 33.3162 858.121 32.8125 857.5 32.8125Z" fill="#ECECEC"/>
<path opacity="0.1" d="M840.906 13.6875C840.127 13.6875 839.5 14.3147 839.5 15.0938V15.6562C839.5 14.8772 840.127 14.25 840.906 14.25H865.094C865.873 14.25 866.5 14.8772 866.5 15.6562V15.0938C866.5 14.3147 865.873 13.6875 865.094 13.6875H840.906Z" fill="white"/>
<path opacity="0.1" d="M840.906 17.0625C840.127 17.0625 839.5 17.6897 839.5 18.4688V19.0312C839.5 18.2522 840.127 17.625 840.906 17.625H865.094C865.873 17.625 866.5 18.2522 866.5 19.0312V18.4688C866.5 17.6897 865.873 17.0625 865.094 17.0625H840.906Z" fill="white"/>
<path opacity="0.1" d="M840.906 20.4375C840.127 20.4375 839.5 21.0647 839.5 21.8438V22.4062C839.5 21.6272 840.127 21 840.906 21H865.094C865.873 21 866.5 21.6272 866.5 22.4062V21.8438C866.5 21.0647 865.873 20.4375 865.094 20.4375H840.906Z" fill="white"/>
</g>
<g filter="url(#filter2_dd)">
<g clip-path="url(#clip0)">
<path opacity="0.2" d="M903.859 43.5V44.625C903.859 45.5599 904.643 46.3125 905.617 46.3125H927.883C928.857 46.3125 929.641 45.5599 929.641 44.625V43.5C929.641 44.4349 928.857 45.1875 927.883 45.1875H905.617C904.643 45.1875 903.859 44.4349 903.859 43.5Z" fill="black"/>
<path d="M929.641 44.0625V15.9375C929.641 15.0026 928.857 14.25 927.883 14.25H905.617C904.643 14.25 903.859 15.0026 903.859 15.9375V44.0625C903.859 44.9974 904.643 45.75 905.617 45.75H927.883C928.857 45.75 929.641 44.9974 929.641 44.0625Z" fill="#E4E4E4"/>
<path opacity="0.1" d="M905.617 14.25C904.643 14.25 903.859 15.0026 903.859 15.9375V16.5C903.859 15.5651 904.643 14.8125 905.617 14.8125H927.883C928.857 14.8125 929.641 15.5651 929.641 16.5V15.9375C929.641 15.0026 928.857 14.25 927.883 14.25H905.617Z" fill="white"/>
<path opacity="0.2" fill-rule="evenodd" clip-rule="evenodd" d="M935.475 37.7902C935.348 40.0895 934.308 42.2545 932.569 43.8399C930.829 45.4253 928.523 46.3104 926.125 46.3132C923.755 46.3132 921.474 45.4517 919.739 43.9022C918.004 42.3527 916.945 40.2301 916.775 37.9612C916.762 38.12 916.754 38.279 916.75 38.4382C916.75 40.8252 917.738 43.1144 919.496 44.8022C921.254 46.49 923.639 47.4382 926.125 47.4382C928.611 47.4382 930.996 46.49 932.754 44.8022C934.512 43.1144 935.5 40.8252 935.5 38.4382C935.5 38.2219 935.491 38.0057 935.475 37.79L935.475 37.7902Z" fill="black"/>
<path d="M926.125 46.875C931.303 46.875 935.5 42.8456 935.5 37.875C935.5 32.9044 931.303 28.875 926.125 28.875C920.947 28.875 916.75 32.9044 916.75 37.875C916.75 42.8456 920.947 46.875 926.125 46.875Z" fill="#FFC107"/>
<path d="M921.438 40.3704V42.3751H923.526L928.8 37.3122L926.711 35.3075L921.438 40.3704ZM930.647 35.5451C930.868 35.3331 930.868 34.999 930.647 34.7869L929.342 33.534C929.121 33.322 928.773 33.322 928.552 33.534L927.461 34.5882L929.549 36.5929L930.647 35.5451Z" fill="white"/>
</g>
</g>
<g filter="url(#filter3_dd)">
<path opacity="0.2" d="M978.214 14.8125C976.468 14.8125 975.064 16.2174 975.064 17.9625V19.4391C973.701 19.9223 972.438 20.6516 971.338 21.5908L970.059 20.8526C968.547 19.98 966.628 20.4948 965.755 22.0061L964.968 23.3689C964.095 24.8802 964.61 26.7999 966.121 27.6724L967.395 28.4076C967.26 29.1181 967.191 29.8394 967.189 30.5625C967.191 31.2856 967.26 32.0069 967.395 32.7174L966.121 33.4526C964.61 34.3251 964.095 36.2448 964.968 37.7561L965.755 39.1189C966.628 40.6302 968.547 41.145 970.059 40.2724L971.329 39.5388C973.467 41.3677 976.188 42.3734 979.001 42.375C981.812 42.3699 984.529 41.3627 986.664 39.5342L987.944 40.2724C989.455 41.145 991.375 40.6302 992.247 39.1189L993.035 37.7561C993.907 36.2448 993.392 34.3251 991.881 33.4526L990.607 32.7174C990.742 32.0069 990.811 31.2856 990.814 30.5625C990.811 29.8394 990.742 29.1181 990.607 28.4076L991.881 27.6724C993.392 26.7999 993.907 24.8802 993.035 23.3689L992.247 22.0061C991.375 20.4948 989.455 19.98 987.944 20.8526L986.673 21.5862C985.57 20.6482 984.304 19.9209 982.939 19.4406V17.9625C982.939 16.2174 981.534 14.8125 979.789 14.8125H978.214Z" fill="black"/>
<path opacity="0.2" d="M979.788 33.7119H978.213C976.473 33.7119 975.062 35.1222 975.062 36.8619V43.1619C975.062 44.9016 976.473 46.3119 978.213 46.3119H979.788C981.527 46.3119 982.938 44.9016 982.938 43.1619V36.8619C982.938 35.1222 981.527 33.7119 979.788 33.7119Z" fill="black"/>
<path d="M978.214 14.25C976.468 14.25 975.064 15.6549 975.064 17.4V18.8766C973.701 19.3598 972.438 20.0891 971.338 21.0283L970.059 20.2901C968.547 19.4175 966.628 19.9323 965.755 21.4436L964.968 22.8064C964.095 24.3177 964.61 26.2374 966.121 27.1099L967.395 27.8451C967.26 28.5556 967.191 29.2769 967.189 30C967.191 30.7231 967.26 31.4444 967.395 32.1549L966.121 32.8901C964.61 33.7626 964.095 35.6823 964.968 37.1936L965.755 38.5564C966.628 40.0677 968.547 40.5825 970.059 39.7099L971.329 38.9763C973.467 40.8052 976.188 41.8109 979.001 41.8125C981.812 41.8074 984.529 40.8002 986.664 38.9717L987.944 39.7099C989.455 40.5825 991.375 40.0677 992.247 38.5564L993.035 37.1936C993.907 35.6823 993.392 33.7626 991.881 32.8901L990.607 32.1549C990.742 31.4444 990.811 30.7231 990.814 30C990.811 29.2769 990.742 28.5556 990.607 27.8451L991.881 27.1099C993.392 26.2374 993.907 24.3177 993.035 22.8064L992.247 21.4436C991.375 19.9323 989.455 19.4175 987.944 20.2901L986.673 21.0237C985.57 20.0857 984.304 19.3584 982.939 18.8781V17.4C982.939 15.6549 981.534 14.25 979.789 14.25H978.214Z" fill="#FF5722"/>
<path d="M979.788 33.1494H978.213C976.473 33.1494 975.062 34.5597 975.062 36.2994V42.5994C975.062 44.3391 976.473 45.7494 978.213 45.7494H979.788C981.527 45.7494 982.938 44.3391 982.938 42.5994V36.2994C982.938 34.5597 981.527 33.1494 979.788 33.1494Z" fill="#E4E4E4"/>
<path opacity="0.4" d="M980.688 36.1883C980.688 35.3184 979.932 34.6133 979 34.6133C978.068 34.6133 977.312 35.3184 977.312 36.1883V42.4883C977.312 43.3581 978.068 44.0633 979 44.0633C979.932 44.0633 980.688 43.3581 980.688 42.4883V36.1883Z" fill="black"/>
<path opacity="0.2" d="M982.375 23.457V28.8755L979 31.1255L975.625 28.8755V23.4647C972.889 24.7637 971.129 27.5193 971.125 30.563C971.125 34.9122 974.651 38.438 979 38.438C983.349 38.438 986.875 34.9122 986.875 30.563C986.873 27.5168 985.114 24.7568 982.375 23.457Z" fill="black"/>
<path d="M982.375 22.8945V28.313L979 30.563L975.625 28.313V22.9022C972.889 24.2012 971.129 26.9568 971.125 30.0005C971.125 34.3497 974.651 37.8755 979 37.8755C983.349 37.8755 986.875 34.3497 986.875 30.0005C986.873 26.9543 985.114 24.1943 982.375 22.8945Z" fill="white"/>
<path opacity="0.1" d="M978.213 14.25C976.468 14.25 975.063 15.6547 975.063 17.3998V17.9623C975.063 16.2172 976.468 14.8125 978.213 14.8125H979.789C981.534 14.8125 982.938 16.2172 982.938 17.9623V17.3998C982.938 15.6547 981.534 14.25 979.789 14.25H978.213ZM975.063 18.8763C973.7 19.3596 972.437 20.0891 971.338 21.0286L970.058 20.2903C968.547 19.4177 966.627 19.9325 965.755 21.4438L964.967 22.8062C964.628 23.394 964.501 24.0437 964.558 24.6694C964.597 24.2252 964.729 23.7816 964.967 23.3687L965.755 22.0063C966.627 20.495 968.547 19.9802 970.058 20.8528L971.338 21.5911C972.437 20.6516 973.7 19.9221 975.063 19.4388V18.8763ZM982.938 18.8785V19.441C984.304 19.9214 985.57 20.6487 986.673 21.5867L987.944 20.8528C989.455 19.9802 991.375 20.495 992.247 22.0063L993.035 23.3687C993.273 23.7816 993.404 24.2252 993.443 24.6694C993.501 24.0437 993.374 23.394 993.035 22.8062L992.247 21.4438C991.375 19.9325 989.455 19.4177 987.944 20.2903L986.673 21.0242C985.57 20.0862 984.304 19.3589 982.938 18.8785ZM990.683 28.3641L990.607 28.4081C990.722 29.034 990.786 29.6681 990.799 30.3043C990.805 30.2029 990.81 30.1015 990.813 30C990.808 29.4523 990.764 28.9057 990.683 28.3641ZM967.322 28.3663C967.24 28.9071 967.195 29.453 967.188 30C967.192 30.0861 967.197 30.1722 967.203 30.2582C967.218 29.6374 967.282 29.0188 967.395 28.4081L967.322 28.3663ZM990.679 32.1962C990.659 32.3703 990.635 32.5439 990.607 32.7169L991.881 33.453C992.805 33.9862 993.353 34.91 993.443 35.8931C993.548 34.7115 992.98 33.5246 991.881 32.8905L990.679 32.1962ZM967.319 32.1984L966.12 32.8905C965.022 33.5246 964.454 34.7115 964.558 35.8931C964.648 34.91 965.197 33.9862 966.12 33.453L967.395 32.7169C967.366 32.5446 967.341 32.3718 967.319 32.1984Z" fill="white"/>
</g>
<g filter="url(#filter4_dd)">
<path opacity="0.2" d="M1027.98 16.5C1027.08 16.5 1026.34 17.1969 1026.34 18.0625V36.8125V43.0625C1026.34 43.9281 1027.08 44.625 1027.98 44.625H1057.52C1058.42 44.625 1059.16 43.9281 1059.16 43.0625V36.8125V18.0625C1059.16 17.1969 1058.42 16.5 1057.52 16.5H1027.98Z" fill="black"/>
<path d="M1027.98 15.9375C1027.08 15.9375 1026.34 16.6344 1026.34 17.5V36.25V42.5C1026.34 43.3656 1027.08 44.0625 1027.98 44.0625H1057.52C1058.42 44.0625 1059.16 43.3656 1059.16 42.5V36.25V17.5C1059.16 16.6344 1058.42 15.9375 1057.52 15.9375H1027.98Z" fill="#4F4F4F"/>
<path opacity="0.2" d="M1059.16 30H1026.34V31.6875H1059.16V30Z" fill="black"/>
<path opacity="0.2" d="M1059.16 19.875H1026.34V21.5625H1059.16V19.875Z" fill="black"/>
<path opacity="0.2" d="M1059.16 26.625H1026.34V28.3125H1059.16V26.625Z" fill="black"/>
<path opacity="0.1" d="M1027.98 15.9375C1027.08 15.9375 1026.34 16.6341 1026.34 17.4998V18.0623C1026.34 17.1966 1027.08 16.5 1027.98 16.5H1057.52C1058.42 16.5 1059.16 17.1966 1059.16 18.0623V17.4998C1059.16 16.6341 1058.42 15.9375 1057.52 15.9375H1027.98Z" fill="white"/>
<path opacity="0.2" d="M1059.16 23.25H1026.34V24.9375H1059.16V23.25Z" fill="black"/>
<path d="M1032.09 21.5625C1037.83 21.5625 1035.91 32.7564 1041.93 32.8125C1045.67 32.8474 1048.73 28.3125 1052.59 28.3125C1056.45 28.3125 1059.16 32.3437 1059.16 32.3437V36.25V42.5C1059.16 43.3656 1058.42 44.0625 1057.52 44.0625H1027.98C1027.08 44.0625 1026.34 43.3656 1026.34 42.5V27.6563C1026.34 27.6563 1027.56 21.5625 1032.09 21.5625Z" fill="#00ACC1"/>
<path opacity="0.2" d="M1032.09 21.5625C1037.83 21.5625 1035.91 32.7564 1041.93 32.8125C1045.67 32.8474 1048.73 28.3125 1052.59 28.3125C1056.45 28.3125 1059.16 32.3434 1059.16 32.3434V32.9059C1059.16 32.9059 1056.45 28.875 1052.59 28.875C1048.73 28.875 1045.67 33.4099 1041.93 33.375C1035.91 33.3189 1037.83 22.125 1032.09 22.125C1027.56 22.125 1026.34 28.2191 1026.34 28.2191V27.6566C1026.34 27.6566 1027.56 21.5625 1032.09 21.5625Z" fill="white"/>
</g>
<g filter="url(#filter5_dd)">
<path opacity="0.2" d="M1089.25 41.8125V42.375C1089.25 43.3099 1090 44.0625 1090.94 44.0625H1119.06C1120 44.0625 1120.75 43.3099 1120.75 42.375V41.8125C1120.75 42.7474 1120 43.5 1119.06 43.5H1090.94C1090 43.5 1089.25 42.7474 1089.25 41.8125Z" fill="black"/>
<path d="M1119.06 16.5H1090.94C1090.01 16.5 1089.25 17.2555 1089.25 18.1875V41.8125C1089.25 42.7445 1090.01 43.5 1090.94 43.5H1119.06C1119.99 43.5 1120.75 42.7445 1120.75 41.8125V18.1875C1120.75 17.2555 1119.99 16.5 1119.06 16.5Z" fill="#4F4F4F"/>
<path opacity="0.1" d="M1090.94 16.5C1090 16.5 1089.25 17.2526 1089.25 18.1875V18.75C1089.25 17.8151 1090 17.0625 1090.94 17.0625H1119.06C1120 17.0625 1120.75 17.8151 1120.75 18.75V18.1875C1120.75 17.2526 1120 16.5 1119.06 16.5H1090.94Z" fill="white"/>
<path opacity="0.2" d="M1093.75 20.4375V21.5625H1093.19C1092.25 21.5625 1091.5 22.3151 1091.5 23.25C1091.5 24.1849 1092.25 24.9375 1093.19 24.9375H1093.75V26.0625H1091.6C1091.84 26.7172 1092.45 27.1875 1093.19 27.1875H1093.75V28.3125H1094.88V27.1875H1095.44C1096.37 27.1875 1097.12 26.4349 1097.12 25.5C1097.12 24.5651 1096.37 23.8125 1095.44 23.8125H1094.88V22.6875H1097.02C1096.79 22.0328 1096.17 21.5625 1095.44 21.5625H1094.88V20.4375H1093.75H1093.75ZM1093.19 22.6875H1093.75V23.8125H1093.19C1092.88 23.8125 1092.62 23.5616 1092.62 23.25C1092.62 22.9384 1092.88 22.6875 1093.19 22.6875ZM1094.88 24.9375H1095.44C1095.75 24.9375 1096 25.1884 1096 25.5C1096 25.8116 1095.75 26.077 1095.44 26.0625H1094.88V24.9375ZM1099.38 27.1875V28.3125H1106.12V27.1875H1099.38Z" fill="black"/>
<path d="M1093.75 19.875V21H1093.19C1092.25 21 1091.5 21.7526 1091.5 22.6875C1091.5 23.6224 1092.25 24.375 1093.19 24.375H1093.75V25.5H1091.6C1091.84 26.1547 1092.45 26.625 1093.19 26.625H1093.75V27.75H1094.88V26.625H1095.44C1096.37 26.625 1097.12 25.8724 1097.12 24.9375C1097.12 24.0026 1096.37 23.25 1095.44 23.25H1094.88V22.125H1097.02C1096.79 21.4703 1096.17 21 1095.44 21H1094.88V19.875H1093.75H1093.75ZM1093.19 22.125H1093.75V23.25H1093.19C1092.88 23.25 1092.62 22.9991 1092.62 22.6875C1092.62 22.3759 1092.88 22.125 1093.19 22.125ZM1094.88 24.375H1095.44C1095.75 24.375 1096 24.6259 1096 24.9375C1096 25.2491 1095.75 25.5145 1095.44 25.5H1094.88V24.375ZM1099.38 26.625V27.75H1106.12V26.625H1099.38Z" fill="white"/>
</g>
<g filter="url(#filter6_dd)">
<g opacity="0.2">
<path opacity="0.2" d="M1168.8 14.5312C1165.83 14.5352 1163.14 16.3329 1161.91 19.1325C1158.82 18.9283 1155.86 20.1866 1154.2 22.4062C1152.58 24.9285 1152.9 28.0346 1155.02 30.2812C1153.49 32.5751 1153.18 35.5637 1154.2 38.1562C1155.91 40.8517 1158.96 42.1466 1161.91 41.4311C1163.14 44.2301 1165.83 46.0268 1168.8 46.0312C1171.77 46.0279 1174.46 44.2307 1175.69 41.4311C1178.91 41.8333 1181.92 40.5536 1183.4 38.1562C1184.94 35.6784 1184.5 32.6049 1182.59 30.279C1182.75 30.0754 1182.91 29.8628 1183.06 29.6417C1183.06 29.6411 1183.06 29.6406 1183.06 29.6394C1183.21 29.4257 1183.34 29.2041 1183.46 28.9762C1183.47 28.9723 1183.47 28.9689 1183.47 28.965C1183.58 28.7535 1183.69 28.5364 1183.78 28.3147C1183.79 28.2973 1183.79 28.2804 1183.8 28.263C1183.88 28.0577 1183.96 27.849 1184.02 27.6369C1184.04 27.6004 1184.05 27.5638 1184.06 27.5273C1184.11 27.3337 1184.16 27.1386 1184.2 26.9417C1184.21 26.8899 1184.22 26.8382 1184.23 26.7864C1184.26 26.6014 1184.28 26.4152 1184.3 26.2284C1184.3 26.1683 1184.31 26.1081 1184.31 26.0484C1184.32 25.869 1184.32 25.6901 1184.32 25.5113C1184.32 25.446 1184.32 25.3808 1184.31 25.3155C1184.3 25.1473 1184.28 24.9802 1184.26 24.8132C1184.25 24.7384 1184.24 24.663 1184.23 24.5882C1184.2 24.4312 1184.16 24.2754 1184.13 24.1213C1184.1 24.0392 1184.08 23.9576 1184.06 23.8761C1184.02 23.7394 1183.97 23.6038 1183.92 23.4699C1183.88 23.3743 1183.84 23.2793 1183.8 23.1853C1183.75 23.0683 1183.7 22.953 1183.64 22.8394C1183.56 22.692 1183.49 22.548 1183.4 22.4062C1183.29 22.2313 1183.17 22.062 1183.05 21.8978C1182.97 21.8055 1182.9 21.7149 1182.82 21.6261C1182.74 21.5293 1182.66 21.4343 1182.57 21.3414C1182.49 21.2604 1182.41 21.1806 1182.32 21.1035C1182.23 21.0113 1182.13 20.9218 1182.03 20.8352C1181.94 20.7615 1181.85 20.6901 1181.75 20.6209C1181.65 20.541 1181.55 20.4639 1181.44 20.3903C1181.33 20.3199 1181.22 20.2524 1181.11 20.1883C1181.01 20.1236 1180.9 20.0623 1180.79 20.0038C1180.67 19.9408 1180.55 19.8812 1180.43 19.8255C1180.32 19.7737 1180.21 19.7248 1180.1 19.6781C1179.97 19.6269 1179.84 19.5791 1179.71 19.5352C1179.59 19.4919 1179.47 19.4514 1179.35 19.4149C1179.22 19.3766 1179.09 19.3429 1178.96 19.3125C1178.84 19.2799 1178.71 19.2506 1178.59 19.2248C1178.45 19.1989 1178.32 19.1769 1178.18 19.1589C1178.05 19.1364 1177.92 19.1179 1177.78 19.1038C1177.55 19.0757 1177.32 19.0594 1177.09 19.0543C1176.63 19.0318 1176.16 19.0577 1175.69 19.1314C1174.46 16.3318 1171.77 14.5346 1168.8 14.5312Z" fill="black"/>
</g>
<path d="M1168.8 42.3182C1176.25 42.3182 1182.29 36.677 1182.29 29.7182C1182.29 22.7594 1176.25 17.1182 1168.8 17.1182C1161.35 17.1182 1155.32 22.7594 1155.32 29.7182C1155.32 36.677 1161.35 42.3182 1168.8 42.3182Z" fill="#278DF2"/>
<path d="M1172.31 19.6432C1176.34 17.4702 1181.31 18.4563 1183.4 21.8437C1185.5 25.2316 1183.92 29.7462 1179.9 31.9192C1175.87 34.0927 1170.9 33.1066 1168.8 29.7187C1166.71 26.3313 1168.28 21.8161 1172.31 19.6432Z" fill="#34E0C4"/>
<path d="M1168.8 45.4688C1172.99 45.4688 1176.39 41.943 1176.39 37.5938C1176.39 33.2445 1172.99 29.7188 1168.8 29.7188C1164.61 29.7188 1161.21 33.2445 1161.21 37.5938C1161.21 41.943 1164.61 45.4688 1168.8 45.4688Z" fill="#FFC107"/>
<path d="M1157.71 27.5181C1161.74 25.3452 1166.71 26.3313 1168.8 29.7192C1170.9 33.1066 1169.33 37.6212 1165.3 39.7947C1161.27 41.9676 1156.3 40.9816 1154.2 37.5936C1152.11 34.2063 1153.68 29.6916 1157.71 27.5181Z" fill="#FB8300"/>
<path d="M1165.3 19.6432C1161.27 17.4702 1156.3 18.4563 1154.2 21.8437C1152.11 25.2316 1153.68 29.7462 1157.71 31.9192C1161.74 34.0927 1166.71 33.106 1168.8 29.7187C1170.9 26.3307 1169.33 21.8161 1165.3 19.6432Z" fill="#FA3E30"/>
<path d="M1168.8 13.9688C1164.61 13.9688 1161.21 17.4945 1161.21 21.8438C1161.21 26.193 1164.61 29.7188 1168.8 29.7188C1167.43 25.8949 1168.94 21.5507 1172.31 19.6427C1173.34 18.9964 1174.5 18.6285 1175.69 18.5694C1174.46 15.7699 1171.77 13.9727 1168.8 13.9688ZM1168.8 29.7188C1172.09 29.7165 1175 27.5177 1176.01 24.2726C1175.78 25.0224 1175.43 25.7312 1174.99 26.3747C1172.43 26.6199 1170.15 27.8529 1168.8 29.7188ZM1176.01 24.2726C1176.08 24.0437 1176.14 23.8119 1176.19 23.5774C1176.14 23.8119 1176.08 24.0437 1176.01 24.2726ZM1175.78 18.7781C1175.88 19.0133 1175.96 19.2529 1176.03 19.4964C1175.96 19.2529 1175.88 19.0133 1175.78 18.7781ZM1176.04 19.5291C1176.1 19.7344 1176.16 19.9419 1176.2 20.1517C1176.16 19.9419 1176.1 19.7344 1176.04 19.5291ZM1176.24 20.3441C1176.27 20.5106 1176.3 20.6788 1176.32 20.847C1176.3 20.6788 1176.27 20.5106 1176.24 20.3441ZM1176.35 21.1609C1176.37 21.3881 1176.39 21.6159 1176.39 21.8438C1176.39 21.6159 1176.37 21.3881 1176.35 21.1609ZM1176.37 22.1914C1176.37 22.3641 1176.35 22.5362 1176.34 22.7083C1176.35 22.5362 1176.37 22.3641 1176.37 22.1914ZM1176.31 22.8894C1176.29 23.0942 1176.25 23.2984 1176.21 23.5003C1176.25 23.2984 1176.29 23.0942 1176.31 22.8894Z" fill="#A544C9"/>
<path d="M1175.11 26.3675C1172.41 26.4384 1170.05 27.6928 1168.8 29.7189C1172.99 29.7189 1176.39 33.2446 1176.39 37.5939C1176.38 38.7245 1176.15 39.8416 1175.69 40.8682C1178.9 41.2704 1181.91 39.9913 1183.4 37.5939C1185.5 34.2037 1183.93 29.6924 1179.89 27.5178C1178.42 26.7247 1176.76 26.3236 1175.11 26.3675Z" fill="#009688"/>
<path d="M1177.09 18.4919C1175.43 18.2787 1173.74 18.6848 1172.31 19.6428C1168.94 21.5508 1167.43 25.8944 1168.8 29.7177C1170.05 27.6922 1172.41 26.4378 1175.11 26.3669C1176.76 26.323 1178.42 26.7241 1179.89 27.5172C1180.98 28.1017 1181.88 28.8565 1182.59 29.7115C1184.11 27.4177 1184.42 24.4325 1183.4 21.8433C1181.96 19.6456 1179.59 18.3862 1177.09 18.4919ZM1168.8 29.7183C1170.23 31.8788 1172.55 33.131 1175 33.0623C1173.63 31.0402 1171.37 29.7183 1168.8 29.7183Z" fill="#03A9F4"/>
<path d="M1168.8 29.7188C1170.14 32.2652 1172.42 33.3683 1175.01 33.0628C1173.63 31.0406 1171.37 29.7188 1168.8 29.7188Z" fill="#FFC107"/>
<g opacity="0.2">
<path opacity="0.2" d="M1168.8 13.9688C1165.83 13.9727 1163.14 15.7699 1161.91 18.57C1158.82 18.3658 1155.86 19.6247 1154.2 21.8438C1153.53 22.9502 1153.22 24.1854 1153.29 25.4274C1153.33 24.3756 1153.64 23.3434 1154.2 22.4062C1155.86 20.1872 1158.82 18.9283 1161.91 19.1325C1163.14 16.3324 1165.83 14.5352 1168.8 14.5312C1171.77 14.5352 1174.46 16.3318 1175.69 19.1314C1176.16 19.0577 1176.62 19.0318 1177.09 19.0543C1177.32 19.0594 1177.55 19.0757 1177.78 19.1038C1177.91 19.1179 1178.05 19.1364 1178.18 19.1589C1178.32 19.1769 1178.45 19.1989 1178.59 19.2248C1178.71 19.2506 1178.84 19.2799 1178.96 19.3125C1179.09 19.3429 1179.22 19.3766 1179.35 19.4149C1179.47 19.4514 1179.59 19.4919 1179.71 19.5352C1179.84 19.5791 1179.97 19.6269 1180.1 19.6781C1180.21 19.7248 1180.32 19.7737 1180.42 19.8255C1180.55 19.8812 1180.67 19.9408 1180.79 20.0038C1180.9 20.0623 1181.01 20.1236 1181.11 20.1883C1181.22 20.2524 1181.33 20.3199 1181.44 20.3903C1181.54 20.4639 1181.65 20.541 1181.75 20.6209C1181.85 20.6901 1181.94 20.7615 1182.03 20.8352C1182.13 20.9218 1182.23 21.0113 1182.32 21.1035C1182.41 21.1806 1182.49 21.2604 1182.57 21.3414C1182.66 21.4343 1182.74 21.5293 1182.82 21.6261C1182.9 21.7149 1182.97 21.8055 1183.05 21.8978C1183.17 22.062 1183.29 22.2313 1183.4 22.4062C1183.49 22.548 1183.56 22.692 1183.64 22.8394C1183.7 22.953 1183.75 23.0683 1183.8 23.1853C1183.84 23.2793 1183.88 23.3743 1183.92 23.4699C1183.97 23.6038 1184.01 23.7394 1184.06 23.8761C1184.08 23.9576 1184.1 24.0392 1184.12 24.1213C1184.16 24.2754 1184.2 24.4312 1184.23 24.5882C1184.24 24.663 1184.25 24.7384 1184.26 24.8132C1184.28 24.9802 1184.3 25.1473 1184.31 25.3155C1184.31 25.3307 1184.31 25.3453 1184.31 25.3605C1184.32 25.2233 1184.32 25.086 1184.32 24.9488C1184.32 24.8835 1184.31 24.8183 1184.31 24.753C1184.3 24.5848 1184.28 24.4177 1184.26 24.2507C1184.25 24.1759 1184.24 24.1005 1184.23 24.0257C1184.2 23.8687 1184.16 23.7129 1184.12 23.5588C1184.1 23.4767 1184.08 23.3951 1184.06 23.3136C1184.01 23.1769 1183.97 23.0413 1183.92 22.9074C1183.88 22.8118 1183.84 22.7168 1183.8 22.6228C1183.75 22.5058 1183.7 22.3905 1183.64 22.2769C1183.56 22.1295 1183.49 21.9855 1183.4 21.8438C1183.29 21.6688 1183.17 21.4995 1183.05 21.3353C1182.97 21.243 1182.9 21.1524 1182.82 21.0636C1182.74 20.9668 1182.66 20.8718 1182.57 20.7789C1182.49 20.6979 1182.41 20.6181 1182.32 20.541C1182.23 20.4488 1182.13 20.3593 1182.03 20.2727C1181.94 20.199 1181.85 20.1276 1181.75 20.0584C1181.65 19.9785 1181.54 19.9014 1181.44 19.8278C1181.33 19.7574 1181.22 19.6899 1181.11 19.6258C1181.01 19.5611 1180.9 19.4998 1180.79 19.4413C1180.67 19.3783 1180.55 19.3187 1180.42 19.263C1180.32 19.2112 1180.21 19.1623 1180.1 19.1156C1179.97 19.0644 1179.84 19.0166 1179.71 18.9727C1179.59 18.9294 1179.47 18.8889 1179.35 18.8524C1179.22 18.8141 1179.09 18.7804 1178.96 18.75C1178.84 18.7174 1178.71 18.6881 1178.59 18.6623C1178.45 18.6364 1178.32 18.6144 1178.18 18.5964C1178.05 18.5739 1177.91 18.5554 1177.78 18.5413C1177.55 18.5132 1177.32 18.4969 1177.09 18.4918C1176.62 18.4693 1176.16 18.4952 1175.69 18.5689C1174.46 15.7693 1171.77 13.9727 1168.8 13.9688ZM1182.8 29.9944C1182.73 30.0911 1182.66 30.1862 1182.58 30.279C1183.65 31.5733 1184.26 33.0994 1184.32 34.6254C1184.4 33.0223 1183.85 31.3905 1182.8 29.9944ZM1154.8 30.0068C1153.86 31.3528 1153.33 32.9829 1153.29 34.6682C1153.44 33.0521 1154.05 31.5233 1155.02 30.2812C1154.94 30.1912 1154.87 30.0996 1154.8 30.0068Z" fill="white"/>
</g>
</g>
<path d="M143 36.6786H147.821V41.5H151.036V33.4643H143V36.6786ZM147.821 23.8214H143V27.0357H151.036V19H147.821V23.8214ZM157.464 41.5H160.679V36.6786H165.5V33.4643H157.464V41.5ZM160.679 23.8214V19H157.464V27.0357H165.5V23.8214H160.679Z" fill="black"/>
<path d="M99.0806 33.1509H98.0643L97.7041 32.8036C98.9648 31.337 99.7238 29.4331 99.7238 27.3619C99.7238 22.7436 95.9803 19 91.3619 19C86.7436 19 83 22.7436 83 27.3619C83 31.9803 86.7436 35.7238 91.3619 35.7238C93.4331 35.7238 95.337 34.9648 96.8036 33.7041L97.1509 34.0643V35.0806L103.583 41.5L105.5 39.5832L99.0806 33.1509ZM91.3619 33.1509C88.1587 33.1509 85.5729 30.5652 85.5729 27.3619C85.5729 24.1587 88.1587 21.5729 91.3619 21.5729C94.5652 21.5729 97.1509 24.1587 97.1509 27.3619C97.1509 30.5652 94.5652 33.1509 91.3619 33.1509Z" fill="black"/>
<path d="M40.4732 42.2768C40.6964 42.5 41.1429 42.5 41.1429 42.5H45.6071C45.6071 42.5 46.0536 42.5 46.2768 42.2768C46.5 42.0536 46.5 41.6071 46.5 41.6071V37.1429C46.5 37.1429 46.5 36.6964 46.2768 36.4732C46.0536 36.25 45.6071 36.25 45.6071 36.25H41.1429C41.1429 36.25 40.6964 36.25 40.4732 36.4732C40.25 36.6964 40.25 37.1429 40.25 37.1429V41.6071C40.25 41.6071 40.25 42.0536 40.4732 42.2768Z" fill="#212121"/>
<path d="M31.0982 36.4732C31.3214 36.25 31.7679 36.25 31.7679 36.25H36.2321C36.2321 36.25 36.6786 36.25 36.9018 36.4732C37.125 36.6964 37.125 37.1429 37.125 37.1429V41.6071C37.125 41.6071 37.125 42.0536 36.9018 42.2768C36.6786 42.5 36.2321 42.5 36.2321 42.5H31.7679C31.7679 42.5 31.3214 42.5 31.0982 42.2768C30.875 42.0536 30.875 41.6071 30.875 41.6071V37.1429C30.875 37.1429 30.875 36.6964 31.0982 36.4732Z" fill="#212121"/>
<path d="M21.7232 36.4732C21.9464 36.25 22.3929 36.25 22.3929 36.25H26.8571C26.8571 36.25 27.3036 36.25 27.5268 36.4732C27.75 36.6964 27.75 37.1429 27.75 37.1429V41.6071C27.75 41.6071 27.75 42.0536 27.5268 42.2768C27.3036 42.5 26.8571 42.5 26.8571 42.5H22.3929C22.3929 42.5 21.9464 42.5 21.7232 42.2768C21.5 42.0536 21.5 41.6071 21.5 41.6071V37.1429C21.5 37.1429 21.5 36.6964 21.7232 36.4732Z" fill="#212121"/>
<path d="M21.7232 27.0982C21.9464 26.875 22.3929 26.875 22.3929 26.875H26.8571C26.8571 26.875 27.3036 26.875 27.5268 27.0982C27.75 27.3214 27.75 27.7679 27.75 27.7679V32.2321C27.75 32.2321 27.75 32.6786 27.5268 32.9018C27.3036 33.125 26.8571 33.125 26.8571 33.125H22.3929C22.3929 33.125 21.9464 33.125 21.7232 32.9018C21.5 32.6786 21.5 32.2321 21.5 32.2321V27.7679C21.5 27.7679 21.5 27.3214 21.7232 27.0982Z" fill="#212121"/>
<path d="M31.0982 27.0982C31.3214 26.875 31.7679 26.875 31.7679 26.875H36.2321C36.2321 26.875 36.6786 26.875 36.9018 27.0982C37.125 27.3214 37.125 27.7679 37.125 27.7679V32.2321C37.125 32.2321 37.125 32.6786 36.9018 32.9018C36.6786 33.125 36.2321 33.125 36.2321 33.125H31.7679C31.7679 33.125 31.3214 33.125 31.0982 32.9018C30.875 32.6786 30.875 32.2321 30.875 32.2321V27.7679C30.875 27.7679 30.875 27.3214 31.0982 27.0982Z" fill="#212121"/>
<path d="M40.4732 27.0982C40.6964 26.875 41.1429 26.875 41.1429 26.875H45.6071C45.6071 26.875 46.0536 26.875 46.2768 27.0982C46.5 27.3214 46.5 27.7679 46.5 27.7679V32.2321C46.5 32.2321 46.5 32.6786 46.2768 32.9018C46.0536 33.125 45.6071 33.125 45.6071 33.125H41.1429C41.1429 33.125 40.6964 33.125 40.4732 32.9018C40.25 32.6786 40.25 32.2321 40.25 32.2321V27.7679C40.25 27.7679 40.25 27.3214 40.4732 27.0982Z" fill="#212121"/>
<path d="M40.4732 17.7232C40.6964 17.5 41.1429 17.5 41.1429 17.5H45.6071C45.6071 17.5 46.0536 17.5 46.2768 17.7232C46.5 17.9464 46.5 18.3929 46.5 18.3929V22.8571C46.5 22.8571 46.5 23.3036 46.2768 23.5268C46.0536 23.75 45.6071 23.75 45.6071 23.75H41.1429C41.1429 23.75 40.6964 23.75 40.4732 23.5268C40.25 23.3036 40.25 22.8571 40.25 22.8571V18.3929C40.25 18.3929 40.25 17.9464 40.4732 17.7232Z" fill="#212121"/>
<path d="M31.0982 17.7232C31.3214 17.5 31.7679 17.5 31.7679 17.5H36.2321C36.2321 17.5 36.6786 17.5 36.9018 17.7232C37.125 17.9464 37.125 18.3929 37.125 18.3929V22.8571C37.125 22.8571 37.125 23.3036 36.9018 23.5268C36.6786 23.75 36.2321 23.75 36.2321 23.75H31.7679C31.7679 23.75 31.3214 23.75 31.0982 23.5268C30.875 23.3036 30.875 22.8571 30.875 22.8571V18.3929C30.875 18.3929 30.875 17.9464 31.0982 17.7232Z" fill="#212121"/>
<path d="M21.7232 17.7232C21.9464 17.5 22.3929 17.5 22.3929 17.5H26.8571C26.8571 17.5 27.3036 17.5 27.5268 17.7232C27.75 17.9464 27.75 18.3929 27.75 18.3929V22.8571C27.75 22.8571 27.75 23.3036 27.5268 23.5268C27.3036 23.75 26.8571 23.75 26.8571 23.75H22.3929C22.3929 23.75 21.9464 23.75 21.7232 23.5268C21.5 23.3036 21.5 22.8571 21.5 22.8571V18.3929C21.5 18.3929 21.5 17.9464 21.7232 17.7232Z" fill="#212121"/>
<path d="M1670.88 23.3848C1670.76 23.29 1670.63 23.2187 1670.49 23.1747C1670.35 23.1308 1670.2 23.1152 1670.05 23.1288C1669.9 23.1424 1669.76 23.1849 1669.63 23.2539C1669.5 23.3229 1669.38 23.4171 1669.29 23.531L1664.52 29.2798C1664.17 29.696 1664.17 30.3035 1664.52 30.7198L1669.29 36.4685C1669.38 36.5824 1669.5 36.6766 1669.63 36.7456C1669.76 36.8146 1669.9 36.8571 1670.05 36.8707C1670.2 36.8843 1670.35 36.8687 1670.49 36.8248C1670.63 36.7809 1670.76 36.7095 1670.88 36.6148C1670.99 36.5203 1671.08 36.4043 1671.15 36.2734C1671.22 36.1425 1671.26 35.9993 1671.28 35.852C1671.29 35.7046 1671.28 35.556 1671.23 35.4147C1671.19 35.2734 1671.12 35.1422 1671.02 35.0285L1666.85 29.9998L1671.02 24.971C1671.12 24.8573 1671.19 24.7261 1671.23 24.5848C1671.28 24.4435 1671.29 24.2949 1671.28 24.1475C1671.26 24.0002 1671.22 23.857 1671.15 23.7261C1671.08 23.5952 1670.99 23.4792 1670.88 23.3848ZM1670.88 31.1248H1673.13V28.8748H1670.88V31.1248ZM1682.13 28.8748H1679.88V31.1248H1682.13V28.8748ZM1675.38 31.1248H1677.63V28.8748H1675.38V31.1248ZM1682.13 23.3848C1682.01 23.4792 1681.92 23.5952 1681.85 23.7261C1681.78 23.857 1681.74 24.0002 1681.72 24.1475C1681.71 24.2949 1681.73 24.4435 1681.77 24.5848C1681.81 24.7261 1681.88 24.8573 1681.98 24.971L1686.15 29.9998L1681.98 35.0285C1681.59 35.5123 1681.65 36.221 1682.13 36.6148C1682.24 36.7095 1682.37 36.7809 1682.51 36.8248C1682.65 36.8687 1682.8 36.8843 1682.95 36.8707C1683.1 36.8571 1683.24 36.8146 1683.37 36.7456C1683.5 36.6766 1683.62 36.5824 1683.71 36.4685L1688.48 30.7198C1688.83 30.3035 1688.83 29.696 1688.48 29.2798L1683.71 23.531C1683.52 23.3035 1683.25 23.1607 1682.95 23.1334C1682.65 23.106 1682.36 23.1963 1682.13 23.3848Z" fill="#212121"/>
<path d="M1714.75 31.1256C1715.37 30.5069 1715.37 29.5056 1714.75 28.8869V28.8756C1714.13 28.2569 1713.12 28.2569 1712.5 28.8756C1711.88 29.4944 1711.88 30.5069 1712.5 31.1256C1713.12 31.7444 1714.13 31.7444 1714.75 31.1256ZM1730.5 28.8756C1730.35 28.7266 1730.18 28.608 1729.99 28.5267C1729.79 28.4454 1729.59 28.4031 1729.38 28.402C1729.17 28.401 1728.96 28.4413 1728.77 28.5206C1728.58 28.6 1728.4 28.7168 1728.25 28.8644V28.8756C1727.63 29.4944 1727.63 30.4956 1728.25 31.1144V31.1256C1728.87 31.7444 1729.87 31.7444 1730.49 31.1256H1730.5C1731.12 30.5069 1731.12 29.4944 1730.5 28.8756ZM1727.13 24.3756L1722.3 19.5494C1721.59 18.8406 1720.38 19.3356 1720.38 20.3369V27.2894L1716 22.9131C1715.9 22.809 1715.77 22.7263 1715.64 22.67C1715.5 22.6136 1715.35 22.5846 1715.21 22.5846C1715.06 22.5846 1714.91 22.6136 1714.78 22.67C1714.64 22.7263 1714.52 22.809 1714.41 22.9131C1714.31 23.0173 1714.23 23.1409 1714.17 23.277C1714.11 23.4131 1714.09 23.5589 1714.09 23.7062C1714.09 23.8535 1714.11 23.9994 1714.17 24.1355C1714.23 24.2716 1714.31 24.3952 1714.41 24.4994L1719.91 30.0006L1714.41 35.5019C1714.31 35.606 1714.23 35.7297 1714.17 35.8657C1714.11 36.0018 1714.09 36.1477 1714.09 36.295C1714.09 36.4423 1714.11 36.5881 1714.17 36.7242C1714.23 36.8603 1714.31 36.984 1714.41 37.0881C1714.52 37.1923 1714.64 37.2749 1714.78 37.3312C1714.91 37.3876 1715.06 37.4166 1715.21 37.4166C1715.35 37.4166 1715.5 37.3876 1715.64 37.3312C1715.77 37.2749 1715.9 37.1923 1716 37.0881L1720.38 32.7119V39.6644C1720.38 40.6656 1721.59 41.1719 1722.3 40.4631L1727.13 35.6256C1727.56 35.1869 1727.56 34.4781 1727.13 34.0281L1723.09 30.0006L1727.13 25.9731C1727.56 25.5344 1727.56 24.8144 1727.13 24.3756ZM1724.74 34.8269L1722.63 36.9419V32.7119L1724.74 34.8269ZM1722.63 27.2894V23.0594L1724.74 25.1744L1722.63 27.2894Z" fill="#212121"/>
<path d="M1779.59 24.375C1779.09 23.9925 1774.05 19.875 1766.5 19.875C1758.94 19.875 1753.91 23.9925 1753.4 24.375L1764.74 38.505C1765.64 39.63 1767.35 39.63 1768.25 38.505L1779.59 24.375Z" fill="#212121" fill-opacity="0.3"/>
<path d="M1756.97 28.8187L1764.75 38.505C1765.65 39.63 1767.36 39.63 1768.26 38.505L1776.03 28.8187C1775.55 28.4475 1771.91 25.5 1766.5 25.5C1761.09 25.5 1757.46 28.4475 1756.97 28.8187Z" fill="#212121"/>
<path d="M1820.5 34.1288L1820.5 32.25L1821.62 32.25C1822.24 32.25 1822.75 31.7438 1822.75 31.125L1822.75 28.875C1822.75 28.2563 1822.24 27.75 1821.62 27.75L1820.5 27.75L1820.5 25.8713C1820.5 25.05 1819.83 24.375 1819 24.375L1816 24.375L1816 35.625L1819 35.625C1819.82 35.625 1820.5 34.95 1820.5 34.1288Z" fill="#212121" fill-opacity="0.3"/>
<path d="M1801.75 24.375C1800.93 24.375 1800.25 25.05 1800.25 25.8712L1800.25 34.1175C1800.25 34.95 1800.92 35.625 1801.75 35.625L1816 35.625L1816 24.375L1801.75 24.375ZM1809.52 27.0638L1815.14 30.0675C1815.65 30.3375 1815.46 31.125 1814.87 31.125L1810.94 31.125L1810.94 32.4413C1810.94 32.8688 1810.49 33.1388 1810.11 32.9363L1804.48 29.9325C1803.97 29.6625 1804.16 28.875 1804.75 28.875L1808.69 28.875L1808.69 27.5588C1808.69 27.1425 1809.14 26.8613 1809.52 27.0638Z" fill="#212121"/>
<path d="M1870.51 26H1862.12V24.8311L1866.55 19.9092C1867.21 19.165 1867.66 18.5615 1867.91 18.0986C1868.16 17.6299 1868.28 17.1465 1868.28 16.6484C1868.28 15.9805 1868.08 15.4326 1867.68 15.0049C1867.27 14.5771 1866.73 14.3633 1866.06 14.3633C1865.25 14.3633 1864.62 14.5947 1864.17 15.0576C1863.72 15.5146 1863.5 16.1533 1863.5 16.9736H1861.88C1861.88 15.7959 1862.25 14.8438 1863.01 14.1172C1863.77 13.3906 1864.79 13.0273 1866.06 13.0273C1867.25 13.0273 1868.19 13.3408 1868.88 13.9678C1869.57 14.5889 1869.92 15.418 1869.92 16.4551C1869.92 17.7148 1869.12 19.2148 1867.51 20.9551L1864.08 24.6729H1870.51V26ZM1874.95 18.8105H1876.18C1876.94 18.7988 1877.55 18.5967 1877.99 18.2041C1878.43 17.8115 1878.64 17.2812 1878.64 16.6133C1878.64 15.1133 1877.9 14.3633 1876.4 14.3633C1875.7 14.3633 1875.14 14.5654 1874.72 14.9697C1874.3 15.3682 1874.09 15.8984 1874.09 16.5605H1872.47C1872.47 15.5469 1872.84 14.7061 1873.57 14.0381C1874.32 13.3643 1875.26 13.0273 1876.4 13.0273C1877.61 13.0273 1878.56 13.3467 1879.24 13.9854C1879.93 14.624 1880.27 15.5117 1880.27 16.6484C1880.27 17.2051 1880.09 17.7441 1879.73 18.2656C1879.37 18.7871 1878.88 19.1768 1878.26 19.4346C1878.96 19.6572 1879.5 20.0264 1879.88 20.542C1880.27 21.0576 1880.46 21.6875 1880.46 22.4316C1880.46 23.5801 1880.09 24.4912 1879.34 25.165C1878.59 25.8389 1877.61 26.1758 1876.41 26.1758C1875.21 26.1758 1874.23 25.8506 1873.48 25.2002C1872.73 24.5498 1872.35 23.6914 1872.35 22.625H1873.99C1873.99 23.2988 1874.21 23.8379 1874.65 24.2422C1875.09 24.6465 1875.67 24.8486 1876.41 24.8486C1877.2 24.8486 1877.8 24.6436 1878.21 24.2334C1878.63 23.8232 1878.84 23.2344 1878.84 22.4668C1878.84 21.7227 1878.61 21.1514 1878.15 20.7529C1877.7 20.3545 1877.04 20.1494 1876.18 20.1377H1874.95V18.8105ZM1883.17 25.1475C1883.17 24.8662 1883.25 24.6318 1883.42 24.4443C1883.59 24.2568 1883.84 24.1631 1884.17 24.1631C1884.51 24.1631 1884.76 24.2568 1884.93 24.4443C1885.1 24.6318 1885.19 24.8662 1885.19 25.1475C1885.19 25.417 1885.1 25.6426 1884.93 25.8242C1884.76 26.0059 1884.51 26.0967 1884.17 26.0967C1883.84 26.0967 1883.59 26.0059 1883.42 25.8242C1883.25 25.6426 1883.17 25.417 1883.17 25.1475ZM1883.18 17.3867C1883.18 17.1055 1883.26 16.8711 1883.43 16.6836C1883.6 16.4961 1883.85 16.4023 1884.18 16.4023C1884.52 16.4023 1884.77 16.4961 1884.94 16.6836C1885.11 16.8711 1885.2 17.1055 1885.2 17.3867C1885.2 17.6562 1885.11 17.8818 1884.94 18.0635C1884.77 18.2451 1884.52 18.3359 1884.18 18.3359C1883.85 18.3359 1883.6 18.2451 1883.43 18.0635C1883.26 17.8818 1883.18 17.6562 1883.18 17.3867ZM1890.14 18.8105H1891.36C1892.13 18.7988 1892.73 18.5967 1893.17 18.2041C1893.61 17.8115 1893.83 17.2812 1893.83 16.6133C1893.83 15.1133 1893.08 14.3633 1891.59 14.3633C1890.89 14.3633 1890.32 14.5654 1889.9 14.9697C1889.49 15.3682 1889.28 15.8984 1889.28 16.5605H1887.65C1887.65 15.5469 1888.02 14.7061 1888.76 14.0381C1889.5 13.3643 1890.45 13.0273 1891.59 13.0273C1892.8 13.0273 1893.74 13.3467 1894.43 13.9854C1895.11 14.624 1895.46 15.5117 1895.46 16.6484C1895.46 17.2051 1895.28 17.7441 1894.91 18.2656C1894.56 18.7871 1894.07 19.1768 1893.44 19.4346C1894.15 19.6572 1894.69 20.0264 1895.07 20.542C1895.46 21.0576 1895.65 21.6875 1895.65 22.4316C1895.65 23.5801 1895.28 24.4912 1894.53 25.165C1893.78 25.8389 1892.8 26.1758 1891.6 26.1758C1890.4 26.1758 1889.42 25.8506 1888.66 25.2002C1887.91 24.5498 1887.54 23.6914 1887.54 22.625H1889.17C1889.17 23.2988 1889.39 23.8379 1889.83 24.2422C1890.27 24.6465 1890.86 24.8486 1891.6 24.8486C1892.38 24.8486 1892.99 24.6436 1893.4 24.2334C1893.82 23.8232 1894.03 23.2344 1894.03 22.4668C1894.03 21.7227 1893.8 21.1514 1893.34 20.7529C1892.88 20.3545 1892.22 20.1494 1891.36 20.1377H1890.14V18.8105ZM1906.51 14.1172L1901.21 26H1899.5L1904.78 14.5391H1897.86V13.2031H1906.51V14.1172ZM1908.83 25.1475C1908.83 24.8662 1908.91 24.6318 1909.07 24.4443C1909.24 24.2568 1909.49 24.1631 1909.83 24.1631C1910.16 24.1631 1910.41 24.2568 1910.58 24.4443C1910.76 24.6318 1910.85 24.8662 1910.85 25.1475C1910.85 25.417 1910.76 25.6426 1910.58 25.8242C1910.41 26.0059 1910.16 26.0967 1909.83 26.0967C1909.49 26.0967 1909.24 26.0059 1909.07 25.8242C1908.91 25.6426 1908.83 25.417 1908.83 25.1475ZM1908.83 17.3867C1908.83 17.1055 1908.92 16.8711 1909.08 16.6836C1909.25 16.4961 1909.5 16.4023 1909.84 16.4023C1910.17 16.4023 1910.42 16.4961 1910.59 16.6836C1910.77 16.8711 1910.86 17.1055 1910.86 17.3867C1910.86 17.6562 1910.77 17.8818 1910.59 18.0635C1910.42 18.2451 1910.17 18.3359 1909.84 18.3359C1909.5 18.3359 1909.25 18.2451 1909.08 18.0635C1908.92 17.8818 1908.83 17.6562 1908.83 17.3867ZM1914.18 19.584L1914.83 13.2031H1921.38V14.7061H1916.21L1915.82 18.1953C1916.45 17.8262 1917.16 17.6416 1917.96 17.6416C1919.12 17.6416 1920.05 18.0283 1920.73 18.8018C1921.42 19.5693 1921.76 20.6094 1921.76 21.9219C1921.76 23.2402 1921.4 24.2803 1920.69 25.042C1919.98 25.7979 1918.99 26.1758 1917.71 26.1758C1916.58 26.1758 1915.66 25.8623 1914.94 25.2354C1914.23 24.6084 1913.82 23.7412 1913.72 22.6338H1915.26C1915.36 23.3662 1915.62 23.9199 1916.04 24.2949C1916.46 24.6641 1917.02 24.8486 1917.71 24.8486C1918.47 24.8486 1919.06 24.5908 1919.49 24.0752C1919.92 23.5596 1920.14 22.8477 1920.14 21.9395C1920.14 21.084 1919.9 20.3984 1919.43 19.8828C1918.97 19.3613 1918.35 19.1006 1917.58 19.1006C1916.87 19.1006 1916.31 19.2559 1915.91 19.5664L1915.48 19.918L1914.18 19.584ZM1930.76 21.7021H1932.54V23.0293H1930.76V26H1929.13V23.0293H1923.3V22.0713L1929.03 13.2031H1930.76V21.7021ZM1925.15 21.7021H1929.13V15.4268L1928.93 15.7783L1925.15 21.7021Z" fill="#212121"/>
<path d="M1859.65 47H1851.27V45.8311L1855.7 40.9092C1856.35 40.165 1856.8 39.5615 1857.05 39.0986C1857.3 38.6299 1857.43 38.1465 1857.43 37.6484C1857.43 36.9805 1857.23 36.4326 1856.82 36.0049C1856.42 35.5771 1855.88 35.3633 1855.21 35.3633C1854.4 35.3633 1853.77 35.5947 1853.32 36.0576C1852.87 36.5146 1852.65 37.1533 1852.65 37.9736H1851.02C1851.02 36.7959 1851.4 35.8438 1852.16 35.1172C1852.92 34.3906 1853.93 34.0273 1855.21 34.0273C1856.39 34.0273 1857.34 34.3408 1858.03 34.9678C1858.72 35.5889 1859.06 36.418 1859.06 37.4551C1859.06 38.7148 1858.26 40.2148 1856.66 41.9551L1853.23 45.6729H1859.65V47ZM1868.12 34.1943V35.5742H1867.82C1866.55 35.5977 1865.54 35.9727 1864.79 36.6992C1864.04 37.4258 1863.61 38.4482 1863.49 39.7666C1864.17 38.9932 1865.09 38.6064 1866.25 38.6064C1867.37 38.6064 1868.25 38.999 1868.92 39.7842C1869.58 40.5693 1869.92 41.583 1869.92 42.8252C1869.92 44.1436 1869.56 45.1982 1868.84 45.9893C1868.12 46.7803 1867.16 47.1758 1865.95 47.1758C1864.73 47.1758 1863.74 46.707 1862.97 45.7695C1862.21 44.8262 1861.83 43.6133 1861.83 42.1309V41.5068C1861.83 39.1514 1862.33 37.3525 1863.33 36.1104C1864.34 34.8623 1865.84 34.2236 1867.83 34.1943H1868.12ZM1865.98 39.96C1865.42 39.96 1864.91 40.127 1864.44 40.4609C1863.97 40.7949 1863.65 41.2139 1863.47 41.7178V42.3154C1863.47 43.3701 1863.7 44.2197 1864.18 44.8643C1864.65 45.5088 1865.24 45.8311 1865.95 45.8311C1866.69 45.8311 1867.26 45.5615 1867.68 45.0225C1868.1 44.4834 1868.31 43.7773 1868.31 42.9043C1868.31 42.0254 1868.1 41.3164 1867.67 40.7773C1867.25 40.2324 1866.68 39.96 1865.98 39.96ZM1872.4 46.1475C1872.4 45.8662 1872.49 45.6318 1872.65 45.4443C1872.82 45.2568 1873.07 45.1631 1873.41 45.1631C1873.74 45.1631 1873.99 45.2568 1874.16 45.4443C1874.34 45.6318 1874.43 45.8662 1874.43 46.1475C1874.43 46.417 1874.34 46.6426 1874.16 46.8242C1873.99 47.0059 1873.74 47.0967 1873.41 47.0967C1873.07 47.0967 1872.82 47.0059 1872.65 46.8242C1872.49 46.6426 1872.4 46.417 1872.4 46.1475ZM1885.33 41.542C1885.33 43.4463 1885.01 44.8613 1884.36 45.7871C1883.71 46.7129 1882.69 47.1758 1881.31 47.1758C1879.94 47.1758 1878.93 46.7246 1878.28 45.8223C1877.62 44.9141 1877.28 43.5605 1877.26 41.7617V39.5908C1877.26 37.71 1877.58 36.3125 1878.23 35.3984C1878.88 34.4844 1879.9 34.0273 1881.29 34.0273C1882.67 34.0273 1883.68 34.4697 1884.33 35.3545C1884.98 36.2334 1885.32 37.5928 1885.33 39.4326V41.542ZM1883.71 39.3184C1883.71 37.9414 1883.51 36.9395 1883.13 36.3125C1882.74 35.6797 1882.13 35.3633 1881.29 35.3633C1880.46 35.3633 1879.85 35.6768 1879.47 36.3037C1879.09 36.9307 1878.89 37.8945 1878.88 39.1953V41.7969C1878.88 43.1797 1879.08 44.2021 1879.48 44.8643C1879.88 45.5205 1880.49 45.8486 1881.31 45.8486C1882.11 45.8486 1882.71 45.5381 1883.09 44.917C1883.48 44.2959 1883.69 43.3174 1883.71 41.9814V39.3184ZM1893.12 47H1891.49V36.1631L1888.21 37.3672V35.8906L1892.86 34.1416H1893.12V47ZM1898.45 46.1475C1898.45 45.8662 1898.53 45.6318 1898.69 45.4443C1898.86 45.2568 1899.11 45.1631 1899.45 45.1631C1899.78 45.1631 1900.03 45.2568 1900.2 45.4443C1900.38 45.6318 1900.47 45.8662 1900.47 46.1475C1900.47 46.417 1900.38 46.6426 1900.2 46.8242C1900.03 47.0059 1899.78 47.0967 1899.45 47.0967C1899.11 47.0967 1898.86 47.0059 1898.69 46.8242C1898.53 46.6426 1898.45 46.417 1898.45 46.1475ZM1911.73 47H1903.35V45.8311L1907.78 40.9092C1908.44 40.165 1908.89 39.5615 1909.13 39.0986C1909.38 38.6299 1909.51 38.1465 1909.51 37.6484C1909.51 36.9805 1909.31 36.4326 1908.9 36.0049C1908.5 35.5771 1907.96 35.3633 1907.29 35.3633C1906.48 35.3633 1905.85 35.5947 1905.4 36.0576C1904.95 36.5146 1904.73 37.1533 1904.73 37.9736H1903.1C1903.1 36.7959 1903.48 35.8438 1904.24 35.1172C1905 34.3906 1906.02 34.0273 1907.29 34.0273C1908.48 34.0273 1909.42 34.3408 1910.11 34.9678C1910.8 35.5889 1911.15 36.418 1911.15 37.4551C1911.15 38.7148 1910.34 40.2148 1908.74 41.9551L1905.31 45.6729H1911.73V47ZM1921.84 41.542C1921.84 43.4463 1921.52 44.8613 1920.87 45.7871C1920.22 46.7129 1919.2 47.1758 1917.82 47.1758C1916.45 47.1758 1915.44 46.7246 1914.78 45.8223C1914.13 44.9141 1913.79 43.5605 1913.76 41.7617V39.5908C1913.76 37.71 1914.09 36.3125 1914.74 35.3984C1915.39 34.4844 1916.41 34.0273 1917.8 34.0273C1919.18 34.0273 1920.19 34.4697 1920.84 35.3545C1921.49 36.2334 1921.82 37.5928 1921.84 39.4326V41.542ZM1920.22 39.3184C1920.22 37.9414 1920.02 36.9395 1919.64 36.3125C1919.25 35.6797 1918.64 35.3633 1917.8 35.3633C1916.97 35.3633 1916.36 35.6768 1915.98 36.3037C1915.6 36.9307 1915.4 37.8945 1915.39 39.1953V41.7969C1915.39 43.1797 1915.59 44.2021 1915.99 44.8643C1916.39 45.5205 1917 45.8486 1917.82 45.8486C1918.62 45.8486 1919.21 45.5381 1919.6 44.917C1919.99 44.2959 1920.2 43.3174 1920.22 41.9814V39.3184ZM1932.67 47H1924.28V45.8311L1928.71 40.9092C1929.37 40.165 1929.82 39.5615 1930.07 39.0986C1930.32 38.6299 1930.45 38.1465 1930.45 37.6484C1930.45 36.9805 1930.24 36.4326 1929.84 36.0049C1929.43 35.5771 1928.9 35.3633 1928.22 35.3633C1927.41 35.3633 1926.78 35.5947 1926.33 36.0576C1925.89 36.5146 1925.66 37.1533 1925.66 37.9736H1924.04C1924.04 36.7959 1924.42 35.8438 1925.17 35.1172C1925.93 34.3906 1926.95 34.0273 1928.22 34.0273C1929.41 34.0273 1930.35 34.3408 1931.04 34.9678C1931.73 35.5889 1932.08 36.418 1932.08 37.4551C1932.08 38.7148 1931.28 40.2148 1929.67 41.9551L1926.24 45.6729H1932.67V47ZM1940.1 47H1938.46V36.1631L1935.18 37.3672V35.8906L1939.84 34.1416H1940.1V47Z" fill="#212121" fill-opacity="0.75"/>
<defs>
<filter id="filter0_dd" x="750.625" y="-6.6" width="78.75" height="78.75" filterUnits="userSpaceOnUse" color-interpolation-filters="sRGB">
<feFlood flood-opacity="0" result="BackgroundImageFix"/>
<feColorMatrix in="SourceAlpha" type="matrix" values="0 0 0 0 0 0 0 0 0 0 0 0 0 0 0 0 0 0 127 0" result="hardAlpha"/>
<feOffset dy="2.775"/>
<feGaussianBlur stdDeviation="4.6875"/>
<feColorMatrix type="matrix" values="0 0 0 0 0 0 0 0 0 0 0 0 0 0 0 0 0 0 0.19 0"/>
<feBlend mode="normal" in2="BackgroundImageFix" result="effect1_dropShadow"/>
<feColorMatrix in="SourceAlpha" type="matrix" values="0 0 0 0 0 0 0 0 0 0 0 0 0 0 0 0 0 0 127 0" result="hardAlpha"/>
<feOffset dy="0.75"/>
<feGaussianBlur stdDeviation="1.3125"/>
<feColorMatrix type="matrix" values="0 0 0 0 0 0 0 0 0 0 0 0 0 0 0 0 0 0 0.039 0"/>
<feBlend mode="normal" in2="effect1_dropShadow" result="effect2_dropShadow"/>
<feBlend mode="normal" in="SourceGraphic" in2="effect2_dropShadow" result="shape"/>
</filter>
<filter id="filter1_dd" x="813.625" y="-6.6" width="78.75" height="78.75" filterUnits="userSpaceOnUse" color-interpolation-filters="sRGB">
<feFlood flood-opacity="0" result="BackgroundImageFix"/>
<feColorMatrix in="SourceAlpha" type="matrix" values="0 0 0 0 0 0 0 0 0 0 0 0 0 0 0 0 0 0 127 0" result="hardAlpha"/>
<feOffset dy="2.775"/>
<feGaussianBlur stdDeviation="4.6875"/>
<feColorMatrix type="matrix" values="0 0 0 0 0 0 0 0 0 0 0 0 0 0 0 0 0 0 0.19 0"/>
<feBlend mode="normal" in2="BackgroundImageFix" result="effect1_dropShadow"/>
<feColorMatrix in="SourceAlpha" type="matrix" values="0 0 0 0 0 0 0 0 0 0 0 0 0 0 0 0 0 0 127 0" result="hardAlpha"/>
<feOffset dy="0.75"/>
<feGaussianBlur stdDeviation="1.3125"/>
<feColorMatrix type="matrix" values="0 0 0 0 0 0 0 0 0 0 0 0 0 0 0 0 0 0 0.039 0"/>
<feBlend mode="normal" in2="effect1_dropShadow" result="effect2_dropShadow"/>
<feBlend mode="normal" in="SourceGraphic" in2="effect2_dropShadow" result="shape"/>
</filter>
<filter id="filter2_dd" x="876.625" y="-6.6" width="78.75" height="78.75" filterUnits="userSpaceOnUse" color-interpolation-filters="sRGB">
<feFlood flood-opacity="0" result="BackgroundImageFix"/>
<feColorMatrix in="SourceAlpha" type="matrix" values="0 0 0 0 0 0 0 0 0 0 0 0 0 0 0 0 0 0 127 0" result="hardAlpha"/>
<feOffset dy="2.775"/>
<feGaussianBlur stdDeviation="4.6875"/>
<feColorMatrix type="matrix" values="0 0 0 0 0 0 0 0 0 0 0 0 0 0 0 0 0 0 0.19 0"/>
<feBlend mode="normal" in2="BackgroundImageFix" result="effect1_dropShadow"/>
<feColorMatrix in="SourceAlpha" type="matrix" values="0 0 0 0 0 0 0 0 0 0 0 0 0 0 0 0 0 0 127 0" result="hardAlpha"/>
<feOffset dy="0.75"/>
<feGaussianBlur stdDeviation="1.3125"/>
<feColorMatrix type="matrix" values="0 0 0 0 0 0 0 0 0 0 0 0 0 0 0 0 0 0 0.039 0"/>
<feBlend mode="normal" in2="effect1_dropShadow" result="effect2_dropShadow"/>
<feBlend mode="normal" in="SourceGraphic" in2="effect2_dropShadow" result="shape"/>
</filter>
<filter id="filter3_dd" x="939.625" y="-6.6" width="78.75" height="78.75" filterUnits="userSpaceOnUse" color-interpolation-filters="sRGB">
<feFlood flood-opacity="0" result="BackgroundImageFix"/>
<feColorMatrix in="SourceAlpha" type="matrix" values="0 0 0 0 0 0 0 0 0 0 0 0 0 0 0 0 0 0 127 0" result="hardAlpha"/>
<feOffset dy="2.775"/>
<feGaussianBlur stdDeviation="4.6875"/>
<feColorMatrix type="matrix" values="0 0 0 0 0 0 0 0 0 0 0 0 0 0 0 0 0 0 0.19 0"/>
<feBlend mode="normal" in2="BackgroundImageFix" result="effect1_dropShadow"/>
<feColorMatrix in="SourceAlpha" type="matrix" values="0 0 0 0 0 0 0 0 0 0 0 0 0 0 0 0 0 0 127 0" result="hardAlpha"/>
<feOffset dy="0.75"/>
<feGaussianBlur stdDeviation="1.3125"/>
<feColorMatrix type="matrix" values="0 0 0 0 0 0 0 0 0 0 0 0 0 0 0 0 0 0 0.039 0"/>
<feBlend mode="normal" in2="effect1_dropShadow" result="effect2_dropShadow"/>
<feBlend mode="normal" in="SourceGraphic" in2="effect2_dropShadow" result="shape"/>
</filter>
<filter id="filter4_dd" x="1002.62" y="-6.6" width="78.75" height="78.75" filterUnits="userSpaceOnUse" color-interpolation-filters="sRGB">
<feFlood flood-opacity="0" result="BackgroundImageFix"/>
<feColorMatrix in="SourceAlpha" type="matrix" values="0 0 0 0 0 0 0 0 0 0 0 0 0 0 0 0 0 0 127 0" result="hardAlpha"/>
<feOffset dy="2.775"/>
<feGaussianBlur stdDeviation="4.6875"/>
<feColorMatrix type="matrix" values="0 0 0 0 0 0 0 0 0 0 0 0 0 0 0 0 0 0 0.19 0"/>
<feBlend mode="normal" in2="BackgroundImageFix" result="effect1_dropShadow"/>
<feColorMatrix in="SourceAlpha" type="matrix" values="0 0 0 0 0 0 0 0 0 0 0 0 0 0 0 0 0 0 127 0" result="hardAlpha"/>
<feOffset dy="0.75"/>
<feGaussianBlur stdDeviation="1.3125"/>
<feColorMatrix type="matrix" values="0 0 0 0 0 0 0 0 0 0 0 0 0 0 0 0 0 0 0.039 0"/>
<feBlend mode="normal" in2="effect1_dropShadow" result="effect2_dropShadow"/>
<feBlend mode="normal" in="SourceGraphic" in2="effect2_dropShadow" result="shape"/>
</filter>
<filter id="filter5_dd" x="1065.62" y="-6.6" width="78.75" height="78.75" filterUnits="userSpaceOnUse" color-interpolation-filters="sRGB">
<feFlood flood-opacity="0" result="BackgroundImageFix"/>
<feColorMatrix in="SourceAlpha" type="matrix" values="0 0 0 0 0 0 0 0 0 0 0 0 0 0 0 0 0 0 127 0" result="hardAlpha"/>
<feOffset dy="2.775"/>
<feGaussianBlur stdDeviation="4.6875"/>
<feColorMatrix type="matrix" values="0 0 0 0 0 0 0 0 0 0 0 0 0 0 0 0 0 0 0.19 0"/>
<feBlend mode="normal" in2="BackgroundImageFix" result="effect1_dropShadow"/>
<feColorMatrix in="SourceAlpha" type="matrix" values="0 0 0 0 0 0 0 0 0 0 0 0 0 0 0 0 0 0 127 0" result="hardAlpha"/>
<feOffset dy="0.75"/>
<feGaussianBlur stdDeviation="1.3125"/>
<feColorMatrix type="matrix" values="0 0 0 0 0 0 0 0 0 0 0 0 0 0 0 0 0 0 0.039 0"/>
<feBlend mode="normal" in2="effect1_dropShadow" result="effect2_dropShadow"/>
<feBlend mode="normal" in="SourceGraphic" in2="effect2_dropShadow" result="shape"/>
</filter>
<filter id="filter6_dd" x="1128.62" y="-6.6" width="78.75" height="78.75" filterUnits="userSpaceOnUse" color-interpolation-filters="sRGB">
<feFlood flood-opacity="0" result="BackgroundImageFix"/>
<feColorMatrix in="SourceAlpha" type="matrix" values="0 0 0 0 0 0 0 0 0 0 0 0 0 0 0 0 0 0 127 0" result="hardAlpha"/>
<feOffset dy="2.775"/>
<feGaussianBlur stdDeviation="4.6875"/>
<feColorMatrix type="matrix" values="0 0 0 0 0 0 0 0 0 0 0 0 0 0 0 0 0 0 0.19 0"/>
<feBlend mode="normal" in2="BackgroundImageFix" result="effect1_dropShadow"/>
<feColorMatrix in="SourceAlpha" type="matrix" values="0 0 0 0 0 0 0 0 0 0 0 0 0 0 0 0 0 0 127 0" result="hardAlpha"/>
<feOffset dy="0.75"/>
<feGaussianBlur stdDeviation="1.3125"/>
<feColorMatrix type="matrix" values="0 0 0 0 0 0 0 0 0 0 0 0 0 0 0 0 0 0 0.039 0"/>
<feBlend mode="normal" in2="effect1_dropShadow" result="effect2_dropShadow"/>
<feBlend mode="normal" in="SourceGraphic" in2="effect2_dropShadow" result="shape"/>
</filter>
<clipPath id="clip0">
<rect width="37.5" height="36" fill="white" transform="translate(898 12)"/>
</clipPath>
</defs>
</svg>
