<svg width="1001" height="638" viewBox="0 0 1001 638" fill="none" xmlns="http://www.w3.org/2000/svg">
<g clip-path="url(#clip0)" filter="url(#filter0_d)">
<g filter="url(#filter1_i)">
<path d="M29 37.6539C29 32.8745 32.8745 29 37.6538 29H963.346C968.125 29 972 32.8745 972 37.6538V75.1539H29V37.6539Z" fill="#FFA000"/>
<path d="M466.941 47.2425H462.986V58.2119H461.371V47.2425H457.425V45.9072H466.941V47.2425ZM471.817 58.3809C470.577 58.3809 469.569 57.9753 468.791 57.164C468.014 56.3471 467.625 55.2569 467.625 53.8934V53.6061C467.625 52.699 467.797 51.8906 468.14 51.1807C468.49 50.4651 468.974 49.9074 469.594 49.5074C470.219 49.1017 470.895 48.8989 471.622 48.8989C472.811 48.8989 473.735 49.2905 474.394 50.0736C475.053 50.8567 475.383 51.9779 475.383 53.4371V54.0878H469.188C469.211 54.9893 469.473 55.7189 469.974 56.2766C470.481 56.8288 471.124 57.1048 471.901 57.1048C472.453 57.1048 472.921 56.9921 473.304 56.7668C473.687 56.5414 474.022 56.2428 474.31 55.871L475.265 56.6147C474.498 57.7922 473.349 58.3809 471.817 58.3809ZM471.622 50.1834C470.991 50.1834 470.462 50.4144 470.033 50.8764C469.605 51.3328 469.34 51.9751 469.239 52.8033H473.819V52.6849C473.774 51.8906 473.56 51.2764 473.177 50.8426C472.794 50.4032 472.276 50.1834 471.622 50.1834ZM480.614 52.4061L482.642 49.0679H484.467L481.476 53.5892L484.56 58.2119H482.752L480.639 54.7893L478.526 58.2119H476.709L479.794 53.5892L476.802 49.0679H478.611L480.614 52.4061ZM488.6 46.8537V49.0679H490.307V50.2764H488.6V55.947C488.6 56.3133 488.676 56.5893 488.828 56.7752C488.98 56.9555 489.239 57.0457 489.605 57.0457C489.786 57.0457 490.033 57.0119 490.349 56.9443V58.2119C489.938 58.3246 489.538 58.3809 489.149 58.3809C488.45 58.3809 487.923 58.1697 487.569 57.7471C487.214 57.3246 487.036 56.7245 487.036 55.947V50.2764H485.371V49.0679H487.036V46.8537H488.6ZM504.326 52.5244H498.994V56.8851H505.188V58.2119H497.371V45.9072H505.104V47.2425H498.994V51.1976H504.326V52.5244ZM506.76 53.5639C506.76 52.161 507.092 51.0342 507.757 50.1834C508.422 49.3271 509.292 48.8989 510.368 48.8989C511.439 48.8989 512.287 49.2651 512.912 49.9975V45.2311H514.476V58.2119H513.039L512.963 57.2316C512.337 57.9978 511.467 58.3809 510.352 58.3809C509.292 58.3809 508.427 57.9471 507.757 57.0795C507.092 56.2118 506.76 55.0794 506.76 53.6822V53.5639ZM508.323 53.7413C508.323 54.778 508.537 55.5893 508.966 56.1752C509.394 56.7612 509.985 57.0541 510.74 57.0541C511.732 57.0541 512.456 56.609 512.912 55.7189V51.5187C512.445 50.6567 511.726 50.2257 510.757 50.2257C509.991 50.2257 509.394 50.5215 508.966 51.1131C508.537 51.7046 508.323 52.5807 508.323 53.7413ZM518.954 58.2119H517.391V49.0679H518.954V58.2119ZM517.264 46.6425C517.264 46.3889 517.34 46.1748 517.492 46.0002C517.65 45.8255 517.881 45.7382 518.185 45.7382C518.49 45.7382 518.72 45.8255 518.878 46.0002C519.036 46.1748 519.115 46.3889 519.115 46.6425C519.115 46.896 519.036 47.1073 518.878 47.2763C518.72 47.4453 518.49 47.5298 518.185 47.5298C517.881 47.5298 517.65 47.4453 517.492 47.2763C517.34 47.1073 517.264 46.896 517.264 46.6425ZM523.932 46.8537V49.0679H525.639V50.2764H523.932V55.947C523.932 56.3133 524.008 56.5893 524.16 56.7752C524.312 56.9555 524.571 57.0457 524.937 57.0457C525.118 57.0457 525.365 57.0119 525.681 56.9443V58.2119C525.27 58.3246 524.87 58.3809 524.481 58.3809C523.782 58.3809 523.256 58.1697 522.901 57.7471C522.546 57.3246 522.368 56.7245 522.368 55.947V50.2764H520.703V49.0679H522.368V46.8537H523.932ZM527.236 53.5554C527.236 52.6596 527.41 51.8539 527.76 51.1384C528.115 50.4229 528.605 49.8708 529.23 49.482C529.861 49.0933 530.579 48.8989 531.385 48.8989C532.63 48.8989 533.636 49.3299 534.402 50.1919C535.174 51.0539 535.56 52.2004 535.56 53.6315V53.7413C535.56 54.6315 535.388 55.4315 535.044 56.1414C534.706 56.8457 534.219 57.395 533.582 57.7894C532.951 58.1837 532.225 58.3809 531.402 58.3809C530.162 58.3809 529.157 57.9499 528.385 57.0879C527.619 56.2259 527.236 55.085 527.236 53.6653V53.5554ZM528.808 53.7413C528.808 54.7554 529.041 55.5696 529.509 56.1837C529.982 56.7978 530.613 57.1048 531.402 57.1048C532.196 57.1048 532.827 56.795 533.295 56.1752C533.763 55.5498 533.996 54.6766 533.996 53.5554C533.996 52.5525 533.757 51.7412 533.278 51.1215C532.805 50.4961 532.174 50.1834 531.385 50.1834C530.613 50.1834 529.991 50.4905 529.517 51.1046C529.044 51.7187 528.808 52.5976 528.808 53.7413ZM542.287 50.4708C542.05 50.4313 541.794 50.4116 541.518 50.4116C540.492 50.4116 539.796 50.8483 539.43 51.7215V58.2119H537.867V49.0679H539.388L539.413 50.1243C539.926 49.3074 540.653 48.8989 541.594 48.8989C541.898 48.8989 542.129 48.9383 542.287 49.0172V50.4708Z" fill="white"/>
<path d="M874.731 58.2705H884.346C884.875 58.2705 885.308 58.7032 885.308 59.232C885.308 59.7609 884.875 60.1936 884.346 60.1936H874.731C874.202 60.1936 873.77 59.7609 873.77 59.232C873.77 58.7032 874.202 58.2705 874.731 58.2705Z" fill="white"/>
<path d="M919.921 43.8477H908.382C907.324 43.8477 906.459 44.713 906.459 45.7707V57.3092C906.459 58.3669 907.324 59.2323 908.382 59.2323H919.921C920.978 59.2323 921.844 58.3669 921.844 57.3092V45.7707C921.844 44.713 920.978 43.8477 919.921 43.8477ZM918.959 57.3092H909.344C908.815 57.3092 908.382 56.8765 908.382 56.3477V46.7323C908.382 46.2034 908.815 45.7707 909.344 45.7707H918.959C919.488 45.7707 919.921 46.2034 919.921 46.7323V56.3477C919.921 56.8765 919.488 57.3092 918.959 57.3092Z" fill="white"/>
<path d="M954.828 45.4906C954.739 45.4015 954.633 45.3307 954.517 45.2825C954.401 45.2342 954.276 45.2094 954.15 45.2094C954.024 45.2094 953.899 45.2342 953.783 45.2825C953.667 45.3307 953.561 45.4015 953.472 45.4906L948.77 50.1829L944.068 45.481C943.979 45.392 943.873 45.3213 943.757 45.2732C943.641 45.225 943.516 45.2002 943.39 45.2002C943.264 45.2002 943.14 45.225 943.023 45.2732C942.907 45.3213 942.801 45.392 942.712 45.481C942.623 45.57 942.553 45.6757 942.505 45.792C942.456 45.9083 942.432 46.033 942.432 46.1589C942.432 46.2848 942.456 46.4094 942.505 46.5257C942.553 46.642 942.623 46.7477 942.712 46.8368L947.414 51.5387L942.712 56.2406C942.623 56.3296 942.553 56.4353 942.505 56.5516C942.456 56.6679 942.432 56.7926 942.432 56.9185C942.432 57.0444 942.456 57.169 942.505 57.2854C942.553 57.4017 942.623 57.5073 942.712 57.5964C942.801 57.6854 942.907 57.756 943.023 57.8042C943.14 57.8524 943.264 57.8772 943.39 57.8772C943.516 57.8772 943.641 57.8524 943.757 57.8042C943.873 57.756 943.979 57.6854 944.068 57.5964L948.77 52.8944L953.472 57.5964C953.561 57.6854 953.667 57.756 953.783 57.8042C953.899 57.8524 954.024 57.8772 954.15 57.8772C954.276 57.8772 954.4 57.8524 954.517 57.8042C954.633 57.756 954.739 57.6854 954.828 57.5964C954.917 57.5073 954.987 57.4017 955.036 57.2854C955.084 57.169 955.109 57.0444 955.109 56.9185C955.109 56.7926 955.084 56.6679 955.036 56.5516C954.987 56.4353 954.917 56.3296 954.828 56.2406L950.126 51.5387L954.828 46.8368C955.193 46.4714 955.193 45.856 954.828 45.4906Z" fill="white"/>
<g clip-path="url(#clip1)">
<path opacity="0.2" d="M41.7578 60.1953V60.9166C41.7578 61.5159 42.2604 61.9984 42.8848 61.9984H57.1595C57.7838 61.9984 58.2865 61.5159 58.2865 60.9166V60.1953C58.2865 60.7947 57.7838 61.2772 57.1595 61.2772H42.8848C42.2604 61.2772 41.7578 60.7947 41.7578 60.1953Z" fill="black"/>
<path d="M58.2865 60.5556V42.5243C58.2865 41.9249 57.7838 41.4424 57.1595 41.4424H42.8848C42.2604 41.4424 41.7578 41.9249 41.7578 42.5243V60.5556C41.7578 61.155 42.2604 61.6375 42.8848 61.6375H57.1595C57.7838 61.6375 58.2865 61.155 58.2865 60.5556Z" fill="#E4E4E4"/>
<path opacity="0.1" d="M42.8848 41.4424C42.2604 41.4424 41.7578 41.9249 41.7578 42.5242V42.8849C41.7578 42.2855 42.2604 41.803 42.8848 41.803H57.1595C57.7838 41.803 58.2865 42.2855 58.2865 42.8849V42.5242C58.2865 41.9249 57.7838 41.4424 57.1595 41.4424H42.8848Z" fill="white"/>
<path opacity="0.2" fill-rule="evenodd" clip-rule="evenodd" d="M62.0247 56.5333C61.9432 58.0074 61.2763 59.3954 60.1612 60.4118C59.0461 61.4282 57.5677 61.9957 56.03 61.9975C54.5109 61.9975 53.0481 61.4452 51.9359 60.4518C50.8238 59.4584 50.1447 58.0975 50.0353 56.643C50.0272 56.7447 50.022 56.8467 50.0195 56.9488C50.0195 58.4791 50.6528 59.9467 51.78 61.0288C52.9071 62.1109 54.4359 62.7188 56.03 62.7188C57.6241 62.7188 59.1529 62.1109 60.2801 61.0288C61.4072 59.9467 62.0405 58.4791 62.0405 56.9488C62.0403 56.8101 62.0349 56.6715 62.0244 56.5332L62.0247 56.5333Z" fill="black"/>
<path d="M56.03 62.3584C59.3495 62.3584 62.0405 59.775 62.0405 56.5884C62.0405 53.4017 59.3495 50.8184 56.03 50.8184C52.7105 50.8184 50.0195 53.4017 50.0195 56.5884C50.0195 59.775 52.7105 62.3584 56.03 62.3584Z" fill="#FFC107"/>
<path d="M53.0273 58.1889V59.4742H54.3661L57.7472 56.2283L56.4084 54.9431L53.0273 58.1889ZM58.9314 55.0954C59.073 54.9595 59.073 54.7453 58.9314 54.6093L58.0947 53.8061C57.9531 53.6701 57.73 53.6701 57.5884 53.8061L56.8889 54.4819L58.2277 55.7671L58.9314 55.0954Z" fill="white"/>
</g>
</g>
<path d="M29 75H972V600.346C972 605.126 968.126 609 963.346 609H37.6539C32.8745 609 29 605.126 29 600.346V75Z" fill="white"/>
<path d="M29 145H268V609H37.65C32.8727 609 29 605.127 29 600.35V145Z" fill="#F0F0F0"/>
<g filter="url(#filter2_d)">
<rect x="29" y="75" width="943" height="70" fill="#FFC107"/>
</g>
</g>
<defs>
<filter id="filter0_d" x="0.153847" y="0.153847" width="1000.69" height="637.692" filterUnits="userSpaceOnUse" color-interpolation-filters="sRGB">
<feFlood flood-opacity="0" result="BackgroundImageFix"/>
<feColorMatrix in="SourceAlpha" type="matrix" values="0 0 0 0 0 0 0 0 0 0 0 0 0 0 0 0 0 0 127 0" result="hardAlpha"/>
<feOffset/>
<feGaussianBlur stdDeviation="14.4231"/>
<feColorMatrix type="matrix" values="0 0 0 0 0 0 0 0 0 0 0 0 0 0 0 0 0 0 0.5 0"/>
<feBlend mode="normal" in2="BackgroundImageFix" result="effect1_dropShadow"/>
<feBlend mode="normal" in="SourceGraphic" in2="effect1_dropShadow" result="shape"/>
</filter>
<filter id="filter1_i" x="29" y="29" width="943" height="46.1539" filterUnits="userSpaceOnUse" color-interpolation-filters="sRGB">
<feFlood flood-opacity="0" result="BackgroundImageFix"/>
<feBlend mode="normal" in="SourceGraphic" in2="BackgroundImageFix" result="shape"/>
<feColorMatrix in="SourceAlpha" type="matrix" values="0 0 0 0 0 0 0 0 0 0 0 0 0 0 0 0 0 0 127 0" result="hardAlpha"/>
<feOffset/>
<feGaussianBlur stdDeviation="1.44231"/>
<feComposite in2="hardAlpha" operator="arithmetic" k2="-1" k3="1"/>
<feColorMatrix type="matrix" values="0 0 0 0 0 0 0 0 0 0 0 0 0 0 0 0 0 0 0.15 0"/>
<feBlend mode="normal" in2="shape" result="effect1_innerShadow"/>
</filter>
<filter id="filter2_d" x="24" y="74" width="953" height="80" filterUnits="userSpaceOnUse" color-interpolation-filters="sRGB">
<feFlood flood-opacity="0" result="BackgroundImageFix"/>
<feColorMatrix in="SourceAlpha" type="matrix" values="0 0 0 0 0 0 0 0 0 0 0 0 0 0 0 0 0 0 127 0" result="hardAlpha"/>
<feOffset dy="4"/>
<feGaussianBlur stdDeviation="2.5"/>
<feColorMatrix type="matrix" values="0 0 0 0 0 0 0 0 0 0 0 0 0 0 0 0 0 0 0.15 0"/>
<feBlend mode="normal" in2="BackgroundImageFix" result="effect1_dropShadow"/>
<feBlend mode="normal" in="SourceGraphic" in2="effect1_dropShadow" result="shape"/>
</filter>
<clipPath id="clip0">
<rect width="943" height="580" fill="white" transform="translate(29 29)"/>
</clipPath>
<clipPath id="clip1">
<rect width="24.0417" height="23.08" fill="white" transform="translate(38 40)"/>
</clipPath>
</defs>
</svg>
