<svg height="1280pt" viewBox="0 0 1920 1280" width="1920pt" xmlns="http://www.w3.org/2000/svg" xmlns:xlink="http://www.w3.org/1999/xlink"><clipPath id="a"><path d="m0 0h1920v1280h-1920z"/></clipPath><linearGradient id="b"><stop offset="0" stop-color="#e64a19"/><stop offset="1" stop-color="#c62828"/></linearGradient><linearGradient id="c" gradientTransform="matrix(1057.351 0 0 736 -202.351 544)" gradientUnits="userSpaceOnUse" x1=".203898" x2="1.053387" xlink:href="#b" y1=".415292" y2="1.008996"/><linearGradient id="d" gradientTransform="matrix(879.055 0 0 617 -379.055 663)" gradientUnits="userSpaceOnUse" x1=".203898" x2="1.053387" xlink:href="#b" y1=".415292" y2="1.008996"/><linearGradient id="e" gradientTransform="matrix(718 0 0 681 156 599)" gradientUnits="userSpaceOnUse" x1=".508346" x2=".628858" xlink:href="#b" y1=".147416" y2="1.013422"/><linearGradient id="f" gradientTransform="matrix(1057.351 0 0 736 1224.649 544)" gradientUnits="userSpaceOnUse" x1=".203898" x2="1.053387" xlink:href="#b" y1=".415292" y2="1.008996"/><linearGradient id="g" gradientTransform="matrix(1454.423 0 0 961 213 319)" gradientUnits="userSpaceOnUse" x1=".203898" x2="1.053387" xlink:href="#b" y1=".415292" y2="1.008996"/><linearGradient id="h" gradientTransform="matrix(1234.055 0 0 859 678.296 421)" gradientUnits="userSpaceOnUse" x1=".203898" x2="1.053387" xlink:href="#b" y1=".415292" y2="1.008996"/><linearGradient id="i" gradientTransform="matrix(1057.351 0 0 736 368 832.5)" gradientUnits="userSpaceOnUse" x1=".203898" x2="1.053387" xlink:href="#b" y1=".415292" y2="1.008996"/><linearGradient id="j" gradientTransform="matrix(1057.351 0 0 736 855 897.5)" gradientUnits="userSpaceOnUse" x1=".203898" x2="1.053387" xlink:href="#b" y1=".415292" y2="1.008996"/><g clip-path="url(#a)" fill-rule="evenodd"><path d="m326.325 544 528.675 736h-1057.351z" fill="url(#c)"/><path d="m326.325 573 528.675 736h-1057.351z" fill="#222"/><path d="m60.473 663 439.527 617h-879.055z" fill="url(#d)"/><path d="m61.473 690 439.527 617h-879.055z" fill="#222"/><path d="m515 599 359 681h-718z" fill="url(#e)"/><path d="m515 630 359 681h-718z" fill="#222"/><path d="m1753.325 544 528.675 736h-1057.351z" fill="url(#f)"/><path d="m1753.325 572 528.675 736h-1057.351z" fill="#222"/><path d="m940.212 319 727.211 961h-1454.423z" fill="url(#g)"/><path d="m940.212 352 727.211 961h-1454.423z" fill="#222"/><path d="m1295.323 421 617.028 859h-1234.055z" fill="url(#h)"/><path d="m1295.323 451 617.028 859h-1234.055z" fill="#222"/><path d="m896.675 832.5 528.676 736h-1057.351z" fill="url(#i)"/><path d="m896.675 861.5 528.676 736h-1057.351z" fill="#222"/><path d="m1383.675 897.5 528.676 736h-1057.351z" fill="url(#j)"/><path d="m1383.675 926.5 528.676 736h-1057.351z" fill="#222"/></g></svg>